<svg width="45" height="48" viewBox="0 0 45 48" fill="none" xmlns="http://www.w3.org/2000/svg">
<path d="M13.6974 24.5093C18.6984 26.21 23.7877 27.6659 28.9455 28.8714L36.8211 16.2253C36.8211 16.2253 26.7198 5.65951 21.0191 2.45058C18.4771 1.02887 15.4778 0.535049 12.581 1.06128C9.68412 1.58752 7.08764 3.09785 5.27607 5.31044C3.4645 7.52302 2.56161 10.2867 2.73589 13.0857C2.91018 15.8846 4.14973 18.5277 6.22323 20.5216L0.942352 32.6276L2.84259 33.6972C2.38232 34.6011 2.15604 35.5965 2.18264 36.6003C2.20923 37.6042 2.48792 38.5875 2.99547 39.4682C3.56672 40.4628 3.85959 41.5802 3.846 42.7133C3.8324 43.8464 3.51279 44.9571 2.91783 45.939L4.81806 47.0087C5.5845 45.7593 6.00917 44.3471 6.05321 42.9013C6.09726 41.4556 5.75928 40.0224 5.07019 38.733C4.35882 36.9906 4.03402 35.905 4.74283 34.7669L6.64306 35.8365L13.6974 24.5093ZM8.18023 8.64302C9.22461 6.96605 10.9269 5.75219 12.9127 5.26848C14.8984 4.78477 17.005 5.07084 18.7689 6.06374C23.3349 9.21982 27.5453 12.8163 31.333 16.7959L26.8326 24.0222C21.3411 22.7785 15.9995 20.9982 10.8932 18.7098C9.12932 17.7169 7.85253 16.0985 7.34374 14.2106C6.83496 12.3227 7.13585 10.32 8.18023 8.64302ZM40.6968 30.6064C39.2004 29.8115 37.9569 28.648 37.0971 27.2382C36.4186 26.0989 35.4236 25.159 34.221 24.5213L35.3461 22.7147C36.8425 23.5096 38.086 24.6731 38.9458 26.0829C39.6243 27.2222 40.6193 28.1621 41.8219 28.7998L40.6968 30.6064ZM44.0721 25.1867C42.8695 24.5489 41.8745 23.609 41.196 22.4698C40.3362 21.0599 39.0927 19.8964 37.5963 19.1015L36.4712 20.9081C37.6738 21.5459 38.6688 22.4858 39.3473 23.625C40.2071 25.0348 41.4506 26.1984 42.947 26.9933L44.0721 25.1867ZM39.5717 32.413C38.3691 31.7752 37.3741 30.8353 36.6956 29.6961C35.8358 28.2863 34.5923 27.1227 33.0959 26.3278L31.9708 28.1344C33.1734 28.7722 34.1684 29.7121 34.8469 30.8513C35.7068 32.2612 36.9502 33.4247 38.4467 34.2196L39.5717 32.413ZM17.6814 13.9912C17.3476 14.5272 16.8542 14.957 16.2634 15.2263C15.6727 15.4957 15.0112 15.5924 14.3627 15.5043C13.7141 15.4163 13.1076 15.1473 12.6198 14.7315C12.132 14.3157 11.7848 13.7718 11.6222 13.1684C11.4596 12.565 11.4888 11.9294 11.7062 11.3418C11.9236 10.7542 12.3194 10.2411 12.8435 9.86741C13.3676 9.49368 13.9965 9.27611 14.6507 9.2422C15.3049 9.20828 15.955 9.35956 16.5187 9.67689C17.2747 10.1024 17.8219 10.796 18.0399 11.6051C18.258 12.4142 18.129 13.2725 17.6814 13.9912Z" fill="url(#paint0_linear_1350_21120)"/>
<defs>
<linearGradient id="paint0_linear_1350_21120" x1="29.5848" y1="7.27224" x2="6.63997" y2="48.0342" gradientUnits="userSpaceOnUse">
<stop stop-color="#094194"/>
<stop offset="1" stop-color="#5D7A9D"/>
</linearGradient>
</defs>
</svg>
