<?xml version="1.0" encoding="utf-8"?>
<!-- Generator: Adobe Illustrator 25.0.0, SVG Export Plug-In . SVG Version: 6.00 Build 0)  -->
<svg version="1.1" id="圖層_1" xmlns="http://www.w3.org/2000/svg" xmlns:xlink="http://www.w3.org/1999/xlink" x="0px" y="0px"
	 viewBox="0 0 38 61" style="enable-background:new 0 0 38 61;" xml:space="preserve">
<style type="text/css">
	.st0{fill:url(#SVGID_1_);}
</style>
<linearGradient id="SVGID_1_" gradientUnits="userSpaceOnUse" x1="19.3292" y1="60.1414" x2="19.3292" y2="0.8346">
	<stop  offset="1.209562e-03" style="stop-color:#5D7A9D;stop-opacity:0.46"/>
	<stop  offset="0.9988" style="stop-color:#094194;stop-opacity:0.9"/>
</linearGradient>
<path class="st0" d="M26.8,25.2L37.5,3.9c0.1-0.2,0.2-0.5,0.2-0.8c0-0.3,0-0.6-0.1-0.8c-0.1-0.3-0.2-0.5-0.4-0.7
	c-0.2-0.2-0.4-0.4-0.7-0.5c-0.2-0.1-0.5-0.2-0.8-0.2c-0.3,0-0.6,0-0.8,0.1c-0.3,0.1-0.5,0.2-0.7,0.4c-0.2,0.2-0.4,0.4-0.5,0.7
	L22.2,24.9L20.1,29l-4.7,9.2c-2.7-0.8-5.6-0.6-8.1,0.5c-2.5,1.2-4.5,3.3-5.6,5.8c-1.1,2.6-1.2,5.5-0.2,8.1c0.9,2.6,2.8,4.8,5.3,6.2
	c2.5,1.3,5.3,1.7,8,1c2.7-0.7,5.1-2.3,6.6-4.7c1.5-2.3,2.2-5.1,1.7-7.9c-0.4-2.8-1.9-5.3-4-7l5.5-10.9l0,0L26.8,25.2z M8.7,42.8
	c1.6-0.9,3.6-1.1,5.3-0.6c1.8,0.5,3.3,1.7,4.2,3.3c0.9,1.6,1.1,3.6,0.6,5.3c-0.5,1.8-1.7,3.3-3.4,4.2c-1.6,0.9-3.6,1.1-5.3,0.6
	c-1.8-0.5-3.3-1.7-4.2-3.4c-0.9-1.6-1.1-3.6-0.6-5.3C5.9,45.2,7.1,43.7,8.7,42.8z"/>
</svg>
