<?xml version="1.0" encoding="utf-8"?>
<!-- Generator: Adobe Illustrator 25.0.0, SVG Export Plug-In . SVG Version: 6.00 Build 0)  -->
<svg version="1.1" id="圖層_1" xmlns="http://www.w3.org/2000/svg" xmlns:xlink="http://www.w3.org/1999/xlink" x="0px" y="0px"
	 viewBox="0 0 50 51" style="enable-background:new 0 0 50 51;" xml:space="preserve">
<style type="text/css">
	.st0{fill:url(#SVGID_1_);}
</style>
<linearGradient id="SVGID_1_" gradientUnits="userSpaceOnUse" x1="-890.2413" y1="574.5537" x2="-891.6099" y2="576.129" gradientTransform="matrix(18.2974 15.8966 15.8966 -18.2974 7180.3638 24715.3652)">
	<stop  offset="0" style="stop-color:#5D7A9D"/>
	<stop  offset="1" style="stop-color:#094194;stop-opacity:0.9"/>
</linearGradient>
<path class="st0" d="M20.4,17.9L3.8,0.8C3.6,0.6,3.3,0.5,3.1,0.4C2.8,0.2,2.5,0.2,2.3,0.2c-0.3,0-0.6,0-0.8,0.1
	C1.2,0.4,1,0.6,0.8,0.8C0.6,1,0.4,1.2,0.3,1.5C0.2,1.7,0.1,2,0.1,2.3c0,0.3,0,0.6,0.2,0.8c0.1,0.3,0.3,0.5,0.5,0.7l17.8,18.4
	l3.2,3.3l7.2,7.4c-1.7,2.2-2.4,5-2.1,7.8c0.3,2.8,1.6,5.4,3.7,7.2c2.1,1.9,4.8,2.9,7.6,2.9c2.8,0,5.5-1.1,7.5-3
	c2.1-1.9,3.3-4.5,3.6-7.3c0.2-2.8-0.6-5.6-2.3-7.8c-1.7-2.2-4.2-3.7-6.9-4.2c-2.8-0.5-5.6,0-8,1.5l-8.5-8.8l0,0L20.4,17.9z
	 M31.1,40.7c-0.3-1.8,0.1-3.7,1.2-5.2c1.1-1.5,2.7-2.6,4.5-2.9c1.8-0.3,3.7,0.1,5.2,1.2s2.6,2.7,2.9,4.5c0.3,1.8-0.1,3.7-1.2,5.2
	s-2.7,2.6-4.5,2.9c-1.8,0.3-3.7-0.1-5.2-1.2C32.4,44.2,31.4,42.6,31.1,40.7z"/>
</svg>
