<svg width="6" height="9" viewBox="0 0 6 9" fill="none" xmlns="http://www.w3.org/2000/svg">
    <path d="M0.998944 8.54101C0.925257 8.54111 0.853374 8.51858 0.792889 8.47649C0.732404 8.4344 0.686323 8.37478 0.660809 8.30565C0.635295 8.23653 0.631428 8.16125 0.650067 8.08996C0.668706 8.01866 0.708973 7.95477 0.765057 7.90697L4.78703 4.46697L0.765057 1.02697C0.72914 0.996172 0.699541 0.958628 0.678143 0.916432C0.656745 0.874237 0.643923 0.828229 0.640301 0.781056C0.63668 0.733884 0.642441 0.686497 0.657147 0.64153C0.671853 0.596563 0.6952 0.554888 0.725995 0.518971C0.756789 0.483055 0.794395 0.453577 0.83659 0.432179C0.878786 0.410782 0.924672 0.397898 0.971844 0.394277C1.01902 0.390655 1.06653 0.396355 1.11149 0.411061C1.15646 0.425767 1.19813 0.449175 1.23405 0.47997L5.57389 4.19298C5.61336 4.22691 5.64517 4.26899 5.66691 4.31627C5.68866 4.36356 5.6998 4.41493 5.69987 4.46697C5.69992 4.51889 5.68867 4.57022 5.66691 4.61736C5.64516 4.6645 5.61344 4.70633 5.57389 4.73998L1.23405 8.45397C1.16853 8.50994 1.08512 8.54082 0.998944 8.54101Z" fill="#231815"/>
    </svg>
    