<svg width="14" height="16" viewBox="0 0 14 16" fill="none" xmlns="http://www.w3.org/2000/svg">
    <path d="M11.585 15.3881H2.54297C1.97141 15.3873 1.42347 15.1614 1.01932 14.76C0.615161 14.3586 0.387757 13.8144 0.386963 13.2467V4.13988C0.387757 3.5722 0.615161 3.02798 1.01932 2.62656C1.42347 2.22515 1.97141 1.99929 2.54297 1.9985H11.585C12.1566 1.99902 12.7047 2.22482 13.1089 2.62629C13.5131 3.02776 13.7404 3.57212 13.741 4.13988V13.2467C13.7404 13.8145 13.5131 14.3588 13.1089 14.7603C12.7047 15.1618 12.1566 15.3875 11.585 15.3881ZM2.54297 2.78315C2.18085 2.78367 1.8337 2.92677 1.57764 3.1811C1.32158 3.43542 1.1775 3.78022 1.17697 4.13988V13.2467C1.17776 13.6062 1.32197 13.9507 1.578 14.2048C1.83403 14.4589 2.18102 14.6019 2.54297 14.6024H11.585C11.9471 14.6019 12.2942 14.4588 12.5503 14.2045C12.8064 13.9502 12.9504 13.6054 12.951 13.2457V4.13888C12.9504 3.77921 12.8064 3.43442 12.5503 3.1801C12.2942 2.92577 11.9471 2.78267 11.585 2.78215L2.54297 2.78315Z" fill="#C8C9CA"/>
    <path d="M1.98198 2.39081H12.141C12.4592 2.39081 12.7645 2.51638 12.9895 2.7399C13.2146 2.96341 13.341 3.26657 13.341 3.58267V5.93064H0.781982V3.58267C0.781982 3.26657 0.908411 2.96341 1.13345 2.7399C1.3585 2.51638 1.66372 2.39081 1.98198 2.39081V2.39081Z" fill="#C8C9CA"/>
    <path d="M4.51597 0.401402H3.94597C3.71898 0.401402 3.53497 0.584165 3.53497 0.809614V2.37393C3.53497 2.59938 3.71898 2.78215 3.94597 2.78215H4.51597C4.74296 2.78215 4.92697 2.59938 4.92697 2.37393V0.809614C4.92697 0.584165 4.74296 0.401402 4.51597 0.401402Z" fill="#C8C9CA"/>
    <path d="M10.1819 0.401402H9.61193C9.38494 0.401402 9.20093 0.584165 9.20093 0.809614V2.37393C9.20093 2.59938 9.38494 2.78215 9.61193 2.78215H10.1819C10.4089 2.78215 10.5929 2.59938 10.5929 2.37393V0.809614C10.5929 0.584165 10.4089 0.401402 10.1819 0.401402Z" fill="#C8C9CA"/>
    <path d="M13.3459 8.62725H0.781952C0.68731 8.61303 0.60093 8.56556 0.538513 8.49349C0.476097 8.42141 0.441772 8.32949 0.441772 8.23442C0.441772 8.13935 0.476097 8.04744 0.538513 7.97536C0.60093 7.90328 0.68731 7.85582 0.781952 7.8416H13.3459C13.4406 7.85582 13.5269 7.90328 13.5894 7.97536C13.6518 8.04744 13.6861 8.13935 13.6861 8.23442C13.6861 8.32949 13.6518 8.42141 13.5894 8.49349C13.5269 8.56556 13.4406 8.61303 13.3459 8.62725Z" fill="#C8C9CA"/>
    <path d="M13.346 11.89H0.781982C0.724844 11.899 0.66639 11.8957 0.610687 11.8801C0.554984 11.8646 0.503341 11.8372 0.45932 11.7999C0.415299 11.7626 0.379953 11.7162 0.355713 11.6641C0.331473 11.6119 0.318909 11.5551 0.318909 11.4976C0.318909 11.4402 0.331473 11.3834 0.355713 11.3312C0.379953 11.279 0.415299 11.2327 0.45932 11.1954C0.503341 11.1581 0.554984 11.1307 0.610687 11.1152C0.66639 11.0996 0.724844 11.0963 0.781982 11.1053H13.346C13.4399 11.1202 13.5255 11.1679 13.5872 11.2398C13.649 11.3117 13.6829 11.4031 13.6829 11.4976C13.6829 11.5921 13.649 11.6836 13.5872 11.7555C13.5255 11.8274 13.4399 11.8751 13.346 11.89Z" fill="#C8C9CA"/>
    <path d="M4.92697 15.3881C4.82261 15.3868 4.72291 15.345 4.64911 15.2717C4.57531 15.1984 4.53328 15.0994 4.53198 14.9958V5.93067C4.53198 5.82661 4.5736 5.72681 4.64767 5.65323C4.72175 5.57966 4.82221 5.53832 4.92697 5.53832C5.03173 5.53832 5.13219 5.57966 5.20627 5.65323C5.28035 5.72681 5.32196 5.82661 5.32196 5.93067V14.9997C5.31964 15.1027 5.27715 15.2007 5.20346 15.2732C5.12977 15.3456 5.03065 15.3868 4.92697 15.3881Z" fill="#C8C9CA"/>
    <path d="M9.19995 15.3881C9.09559 15.3868 8.99585 15.345 8.92205 15.2717C8.84826 15.1984 8.80622 15.0994 8.80493 14.9958V5.93067C8.79581 5.87391 8.79919 5.81586 8.81485 5.76053C8.8305 5.70521 8.85807 5.65391 8.89563 5.61019C8.93318 5.56647 8.97984 5.53136 9.03237 5.50729C9.08491 5.48321 9.14209 5.47073 9.19995 5.47073C9.25781 5.47073 9.31498 5.48321 9.36752 5.50729C9.42006 5.53136 9.46669 5.56647 9.50424 5.61019C9.54179 5.65391 9.56936 5.70521 9.58502 5.76053C9.60067 5.81586 9.60406 5.87391 9.59494 5.93067V14.9997C9.59261 15.1027 9.55013 15.2007 9.47644 15.2732C9.40275 15.3456 9.30362 15.3868 9.19995 15.3881Z" fill="#C8C9CA"/>
    </svg>
    