<svg width="13" height="13" viewBox="0 0 13 13" fill="none" xmlns="http://www.w3.org/2000/svg">
    <path d="M6.1329 12.164C4.94527 12.1638 3.78435 11.8138 2.79697 11.1584C1.80958 10.5029 1.04008 9.57129 0.585724 8.48144C0.131373 7.3916 0.0125985 6.19241 0.244416 5.03552C0.476233 3.87863 1.04824 2.81602 1.88809 1.982C2.72795 1.14798 3.79791 0.580004 4.96274 0.349952C6.12757 0.119899 7.33495 0.23807 8.43216 0.689521C9.52937 1.14097 10.4672 1.90545 11.127 2.88625C11.7868 3.86705 12.1389 5.02014 12.1389 6.19972C12.1371 7.78115 11.5037 9.29729 10.3777 10.4154C9.25175 11.5336 7.72513 12.1624 6.1329 12.164ZM6.1329 0.874083C5.0724 0.874083 4.03574 1.18642 3.15396 1.77161C2.27219 2.3568 1.58488 3.18856 1.17905 4.16169C0.77321 5.13483 0.667038 6.20563 0.873932 7.23871C1.08083 8.27178 1.59151 9.22071 2.3414 9.96551C3.09129 10.7103 4.0467 11.2175 5.08682 11.423C6.12695 11.6285 7.20507 11.5231 8.18484 11.12C9.16462 10.7169 10.0021 10.0343 10.5913 9.15846C11.1805 8.28266 11.4949 7.25303 11.4949 6.19972C11.4933 4.78776 10.9279 3.43406 9.9227 2.43566C8.91747 1.43725 7.55451 0.87566 6.1329 0.874083Z" fill="#C8C9CA"/>
    <path d="M5.52296 8.6033C5.41851 8.60286 5.31839 8.56188 5.24397 8.48909L3.16694 6.452C3.10441 6.37608 3.07236 6.27985 3.07698 6.18187C3.08159 6.08389 3.12257 5.99108 3.19197 5.92129C3.26136 5.8515 3.3543 5.80967 3.45289 5.80387C3.55148 5.79806 3.64875 5.82867 3.72596 5.88983L5.51698 7.64684L8.53395 4.55495C8.60966 4.49093 8.70672 4.45721 8.8061 4.46038C8.90549 4.46355 9.00012 4.50339 9.07154 4.5721C9.14297 4.64082 9.18603 4.73349 9.19239 4.83205C9.19876 4.93061 9.16797 5.02796 9.10597 5.10518L5.80598 8.48214C5.73205 8.5576 5.63097 8.60083 5.52497 8.60233L5.52296 8.6033Z" fill="#C8C9CA"/>
    </svg>
    