<svg width="178" height="46" viewBox="0 0 178 46" fill="none" xmlns="http://www.w3.org/2000/svg">
<path d="M6.08837 5.02276C7.28841 5.02276 8.40182 4.94704 9.49161 5.07183C9.79268 5.10636 10.2464 5.73333 10.2537 6.0968C10.3161 9.03178 10.2894 11.9692 10.2894 14.906C10.2894 15.3912 10.2894 15.877 10.2894 16.5325C10.5887 16.3495 10.7807 16.2702 10.9243 16.1387C14.6764 12.7022 19.0423 11.8262 23.6976 13.669C28.3815 15.5233 31.0233 19.2524 31.6284 24.2301C32.4159 30.71 27.9568 36.7005 21.4956 38.089C15.1714 39.4483 8.64716 35.7483 6.65477 29.6021C6.28888 28.4741 6.04718 27.2529 6.03688 26.0722C5.97812 19.3542 6.00659 12.6355 6.00901 5.91688C6.00962 5.69759 6.04718 5.4777 6.08837 5.02276ZM27.4032 25.6209C27.4092 20.925 23.5098 17.0074 18.8363 17.0141C14.2015 17.0207 10.3203 20.8807 10.2931 25.5113C10.2652 30.3175 13.9931 34.0981 18.7951 34.1327C23.571 34.1672 27.3971 30.3835 27.4032 25.6209Z" fill="#232D4E"/>
<path d="M35.6939 25.6289C35.6854 18.5298 41.4069 12.7949 48.4975 12.7949C55.5572 12.7949 61.3781 18.594 61.369 25.6174C61.3599 32.6195 55.6251 38.3217 48.5763 38.3374C41.3681 38.3538 35.7023 32.7643 35.6939 25.6289ZM57.0898 25.6155C57.0935 20.9553 53.1765 17.022 48.5242 17.0141C43.8754 17.0063 39.9258 20.9311 39.9022 25.5822C39.8785 30.2673 43.7585 34.1303 48.4902 34.1321C53.2559 34.1339 57.0862 30.3412 57.0898 25.6155Z" fill="#232D4E"/>
<path d="M81.5624 18.4394C80.4847 18.7356 79.3943 19.0931 78.2754 19.2996C78.0095 19.3487 77.5164 18.9604 77.3559 18.6545C76.7156 17.4302 75.7094 16.9274 74.3942 17.0425C73.1112 17.1552 71.9209 18.2431 71.6798 19.4759C71.4163 20.8244 71.9978 21.8911 73.1136 22.529C74.6947 23.4322 76.3751 24.1616 78.0089 24.9727C81.1638 26.5398 82.5764 29.4766 81.7835 32.8078C81.0469 35.9015 78.0913 38.2695 74.8825 38.3361C71.3084 38.4106 68.1826 36.0257 67.6847 32.7357C68.8974 32.3922 70.1259 32.0439 71.4211 31.6768C71.6749 32.093 71.8736 32.4855 72.1335 32.832C72.9325 33.8994 74.0187 34.295 75.3156 34.0448C76.5211 33.8122 77.3207 33.0374 77.6412 31.8925C77.9919 30.6391 77.52 29.5142 76.4448 28.8812C74.8395 27.9361 73.1257 27.1723 71.4453 26.3575C68.3698 24.8667 67.0068 22.4078 67.4666 19.1294C67.9064 15.9981 70.3574 13.4472 73.4383 12.9141C77.2123 12.2617 81.0814 14.8254 81.5624 18.4394Z" fill="#232D4E"/>
</svg>
