<svg width="15" height="15" viewBox="0 0 15 15" fill="none" xmlns="http://www.w3.org/2000/svg">
    <path d="M2.54004 12.64C-0.179958 10.06 -0.299968 5.75002 2.28003 3.02002C4.86003 0.300022 9.17003 0.180012 11.9 2.76001C14.62 5.34001 14.74 9.65001 12.16 12.38C9.58004 15.1 5.27004 15.22 2.54004 12.64ZM11.39 3.28998C8.96005 0.989981 5.11002 1.09003 2.80002 3.53003C0.500021 5.96003 0.600042 9.81 3.04004 12.12C5.47004 14.42 9.32004 14.32 11.63 11.88C13.93 9.45001 13.83 5.58998 11.39 3.28998Z" fill="#F48E8C"/>
    <path d="M9.22002 10.1L4.72002 5.84004C4.57002 5.70004 4.57001 5.47003 4.71001 5.32003C4.85001 5.17003 5.08003 5.17002 5.23003 5.31002L9.73003 9.57002C9.88003 9.71002 9.88001 9.94004 9.74001 10.09C9.60001 10.23 9.36002 10.24 9.22002 10.1Z" fill="#F48E8C"/>
    <path d="M4.79003 10.27C4.64003 10.13 4.64002 9.90002 4.78002 9.75002L9.13002 5.15004C9.27002 5.00004 9.50001 5.00003 9.65001 5.14003C9.80001 5.28003 9.80002 5.50999 9.66002 5.65999L5.31002 10.26C5.17002 10.4 4.94003 10.4 4.79003 10.27Z" fill="#F48E8C"/>
    </svg>
    