<svg width="19" height="26" viewBox="0 0 19 26" fill="none" xmlns="http://www.w3.org/2000/svg">
    <path d="M12.3059 1.56297V6.93797C12.3059 6.99712 12.3294 7.05387 12.3712 7.09569C12.413 7.13751 12.4698 7.161 12.5289 7.161H17.9039C17.9481 7.16092 17.9912 7.14779 18.0278 7.12322C18.0645 7.09864 18.0929 7.06372 18.1098 7.02293C18.1266 6.98215 18.1309 6.93734 18.1222 6.89409C18.1135 6.85084 18.0922 6.81114 18.0609 6.78001L12.6859 1.40501C12.6549 1.37355 12.6151 1.35205 12.5718 1.34331C12.5285 1.33457 12.4836 1.33897 12.4428 1.35594C12.4019 1.37291 12.367 1.4017 12.3427 1.43858C12.3183 1.47547 12.3055 1.51877 12.3059 1.56297Z" fill="#222C4C"/>
    <path d="M17.6289 8.04501H13.193C12.8681 8.06191 12.5425 8.05322 12.219 8.01901C11.9714 8.00681 11.7381 7.89933 11.568 7.71902C11.4312 7.47922 11.3732 7.20255 11.402 6.92801V1.92801C11.4012 1.67948 11.3021 1.44139 11.1263 1.26566C10.9506 1.08992 10.7125 0.990812 10.464 0.990021H2.35388C1.95343 0.984621 1.5583 1.08168 1.20593 1.272C0.885044 1.45478 0.615443 1.7156 0.422115 2.03024C0.228788 2.34488 0.118025 2.70321 0.0999718 3.07205V22.72C0.0648696 23.2004 0.116975 23.6832 0.253902 24.1451C0.264902 24.1761 0.276913 24.2061 0.289913 24.2361C0.410688 24.5135 0.589107 24.762 0.813229 24.9653C1.03735 25.1686 1.3021 25.3218 1.58996 25.415C2.32367 25.5875 3.08058 25.6392 3.83093 25.568H15.7069C15.9309 25.568 16.153 25.568 16.37 25.545C16.9083 25.527 17.4232 25.3207 17.8249 24.962C18.0763 24.6927 18.2676 24.3731 18.3863 24.0244C18.5051 23.6757 18.5486 23.3058 18.5139 22.9391V8.93301C18.5142 8.69794 18.4212 8.47238 18.2552 8.30588C18.0893 8.13937 17.864 8.04554 17.6289 8.04501ZM3.10095 4.47305C3.10095 4.37201 3.14107 4.2751 3.21252 4.20364C3.28397 4.13219 3.38088 4.09201 3.48193 4.09201H7.3219C7.42294 4.09201 7.51985 4.13219 7.5913 4.20364C7.66276 4.2751 7.70288 4.37201 7.70288 4.47305V5.246C7.70288 5.34705 7.66276 5.44396 7.5913 5.51541C7.51985 5.58686 7.42294 5.62704 7.3219 5.62704H3.48193C3.38088 5.62704 3.28397 5.58686 3.21252 5.51541C3.14107 5.44396 3.10095 5.34705 3.10095 5.246V4.47305ZM3.48193 8.69504C3.38088 8.69504 3.28397 8.65492 3.21252 8.58347C3.14107 8.51201 3.10095 8.4151 3.10095 8.31406V7.54202C3.10082 7.49195 3.11053 7.44237 3.12963 7.39609C3.14874 7.3498 3.17687 7.30771 3.21228 7.27231C3.24768 7.2369 3.28965 7.20889 3.33593 7.18979C3.38222 7.17069 3.43186 7.16091 3.48193 7.16104H7.3219C7.37197 7.16091 7.42161 7.17069 7.46789 7.18979C7.51418 7.20889 7.55627 7.2369 7.59167 7.27231C7.62708 7.30771 7.65509 7.3498 7.67419 7.39609C7.69329 7.44237 7.70301 7.49195 7.70288 7.54202V8.31406C7.70288 8.4151 7.66276 8.51201 7.5913 8.58347C7.51985 8.65492 7.42294 8.69504 7.3219 8.69504H3.48193ZM12.012 20.363C11.4541 20.8197 10.772 21.0985 10.054 21.1631V21.963C10.0552 22.0008 10.0487 22.0385 10.0349 22.0737C10.0212 22.1089 10.0004 22.1411 9.97387 22.1681C9.94749 22.1939 9.9163 22.2142 9.88195 22.2278C9.84761 22.2413 9.81084 22.2479 9.77392 22.247H8.82898C8.75457 22.2477 8.68275 22.2194 8.6289 22.1681C8.60135 22.1417 8.57965 22.1097 8.56518 22.0744C8.55071 22.0391 8.54381 22.0012 8.54492 21.963V21.177C8.04123 21.1266 7.55194 20.9796 7.10388 20.744C6.74114 20.5577 6.43161 20.2824 6.20398 19.944C6.00755 19.6435 5.89554 19.2957 5.87988 18.937C5.88013 18.9059 5.88692 18.8752 5.89965 18.8468C5.91239 18.8184 5.9309 18.7929 5.95398 18.772C5.97653 18.748 6.00376 18.729 6.03405 18.7161C6.06435 18.7032 6.09695 18.6967 6.12988 18.6971H7.56494C7.64227 18.694 7.71903 18.712 7.78698 18.7491C7.85326 18.791 7.91292 18.8425 7.96399 18.902C8.06999 19.108 8.23403 19.2784 8.43591 19.3921C8.70753 19.5347 9.01256 19.6017 9.31897 19.586C9.66128 19.6063 10.0029 19.5356 10.309 19.381C10.4118 19.3286 10.498 19.2487 10.5582 19.1502C10.6184 19.0517 10.6501 18.9385 10.6499 18.823C10.6524 18.746 10.638 18.6693 10.6075 18.5984C10.5771 18.5276 10.5315 18.4643 10.4739 18.4131C10.3103 18.2828 10.1229 18.1859 9.92199 18.128C9.55498 18.0147 9.18242 17.92 8.8059 17.844C8.06573 17.7363 7.36272 17.4508 6.75695 17.0121C6.53075 16.8179 6.35239 16.574 6.23584 16.2997C6.11928 16.0253 6.06767 15.7276 6.08496 15.43C6.08088 15.1392 6.13746 14.8507 6.25109 14.583C6.36473 14.3152 6.53297 14.0741 6.74499 13.875C7.24193 13.421 7.87437 13.143 8.54492 13.084V12.284C8.54369 12.2459 8.55058 12.2079 8.56506 12.1726C8.57954 12.1372 8.60125 12.1053 8.6289 12.079C8.68265 12.0274 8.75445 11.9987 8.82898 11.9991H9.77392C9.81176 11.9975 9.84948 12.0038 9.88476 12.0175C9.92004 12.0313 9.9521 12.0523 9.97888 12.0791C10.0057 12.1059 10.0266 12.1378 10.0404 12.1731C10.0542 12.2084 10.0605 12.2462 10.059 12.284V13.104C10.5175 13.1716 10.9572 13.3326 11.3509 13.5771C11.6801 13.7781 11.9618 14.0479 12.1769 14.368C12.3536 14.6287 12.4594 14.931 12.4839 15.245C12.4831 15.3069 12.4584 15.366 12.4149 15.41C12.3936 15.4339 12.3674 15.4528 12.338 15.4656C12.3087 15.4784 12.277 15.4847 12.245 15.484H10.745C10.6683 15.4874 10.592 15.4716 10.5229 15.438C10.4602 15.4021 10.4072 15.3513 10.3689 15.29C10.3092 15.0988 10.1762 14.9392 9.9989 14.846C9.76148 14.7263 9.49929 14.6639 9.23339 14.6639C8.9675 14.6639 8.70531 14.7263 8.46789 14.846C8.37939 14.9034 8.30757 14.983 8.25964 15.0769C8.21171 15.1709 8.18942 15.2757 8.19494 15.381C8.19263 15.4545 8.20493 15.5277 8.2312 15.5964C8.25747 15.6651 8.29713 15.7279 8.3479 15.781C8.49186 15.9124 8.66238 16.0113 8.8479 16.071C9.17435 16.1843 9.50855 16.2738 9.8479 16.339C10.4276 16.4306 10.9939 16.5932 11.5339 16.823C11.9055 16.9792 12.2252 17.2375 12.4559 17.568C12.6668 17.9179 12.7711 18.3217 12.756 18.73C12.762 19.0405 12.6982 19.3485 12.5695 19.6311C12.4407 19.9137 12.2502 20.1638 12.012 20.363Z" fill="#222C4C"/>
    </svg>
    