<svg width="23" height="25" viewBox="0 0 23 25" fill="none" xmlns="http://www.w3.org/2000/svg">
    <path d="M21.7091 6.263C21.7091 5.48954 21.4019 4.74776 20.8551 4.20074C20.3083 3.65373 19.5666 3.34627 18.7931 3.34601H3.82105C3.43803 3.34601 3.05881 3.42145 2.70496 3.56805C2.35111 3.71466 2.02958 3.92956 1.75879 4.20044C1.488 4.47132 1.27319 4.79289 1.12671 5.14679C0.980225 5.50069 0.904898 5.87998 0.905029 6.263V7.52197H21.7051L21.7091 6.263Z" fill="#222C4C"/>
    <path d="M22.363 8.177H0.25V6.263C0.251059 5.31624 0.627656 4.40854 1.29712 3.73907C1.96658 3.06961 2.87428 2.69308 3.82104 2.69202H18.7931C19.7398 2.69308 20.6473 3.06964 21.3167 3.73914C21.986 4.40863 22.3622 5.31633 22.363 6.263V8.177ZM1.56311 6.86798H21.0631V6.26801C21.0626 5.66825 20.824 5.09322 20.3999 4.66913C19.9758 4.24504 19.4008 4.00651 18.801 4.00598H3.8291C3.22934 4.00651 2.65432 4.24504 2.23022 4.66913C1.80613 5.09322 1.56755 5.66825 1.56702 6.26801L1.56311 6.86798Z" fill="#222C4C"/>
    <path d="M0.280029 9.24799V21.429C0.281354 22.3764 0.658587 23.2845 1.32886 23.954C1.99913 24.6236 2.90773 24.9997 3.8551 25H18.7921C19.7401 24.9997 20.6491 24.623 21.3193 23.9526C21.9896 23.2822 22.3661 22.373 22.3661 21.425V9.24799H0.280029ZM16.1221 13.757L10.702 19.348C10.6422 19.4104 10.5705 19.4601 10.4912 19.4944C10.4119 19.5288 10.3265 19.547 10.2401 19.548H10.233C10.0608 19.548 9.89553 19.4801 9.77307 19.359L6.35901 15.988C6.29788 15.9276 6.24933 15.8559 6.21594 15.7767C6.18256 15.6976 6.16499 15.6126 6.16443 15.5267C6.16387 15.4408 6.18029 15.3557 6.21265 15.2761C6.245 15.1966 6.29269 15.1241 6.35303 15.063C6.41337 15.0019 6.48519 14.9532 6.56433 14.9199C6.64347 14.8865 6.72844 14.869 6.81433 14.8684C6.90023 14.8679 6.98537 14.8842 7.06494 14.9166C7.14451 14.9489 7.21695 14.9967 7.27808 15.057L10.222 17.964L15.1831 12.847C15.2429 12.7853 15.3142 12.7361 15.3931 12.702C15.4719 12.668 15.5568 12.6497 15.6427 12.6484C15.7286 12.6471 15.8138 12.6627 15.8937 12.6944C15.9735 12.7261 16.0464 12.7732 16.108 12.833C16.1697 12.8928 16.219 12.9642 16.2531 13.043C16.2871 13.1219 16.3053 13.2067 16.3066 13.2926C16.3079 13.3785 16.2923 13.4638 16.2606 13.5436C16.229 13.6235 16.1819 13.6963 16.1221 13.758V13.757Z" fill="#222C4C"/>
    <path d="M6.81703 0.0300293H6.69403C6.09148 0.0300293 5.60303 0.518487 5.60303 1.12103V2.90803C5.60303 3.51057 6.09148 3.99903 6.69403 3.99903H6.81703C7.41957 3.99903 7.90803 3.51057 7.90803 2.90803V1.12103C7.90803 0.518487 7.41957 0.0300293 6.81703 0.0300293Z" fill="#222C4C"/>
    <path d="M15.9269 0.0300293H15.8039C15.2013 0.0300293 14.7129 0.518487 14.7129 1.12103V2.90803C14.7129 3.51057 15.2013 3.99903 15.8039 3.99903H15.9269C16.5294 3.99903 17.0179 3.51057 17.0179 2.90803V1.12103C17.0179 0.518487 16.5294 0.0300293 15.9269 0.0300293Z" fill="#222C4C"/>
    </svg>
    