<svg width="28" height="25" viewBox="0 0 28 25" fill="none" xmlns="http://www.w3.org/2000/svg">
    <path d="M1.08596 11.243C0.932266 11.243 0.782361 11.1952 0.656961 11.1064C0.531561 11.0175 0.436854 10.8919 0.385919 10.7469C0.334984 10.6019 0.330346 10.4446 0.372629 10.2969C0.414911 10.1491 0.502025 10.0181 0.621957 9.92198L9.97396 2.44896C10.1021 2.34675 10.2604 2.28981 10.4242 2.28691C10.5881 2.28402 10.7483 2.33534 10.88 2.43297L17.38 7.26897L26.264 0.239001C26.3403 0.178593 26.4278 0.133812 26.5215 0.107226C26.6152 0.0806391 26.7132 0.0727501 26.8099 0.0840324C26.9066 0.0953147 27.0001 0.125527 27.0852 0.172961C27.1702 0.220394 27.2451 0.284097 27.3055 0.360461C27.3659 0.436824 27.4106 0.524361 27.4372 0.618029C27.4638 0.711697 27.4717 0.809708 27.4604 0.90642C27.4491 1.00313 27.4189 1.09666 27.3715 1.18169C27.3241 1.26672 27.2603 1.34156 27.184 1.40196L17.854 8.78496C17.7261 8.88544 17.5689 8.94124 17.4063 8.94377C17.2438 8.9463 17.0848 8.89546 16.954 8.799L10.454 3.96398L1.55396 11.081C1.42132 11.1873 1.25598 11.2446 1.08596 11.243Z" fill="#222C4C"/>
    <path d="M3.48102 24.1C3.3349 24.1 3.19022 24.0712 3.05524 24.0153C2.92026 23.9593 2.79762 23.8773 2.69435 23.7739C2.59108 23.6706 2.50919 23.5479 2.45337 23.4128C2.39755 23.2778 2.36889 23.1331 2.36902 22.987V15.913C2.36902 15.618 2.48622 15.335 2.69486 15.1263C2.90349 14.9177 3.18647 14.8005 3.48152 14.8005C3.77658 14.8005 4.05954 14.9177 4.26817 15.1263C4.47681 15.335 4.59401 15.618 4.59401 15.913V22.987C4.59401 23.2822 4.47675 23.5653 4.26802 23.774C4.05929 23.9827 3.7762 24.1 3.48102 24.1Z" fill="#222C4C"/>
    <path d="M10.437 24.1C10.2908 24.1 10.1462 24.0712 10.0112 24.0153C9.87621 23.9593 9.75357 23.8773 9.6503 23.7739C9.54703 23.6706 9.46514 23.5479 9.40932 23.4128C9.35349 23.2778 9.32482 23.1331 9.32495 22.987V10.8C9.33363 10.5107 9.45464 10.2362 9.66232 10.0347C9.87001 9.83311 10.148 9.72034 10.4375 9.72034C10.7269 9.72034 11.0049 9.83311 11.2126 10.0347C11.4203 10.2362 11.5413 10.5107 11.55 10.8V22.989C11.5494 23.2839 11.4319 23.5664 11.2233 23.7747C11.0146 23.983 10.7318 24.1 10.437 24.1Z" fill="#222C4C"/>
    <path d="M17.3919 24.1C17.2458 24.1 17.1011 24.0712 16.9662 24.0153C16.8312 23.9593 16.7085 23.8773 16.6053 23.7739C16.502 23.6706 16.4201 23.5479 16.3643 23.4128C16.3085 23.2778 16.2798 23.1331 16.2799 22.987V14.136C16.2755 13.9871 16.3009 13.8388 16.3548 13.7C16.4087 13.5611 16.49 13.4344 16.5937 13.3275C16.6974 13.2206 16.8216 13.1356 16.9588 13.0776C17.096 13.0195 17.2434 12.9896 17.3924 12.9896C17.5414 12.9896 17.6888 13.0195 17.826 13.0776C17.9632 13.1356 18.0874 13.2206 18.1911 13.3275C18.2949 13.4344 18.3761 13.5611 18.43 13.7C18.4839 13.8388 18.5094 13.9871 18.5049 14.136V22.987C18.5049 23.2822 18.3877 23.5653 18.1789 23.774C17.9702 23.9827 17.6871 24.1 17.3919 24.1Z" fill="#222C4C"/>
    <path d="M24.347 24.1C24.2009 24.1 24.0562 24.0712 23.9212 24.0153C23.7863 23.9593 23.6636 23.8773 23.5603 23.7739C23.4571 23.6706 23.3752 23.5479 23.3194 23.4128C23.2635 23.2778 23.2349 23.1331 23.235 22.987V10.8C23.2437 10.5107 23.3647 10.2362 23.5724 10.0347C23.7801 9.83311 24.0581 9.72034 24.3475 9.72034C24.6369 9.72034 24.9149 9.83311 25.1226 10.0347C25.3303 10.2362 25.4513 10.5107 25.46 10.8V22.989C25.4595 23.2839 25.342 23.5664 25.1333 23.7747C24.9246 23.983 24.6418 24.1 24.347 24.1Z" fill="#222C4C"/>
    </svg>
    