<svg width="23" height="25" viewBox="0 0 23 25" fill="none" xmlns="http://www.w3.org/2000/svg">
    <path d="M18.79 25H3.82599C2.87957 24.9987 1.97226 24.6221 1.30304 23.9529C0.633821 23.2837 0.257304 22.3764 0.255981 21.43V6.26001C0.257305 5.31369 0.633854 4.40649 1.3031 3.73743C1.97235 3.06837 2.87966 2.69204 3.82599 2.69098H18.79C19.7362 2.69204 20.6434 3.0684 21.3124 3.73749C21.9815 4.40658 22.3579 5.31378 22.3589 6.26001V21.434C22.3568 22.3797 21.98 23.2859 21.3111 23.9543C20.6422 24.6227 19.7356 24.9987 18.79 25ZM3.82599 4C3.2264 4.00053 2.65148 4.2389 2.22742 4.66278C1.80335 5.08666 1.56476 5.6614 1.56396 6.26099V21.435C1.56476 22.0347 1.80332 22.6095 2.22736 23.0336C2.65139 23.4576 3.22631 23.6962 3.82599 23.697H18.79C19.3895 23.696 19.9641 23.4573 20.3879 23.0333C20.8118 22.6093 21.0502 22.0345 21.051 21.435V6.26001C21.0499 5.66077 20.8113 5.08641 20.3875 4.66278C19.9637 4.23915 19.3892 4.00079 18.79 4H3.82599Z" fill="#222C4C"/>
    <path d="M5.41989 3.34497H17.1959C18.3918 3.34497 19.5386 3.82002 20.3842 4.66563C21.2298 5.51123 21.7049 6.65811 21.7049 7.85397V9.24497H0.910889V7.85397C0.910889 6.65811 1.38594 5.51123 2.23154 4.66563C3.07715 3.82002 4.22403 3.34497 5.41989 3.34497V3.34497Z" fill="#222C4C"/>
    <path d="M10.234 19.537C10.0622 19.5374 9.89718 19.4698 9.77498 19.349L6.36196 15.979C6.24418 15.8561 6.17897 15.6921 6.18019 15.5219C6.18141 15.3516 6.24896 15.1886 6.36849 15.0673C6.48801 14.9461 6.65013 14.8763 6.82033 14.8727C6.99053 14.8691 7.15542 14.932 7.27999 15.048L10.224 17.954L15.181 12.84C15.3018 12.7155 15.4671 12.6441 15.6406 12.6414C15.8141 12.6388 15.9815 12.7052 16.106 12.826C16.2305 12.9468 16.302 13.1121 16.3046 13.2856C16.3072 13.4591 16.2408 13.6265 16.12 13.751L10.703 19.339C10.6431 19.4014 10.5715 19.4512 10.4921 19.4855C10.4128 19.5199 10.3274 19.5381 10.241 19.539L10.234 19.537Z" fill="#222C4C"/>
    <path d="M7.90993 1.18203C7.90993 0.545797 7.39439 0.0300293 6.75843 0.0300293C6.12248 0.0300293 5.60693 0.545797 5.60693 1.18203V2.84503C5.60693 3.48126 6.12248 3.99703 6.75843 3.99703C7.39439 3.99703 7.90993 3.48126 7.90993 2.84503V1.18203Z" fill="#222C4C"/>
    <path d="M17.0159 1.18203C17.0159 0.545797 16.5003 0.0300293 15.8644 0.0300293C15.2284 0.0300293 14.7129 0.545797 14.7129 1.18203V2.84503C14.7129 3.48126 15.2284 3.99703 15.8644 3.99703C16.5003 3.99703 17.0159 3.48126 17.0159 2.84503V1.18203Z" fill="#222C4C"/>
    </svg>
    