<svg width="26" height="26" viewBox="0 0 26 26" fill="none" xmlns="http://www.w3.org/2000/svg">
    <path d="M13.3 25.473C10.851 25.473 8.45703 24.7468 6.4208 23.3862C4.38456 22.0256 2.79754 20.0917 1.8604 17.8292C0.923267 15.5666 0.678121 13.077 1.15596 10.6751C1.63381 8.27316 2.81318 6.06689 4.54493 4.33527C6.27669 2.60366 8.48304 1.42443 10.885 0.946784C13.2869 0.469135 15.7766 0.714484 18.0391 1.6518C20.3015 2.58912 22.2353 4.17631 23.5957 6.21265C24.9562 8.24899 25.6822 10.643 25.682 13.092C25.6783 16.3747 24.3725 19.5219 22.0512 21.843C19.7299 24.1641 16.5827 25.4696 13.3 25.473ZM13.3 2.02503C11.1114 2.02523 8.97205 2.67436 7.15241 3.89039C5.33277 5.10641 3.91457 6.83469 3.07713 8.8567C2.23969 10.8787 2.02064 13.1036 2.44765 15.2501C2.87467 17.3966 3.92858 19.3683 5.47613 20.9158C7.02368 22.4634 8.99536 23.5173 11.1419 23.9443C13.2884 24.3714 15.5133 24.1523 17.5353 23.3148C19.5573 22.4774 21.2856 21.0592 22.5016 19.2396C23.7176 17.4199 24.3668 15.2806 24.367 13.092C24.3638 10.1578 23.1968 7.34474 21.122 5.26997C19.0472 3.19519 16.2342 2.02821 13.3 2.02503Z" fill="#222C4C"/>
    <path d="M17.9369 17.132C17.808 17.1323 17.6819 17.0939 17.5749 17.022L12.4749 13.64C12.3845 13.58 12.3104 13.4986 12.2591 13.403C12.2078 13.3073 12.1809 13.2005 12.1809 13.092V6.10602C12.1775 6.01752 12.1919 5.92922 12.2234 5.84644C12.2549 5.76365 12.3028 5.68804 12.3642 5.62421C12.4256 5.56037 12.4992 5.5096 12.5807 5.47491C12.6622 5.44022 12.7499 5.42236 12.8384 5.42236C12.927 5.42236 13.0146 5.44022 13.0961 5.47491C13.1776 5.5096 13.2513 5.56037 13.3127 5.62421C13.3741 5.68804 13.4219 5.76365 13.4534 5.84644C13.4849 5.92922 13.4994 6.01752 13.4959 6.10602V12.739L18.2959 15.927C18.4138 16.005 18.5034 16.1189 18.5514 16.2518C18.5995 16.3848 18.6033 16.5297 18.5624 16.665C18.5216 16.8003 18.4381 16.9188 18.3246 17.0029C18.211 17.0871 18.0733 17.1324 17.9319 17.132H17.9369Z" fill="#222C4C"/>
    </svg>
    