<svg width="19" height="26" viewBox="0 0 19 26" fill="none" xmlns="http://www.w3.org/2000/svg">
    <path d="M16.282 25.593H2.33295C1.73965 25.5925 1.17084 25.3565 0.751404 24.9369C0.331971 24.5173 0.096212 23.9483 0.0959473 23.355V3.23297C0.0964764 2.63975 0.332333 2.07099 0.751709 1.65143C1.17108 1.23187 1.73973 0.995789 2.33295 0.994995H10.5079C10.7496 0.995259 10.9813 1.09133 11.1522 1.26208C11.3232 1.43284 11.4195 1.66438 11.42 1.90601V7.27399C11.4202 7.48007 11.5021 7.67767 11.6478 7.82349C11.7934 7.9693 11.9909 8.05147 12.197 8.052H17.6509C17.8812 8.05227 18.102 8.14394 18.2648 8.30688C18.4275 8.46983 18.519 8.69072 18.519 8.92102V23.355C18.5187 23.9483 18.283 24.5173 17.8635 24.9369C17.4441 25.3565 16.8753 25.5925 16.282 25.593ZM2.33295 2.29999C2.08655 2.30052 1.8504 2.39874 1.67627 2.57306C1.50213 2.74738 1.40426 2.98358 1.40399 3.22998V23.352C1.40426 23.5984 1.50213 23.8347 1.67627 24.009C1.8504 24.1833 2.08655 24.2815 2.33295 24.282H16.282C16.5284 24.2815 16.7645 24.1833 16.9387 24.009C17.1128 23.8347 17.2107 23.5984 17.2109 23.352V9.35999H12.197C11.6441 9.35919 11.114 9.13917 10.7231 8.74811C10.3323 8.35705 10.1125 7.82689 10.1119 7.27399V2.29999H2.33295Z" fill="#222C4C"/>
    <path d="M12.301 1.56999V6.94798C12.301 7.00713 12.3245 7.06388 12.3663 7.1057C12.4082 7.14752 12.4649 7.17101 12.524 7.17101H17.902C17.9462 7.17113 17.9895 7.15809 18.0262 7.13359C18.063 7.1091 18.0917 7.07426 18.1086 7.03343C18.1256 6.99261 18.13 6.94762 18.1213 6.90428C18.1127 6.86094 18.0913 6.82115 18.06 6.78996L12.682 1.41197C12.6508 1.38066 12.611 1.35935 12.5677 1.35069C12.5243 1.34204 12.4794 1.34646 12.4386 1.36339C12.3978 1.38032 12.3629 1.409 12.3384 1.44579C12.3139 1.48257 12.3009 1.5258 12.301 1.56999Z" fill="#222C4C"/>
    <path d="M7.11294 4.10101H3.67394C3.35196 4.10101 3.09094 4.36203 3.09094 4.68401V5.05301C3.09094 5.375 3.35196 5.63601 3.67394 5.63601H7.11294C7.43492 5.63601 7.69594 5.375 7.69594 5.05301V4.68401C7.69594 4.36203 7.43492 4.10101 7.11294 4.10101Z" fill="#222C4C"/>
    <path d="M7.11294 7.17102H3.67394C3.35196 7.17102 3.09094 7.43204 3.09094 7.75402V8.12302C3.09094 8.445 3.35196 8.70602 3.67394 8.70602H7.11294C7.43492 8.70602 7.69594 8.445 7.69594 8.12302V7.75402C7.69594 7.43204 7.43492 7.17102 7.11294 7.17102Z" fill="#222C4C"/>
    <path d="M8.61798 22.182C8.58997 22.1557 8.56788 22.1237 8.55322 22.0882C8.53856 22.0527 8.53165 22.0144 8.53296 21.976V21.19C8.02885 21.1401 7.53916 20.9931 7.09094 20.757C6.72862 20.57 6.41917 20.2949 6.19098 19.957C5.99412 19.6563 5.88213 19.3081 5.86694 18.949C5.86719 18.9179 5.87392 18.8872 5.88666 18.8588C5.8994 18.8304 5.9179 18.8049 5.94098 18.784C5.96358 18.7602 5.99088 18.7413 6.02118 18.7285C6.05148 18.7158 6.08408 18.7095 6.11694 18.71H7.55298C7.63022 18.7067 7.70691 18.7243 7.77496 18.761C7.84147 18.803 7.90117 18.8549 7.95197 18.915C8.05837 19.1204 8.22239 19.2904 8.42395 19.404C8.69593 19.5467 9.00126 19.6137 9.30798 19.598C9.64985 19.6199 9.9914 19.5509 10.298 19.398C10.4008 19.3455 10.4872 19.2657 10.5475 19.1672C10.6079 19.0687 10.6399 18.9555 10.64 18.84C10.6423 18.763 10.6277 18.6864 10.5973 18.6156C10.5669 18.5447 10.5214 18.4814 10.464 18.43C10.3003 18.2994 10.1123 18.2025 9.91095 18.145C9.54396 18.0314 9.17152 17.9362 8.79498 17.86C8.05391 17.7533 7.34994 17.4678 6.74396 17.028C6.5178 16.8336 6.33951 16.5896 6.22296 16.315C6.10641 16.0405 6.05475 15.7428 6.07196 15.445C6.06783 15.1542 6.1244 14.8657 6.23804 14.5979C6.35168 14.3302 6.51987 14.0891 6.73193 13.89C7.22878 13.4357 7.86133 13.1574 8.53198 13.098V12.298C8.53069 12.2597 8.53758 12.2217 8.55225 12.1863C8.56691 12.1509 8.58896 12.1192 8.61694 12.093C8.67068 12.0415 8.74251 12.0131 8.81696 12.014H9.76196C9.79979 12.0121 9.83758 12.0182 9.87292 12.0318C9.90827 12.0454 9.94039 12.0663 9.96722 12.093C9.99405 12.1198 10.015 12.1518 10.0287 12.1871C10.0425 12.2224 10.0487 12.2602 10.0469 12.298V13.119C10.5058 13.1866 10.9459 13.3475 11.34 13.592C11.6693 13.7927 11.9512 14.0626 12.166 14.383C12.3434 14.6437 12.4493 14.9465 12.473 15.261C12.4728 15.3228 12.4484 15.3821 12.405 15.426C12.3835 15.45 12.3571 15.4691 12.3276 15.4818C12.298 15.4946 12.2661 15.5008 12.2339 15.5H10.7339C10.6573 15.5033 10.581 15.4875 10.512 15.454C10.4491 15.4186 10.3964 15.3677 10.3589 15.306C10.3294 15.2113 10.2814 15.1232 10.2178 15.047C10.1541 14.9708 10.076 14.908 9.98798 14.862C9.75043 14.7421 9.48807 14.6796 9.22198 14.6796C8.9559 14.6796 8.69354 14.7421 8.45599 14.862C8.36749 14.9193 8.29561 14.999 8.24768 15.0929C8.19975 15.1868 8.17746 15.2917 8.18298 15.397C8.18055 15.4705 8.19284 15.5438 8.21912 15.6124C8.24539 15.6811 8.28507 15.7439 8.33594 15.797C8.48008 15.9281 8.65054 16.027 8.83594 16.087C9.16227 16.2006 9.4965 16.2902 9.83594 16.355C10.4161 16.4468 10.9827 16.6097 11.5229 16.84C11.8951 16.9962 12.2152 17.2549 12.446 17.586C12.6551 17.9365 12.7576 18.3402 12.741 18.748C12.7499 19.0585 12.689 19.3671 12.5629 19.6509C12.4367 19.9347 12.2484 20.1866 12.012 20.388C11.4538 20.8449 10.7714 21.1236 10.053 21.188V21.988C10.0543 22.026 10.0478 22.0638 10.0341 22.0992C10.0203 22.1346 9.99953 22.1668 9.97296 22.194C9.94599 22.2204 9.91386 22.2411 9.8786 22.2547C9.84335 22.2683 9.8057 22.2745 9.76794 22.273H8.82294C8.78438 22.2726 8.74637 22.2643 8.71112 22.2486C8.67588 22.233 8.64418 22.2103 8.61798 22.182Z" fill="#222C4C"/>
    </svg>
    