<svg width="26" height="26" viewBox="0 0 26 26" fill="none" xmlns="http://www.w3.org/2000/svg">
    <path d="M13.308 25.493C10.8555 25.493 8.45804 24.7657 6.41887 23.4032C4.3797 22.0407 2.79038 20.104 1.85186 17.8382C0.913329 15.5724 0.667771 13.0792 1.14623 10.6739C1.62468 8.26851 2.80567 6.05905 4.53984 4.32488C6.27401 2.59071 8.48348 1.40972 10.8888 0.931262C13.2942 0.452806 15.7874 0.698363 18.0532 1.63689C20.319 2.57542 22.2557 4.16474 23.6182 6.20391C24.9807 8.24308 25.708 10.6405 25.708 13.093C25.704 16.3805 24.3963 19.5321 22.0717 21.8567C19.7471 24.1813 16.5954 25.489 13.308 25.493ZM13.308 2.02196C11.1185 2.02196 8.97825 2.67123 7.15779 3.88762C5.33734 5.10401 3.91848 6.83292 3.08062 8.8557C2.24275 10.8785 2.02353 13.1043 2.45067 15.2516C2.87781 17.399 3.93211 19.3715 5.48027 20.9197C7.02844 22.4678 9.00093 23.5221 11.1483 23.9493C13.2957 24.3764 15.5215 24.1572 17.5443 23.3193C19.567 22.4815 21.2959 21.0626 22.5123 19.2422C23.7287 17.4217 24.3779 15.2814 24.3779 13.092C24.3748 10.157 23.2075 7.34315 21.1321 5.26781C19.0568 3.19247 16.2429 2.02514 13.308 2.02196Z" fill="#222C4C"/>
    <path d="M8.45891 14.547C9.26248 14.547 9.91391 13.8956 9.91391 13.092C9.91391 12.2884 9.26248 11.637 8.45891 11.637C7.65533 11.637 7.00391 12.2884 7.00391 13.092C7.00391 13.8956 7.65533 14.547 8.45891 14.547Z" fill="#222C4C"/>
    <path d="M13.3079 14.547C14.1115 14.547 14.7629 13.8956 14.7629 13.092C14.7629 12.2884 14.1115 11.637 13.3079 11.637C12.5043 11.637 11.8529 12.2884 11.8529 13.092C11.8529 13.8956 12.5043 14.547 13.3079 14.547Z" fill="#222C4C"/>
    <path d="M18.1569 14.547C18.9605 14.547 19.6119 13.8956 19.6119 13.092C19.6119 12.2884 18.9605 11.637 18.1569 11.637C17.3533 11.637 16.7019 12.2884 16.7019 13.092C16.7019 13.8956 17.3533 14.547 18.1569 14.547Z" fill="#222C4C"/>
    </svg>
    