<svg width="24" height="26" viewBox="0 0 24 26" fill="none" xmlns="http://www.w3.org/2000/svg">
<path d="M5.42098 3.87H18.633C19.6506 3.87 20.6266 4.27425 21.3462 4.99383C22.0657 5.7134 22.47 6.68936 22.47 7.707V7.93799H1.58398V7.707C1.58398 6.68936 1.98824 5.7134 2.70782 4.99383C3.42739 4.27425 4.40335 3.87 5.42098 3.87V3.87Z" fill="#222C4C"/>
<path d="M23.127 8.59998H0.927002V6.83698C0.92806 5.87739 1.30966 4.95743 1.9881 4.27881C2.66653 3.60018 3.58644 3.2183 4.54602 3.21698H19.508C20.4677 3.21804 21.3877 3.59982 22.0662 4.2785C22.7447 4.95718 23.1262 5.87731 23.127 6.83698V8.59998ZM2.24103 7.28601H21.814V6.83698C21.8132 6.22563 21.57 5.63956 21.1377 5.20728C20.7054 4.77499 20.1193 4.5318 19.508 4.53101H4.54602C3.93563 4.53312 3.35091 4.77693 2.91986 5.20911C2.48881 5.64128 2.2465 6.22659 2.24597 6.83698L2.24103 7.28601Z" fill="#222C4C"/>
<path d="M7.38291 0.539978H7.25091C6.64837 0.539978 6.15991 1.02844 6.15991 1.63098V3.43398C6.15991 4.03652 6.64837 4.52498 7.25091 4.52498H7.38291C7.98545 4.52498 8.47391 4.03652 8.47391 3.43398V1.63098C8.47391 1.02844 7.98545 0.539978 7.38291 0.539978Z" fill="#222C4C"/>
<path d="M16.8031 0.539978H16.6711C16.0685 0.539978 15.5801 1.02844 15.5801 1.63098V3.43398C15.5801 4.03652 16.0685 4.52498 16.6711 4.52498H16.8031C17.4056 4.52498 17.8941 4.03652 17.8941 3.43398V1.63098C17.8941 1.02844 17.4056 0.539978 16.8031 0.539978Z" fill="#222C4C"/>
<path d="M14.9231 19.771H9.1311V25.621H14.9231V19.771Z" fill="#222C4C"/>
<path d="M7.81704 14.308H0.936035V18.457H7.81704V14.308Z" fill="#222C4C"/>
<path d="M14.9231 14.308H9.1311V18.457H14.9231V14.308Z" fill="#222C4C"/>
<path d="M14.9231 9.79498H9.1311V12.994H14.9231V9.79498Z" fill="#222C4C"/>
<path d="M7.81708 19.771H0.935059V22.028C0.935059 22.9807 1.31349 23.8943 1.98712 24.5679C2.66075 25.2416 3.57438 25.62 4.52704 25.62H7.81604L7.81708 19.771Z" fill="#222C4C"/>
<path d="M16.2351 19.771V25.62H19.5141C20.4668 25.62 21.3806 25.2416 22.0544 24.568C22.7282 23.8944 23.1069 22.9808 23.1071 22.028V19.771H16.2351Z" fill="#222C4C"/>
<path d="M7.81704 9.79498H0.936035V12.994H7.81704V9.79498Z" fill="#222C4C"/>
<path d="M23.1081 14.308H16.2371V18.457H23.1081V14.308Z" fill="#222C4C"/>
<path d="M23.1081 9.79498H16.2371V12.994H23.1081V9.79498Z" fill="#222C4C"/>
</svg>
