<svg width="24" height="26" viewBox="0 0 24 26" fill="none" xmlns="http://www.w3.org/2000/svg">
    <path d="M19.5481 25.643H4.50609C3.55499 25.6419 2.64314 25.2637 1.97052 24.5913C1.29789 23.9189 0.919414 23.0071 0.918091 22.056V6.79999C0.919414 5.8488 1.29786 4.93694 1.97046 4.26434C2.64305 3.59175 3.5549 3.2133 4.50609 3.21198H19.5481C20.4992 3.2133 21.4109 3.59178 22.0834 4.2644C22.7558 4.93703 23.134 5.84889 23.1351 6.79999V22.053C23.1348 23.0045 22.7569 23.917 22.0844 24.5901C21.4118 25.2633 20.4996 25.6419 19.5481 25.643ZM4.50609 4.53003C3.90342 4.53056 3.32558 4.77019 2.89942 5.19635C2.47327 5.62251 2.23362 6.2003 2.23309 6.80298V22.056C2.23389 22.6585 2.47365 23.2361 2.89978 23.662C3.3259 24.088 3.90359 24.3275 4.50609 24.328H19.5481C20.1505 24.3275 20.7281 24.088 21.1541 23.662C21.58 23.236 21.8196 22.6584 21.8201 22.056V6.79999C21.8198 6.19741 21.5804 5.6196 21.1544 5.19342C20.7284 4.76724 20.1507 4.52751 19.5481 4.52698L4.50609 4.53003Z" fill="#222C4C"/>
    <path d="M4.45605 3.87299H19.598C20.3615 3.87352 21.0936 4.17718 21.6332 4.71723C22.1729 5.25727 22.476 5.98951 22.476 6.75299V9.80199H1.57605V6.75299C1.57605 5.98916 1.87948 5.25662 2.41958 4.71652C2.95969 4.17641 3.69223 3.87299 4.45605 3.87299V3.87299Z" fill="#222C4C"/>
    <path d="M7.51801 0.539978H7.10901C6.58268 0.539978 6.15601 0.966651 6.15601 1.49298V3.57498C6.15601 4.10131 6.58268 4.52798 7.10901 4.52798H7.51801C8.04433 4.52798 8.47101 4.10131 8.47101 3.57498V1.49298C8.47101 0.966651 8.04433 0.539978 7.51801 0.539978Z" fill="#222C4C"/>
    <path d="M16.945 0.539978H16.536C16.0097 0.539978 15.583 0.966651 15.583 1.49298V3.57498C15.583 4.10131 16.0097 4.52798 16.536 4.52798H16.945C17.4713 4.52798 17.898 4.10131 17.898 3.57498V1.49298C17.898 0.966651 17.4713 0.539978 16.945 0.539978Z" fill="#222C4C"/>
    <path d="M22.4781 14.318H1.57806C1.48955 14.3215 1.40127 14.307 1.31849 14.2755C1.2357 14.244 1.16013 14.1962 1.09629 14.1348C1.03245 14.0734 0.981669 13.9997 0.94698 13.9182C0.91229 13.8367 0.894409 13.7491 0.894409 13.6605C0.894409 13.572 0.91229 13.4843 0.94698 13.4028C0.981669 13.3213 1.03245 13.2476 1.09629 13.1862C1.16013 13.1248 1.2357 13.077 1.31849 13.0455C1.40127 13.014 1.48955 12.9996 1.57806 13.003H22.4781C22.648 13.0096 22.8088 13.0818 22.9267 13.2044C23.0446 13.327 23.1104 13.4905 23.1104 13.6605C23.1104 13.8306 23.0446 13.9941 22.9267 14.1167C22.8088 14.2392 22.648 14.3114 22.4781 14.318Z" fill="#222C4C"/>
    <path d="M22.478 19.784H1.57802C1.40377 19.784 1.23666 19.7148 1.11345 19.5916C0.990238 19.4683 0.921021 19.3013 0.921021 19.127C0.921021 18.9528 0.990238 18.7856 1.11345 18.6624C1.23666 18.5392 1.40377 18.47 1.57802 18.47H22.478C22.6523 18.47 22.8194 18.5392 22.9426 18.6624C23.0658 18.7856 23.135 18.9528 23.135 19.127C23.135 19.3013 23.0658 19.4683 22.9426 19.5916C22.8194 19.7148 22.6523 19.784 22.478 19.784Z" fill="#222C4C"/>
    <path d="M8.4711 25.643C8.29685 25.643 8.12974 25.5738 8.00653 25.4506C7.88332 25.3274 7.8141 25.1603 7.8141 24.986V9.79999C7.81065 9.71149 7.8251 9.62319 7.85659 9.54041C7.88807 9.45762 7.93595 9.38207 7.99734 9.31824C8.05874 9.2544 8.13239 9.20364 8.21388 9.16895C8.29537 9.13426 8.38303 9.11633 8.4716 9.11633C8.56017 9.11633 8.64782 9.13426 8.72932 9.16895C8.81081 9.20364 8.88446 9.2544 8.94586 9.31824C9.00725 9.38207 9.05513 9.45762 9.08661 9.54041C9.1181 9.62319 9.13255 9.71149 9.1291 9.79999V24.984C9.12936 25.0705 9.11253 25.1563 9.07957 25.2363C9.04661 25.3163 8.99816 25.389 8.93702 25.4502C8.87588 25.5114 8.80325 25.56 8.72329 25.5931C8.64334 25.6262 8.55763 25.6431 8.4711 25.643Z" fill="#222C4C"/>
    <path d="M15.5821 25.643C15.4078 25.643 15.2407 25.5738 15.1175 25.4506C14.9943 25.3274 14.9251 25.1603 14.9251 24.986V9.79999C14.9216 9.71149 14.9361 9.62319 14.9675 9.54041C14.999 9.45762 15.0469 9.38207 15.1083 9.31824C15.1697 9.2544 15.2433 9.20364 15.3248 9.16895C15.4063 9.13426 15.494 9.11633 15.5826 9.11633C15.6711 9.11633 15.7588 9.13426 15.8403 9.16895C15.9218 9.20364 15.9954 9.2544 16.0568 9.31824C16.1182 9.38207 16.1661 9.45762 16.1976 9.54041C16.2291 9.62319 16.2435 9.71149 16.2401 9.79999V24.984C16.2403 25.0705 16.2235 25.1563 16.1905 25.2363C16.1576 25.3163 16.1091 25.389 16.048 25.4502C15.9868 25.5114 15.9142 25.56 15.8343 25.5931C15.7543 25.6262 15.6686 25.6431 15.5821 25.643Z" fill="#222C4C"/>
    </svg>
    