<svg width="26" height="26" viewBox="0 0 26 26" fill="none" xmlns="http://www.w3.org/2000/svg">
    <path d="M13.3 0.710022C10.8531 0.710022 8.4611 1.43557 6.42656 2.79498C4.39201 4.15439 2.80629 6.0866 1.86985 8.34723C0.933418 10.6079 0.688336 13.0954 1.16563 15.4953C1.64293 17.8952 2.82116 20.0997 4.55131 21.83C6.28147 23.5603 8.48586 24.7386 10.8857 25.2161C13.2856 25.6936 15.7732 25.4488 18.0339 24.5125C20.2946 23.5763 22.2268 21.9907 23.5864 19.9562C24.946 17.9218 25.6718 15.5299 25.672 13.083C25.6683 9.80279 24.3637 6.658 22.0443 4.33844C19.7249 2.01888 16.5802 0.713992 13.3 0.710022V0.710022ZM19.1 17.271C19.0467 17.3515 18.978 17.4208 18.8979 17.4747C18.8178 17.5287 18.7279 17.5664 18.6332 17.5855C18.5386 17.6046 18.4411 17.6049 18.3463 17.5863C18.2515 17.5677 18.1614 17.5305 18.081 17.477L12.381 13.695C12.28 13.628 12.1973 13.537 12.1401 13.4302C12.0828 13.3234 12.0529 13.2042 12.053 13.083V5.27197C12.053 5.07704 12.1304 4.8901 12.2682 4.75226C12.4061 4.61442 12.5931 4.53699 12.788 4.53699C12.9829 4.53699 13.1699 4.61442 13.3077 4.75226C13.4456 4.8901 13.523 5.07704 13.523 5.27197V12.689L18.891 16.252C18.9715 16.3053 19.0407 16.3739 19.0947 16.454C19.1487 16.534 19.1864 16.624 19.2056 16.7186C19.2248 16.8133 19.2252 16.9107 19.2068 17.0055C19.1883 17.1003 19.1514 17.1905 19.098 17.271H19.1Z" fill="#222C4C"/>
    </svg>
    