<svg width="28" height="25" viewBox="0 0 28 25" fill="none" xmlns="http://www.w3.org/2000/svg">
    <path d="M1.46199 11.628C1.23809 11.628 1.01974 11.5585 0.837109 11.429C0.654476 11.2995 0.516601 11.1164 0.442578 10.9051C0.368555 10.6938 0.362017 10.4647 0.423901 10.2495C0.485785 10.0344 0.613066 9.8437 0.788037 9.70401L9.86397 2.45004C10.0505 2.30132 10.2811 2.21842 10.5196 2.21426C10.7582 2.2101 10.9914 2.2849 11.1831 2.42703L17.269 6.95602L25.676 0.304041C25.7871 0.21457 25.9148 0.14797 26.0517 0.108119C26.1887 0.0682674 26.3322 0.0559599 26.4739 0.0718637C26.6157 0.0877675 26.7528 0.131559 26.8775 0.20077C27.0022 0.269981 27.112 0.363198 27.2005 0.475062C27.289 0.586926 27.3545 0.715207 27.3931 0.852503C27.4318 0.9898 27.4428 1.13339 27.4256 1.27499C27.4085 1.41658 27.3635 1.55342 27.2932 1.67752C27.2229 1.80161 27.1287 1.91052 27.0161 1.99801L17.96 9.16403C17.7737 9.31182 17.5437 9.39393 17.3059 9.39755C17.068 9.40117 16.8357 9.32611 16.645 9.18405L10.562 4.65701L2.13606 11.3921C1.94481 11.5452 1.70697 11.6284 1.46199 11.628Z" fill="#222C4C"/>
    <path d="M3.78724 24.112C3.4056 24.112 3.03953 23.9604 2.76966 23.6906C2.4998 23.4207 2.34816 23.0546 2.34816 22.673V15.806C2.34309 15.6138 2.3766 15.4225 2.44667 15.2434C2.51673 15.0643 2.62194 14.9011 2.75611 14.7633C2.89029 14.6256 3.05075 14.5161 3.22792 14.4413C3.40509 14.3666 3.59543 14.3281 3.78773 14.3281C3.98003 14.3281 4.17037 14.3666 4.34755 14.4413C4.52472 14.5161 4.68505 14.6256 4.81923 14.7633C4.9534 14.9011 5.05861 15.0643 5.12867 15.2434C5.19874 15.4225 5.23225 15.6138 5.22718 15.806V22.673C5.22718 22.862 5.18994 23.0493 5.11757 23.2239C5.04519 23.3986 4.93904 23.5572 4.80531 23.6909C4.67158 23.8245 4.51285 23.9305 4.33815 24.0027C4.16344 24.075 3.9763 24.1121 3.78724 24.112Z" fill="#222C4C"/>
    <path d="M10.5352 24.112C10.3461 24.1121 10.159 24.075 9.98427 24.0027C9.80956 23.9305 9.65071 23.8245 9.51698 23.6909C9.38325 23.5572 9.27723 23.3986 9.20485 23.2239C9.13247 23.0493 9.09523 22.862 9.09523 22.673V10.841C9.09016 10.6488 9.12355 10.4575 9.19362 10.2784C9.26368 10.0993 9.36902 9.93609 9.50319 9.79834C9.63736 9.66059 9.7977 9.55108 9.97487 9.47632C10.152 9.40156 10.3424 9.36304 10.5347 9.36304C10.727 9.36304 10.9173 9.40156 11.0945 9.47632C11.2717 9.55108 11.4321 9.66059 11.5663 9.79834C11.7005 9.93609 11.8057 10.0993 11.8757 10.2784C11.9458 10.4575 11.9792 10.6488 11.9741 10.841V22.673C11.9741 23.0546 11.8226 23.4207 11.5527 23.6906C11.2829 23.9604 10.9168 24.112 10.5352 24.112Z" fill="#222C4C"/>
    <path d="M17.29 24.112C16.9083 24.112 16.5422 23.9604 16.2722 23.6906C16.0022 23.4208 15.8504 23.0547 15.8501 22.673V14.081C15.8501 13.6991 16.0018 13.3328 16.2719 13.0627C16.5419 12.7927 16.9081 12.641 17.29 12.641C17.672 12.641 18.0383 12.7927 18.3083 13.0627C18.5784 13.3328 18.7301 13.6991 18.7301 14.081V22.673C18.7298 23.0547 18.578 23.4208 18.308 23.6906C18.038 23.9604 17.6718 24.112 17.29 24.112Z" fill="#222C4C"/>
    <path d="M24.041 24.112C23.6593 24.112 23.2932 23.9604 23.0232 23.6906C22.7532 23.4208 22.6013 23.0547 22.6011 22.673V10.841C22.6011 10.4591 22.7528 10.0928 23.0228 9.82275C23.2929 9.5527 23.6591 9.401 24.041 9.401C24.4229 9.401 24.7893 9.5527 25.0593 9.82275C25.3294 10.0928 25.4811 10.4591 25.4811 10.841V22.673C25.4808 23.0547 25.329 23.4208 25.059 23.6906C24.7889 23.9604 24.4228 24.112 24.041 24.112Z" fill="#222C4C"/>
    </svg>
    