<svg width="35" height="35" viewBox="0 0 35 35" fill="none" xmlns="http://www.w3.org/2000/svg">
    <path d="M17.5 34.106C26.8971 34.106 34.515 26.4881 34.515 17.091C34.515 7.69386 26.8971 0.0759888 17.5 0.0759888C8.10286 0.0759888 0.484985 7.69386 0.484985 17.091C0.484985 26.4881 8.10286 34.106 17.5 34.106Z" fill="#222C4C"/>
    <path d="M27.531 15.715C27.4295 15.7148 27.33 15.686 27.244 15.632L17.2 9.26098L7.77303 15.624C7.71469 15.6663 7.64844 15.6965 7.57819 15.7126C7.50795 15.7288 7.43517 15.7307 7.36419 15.7181C7.29321 15.7056 7.22547 15.6789 7.16503 15.6396C7.10459 15.6004 7.05269 15.5493 7.0124 15.4896C6.97211 15.4298 6.94425 15.3625 6.9305 15.2917C6.91676 15.221 6.91741 15.1482 6.9324 15.0777C6.94739 15.0072 6.97643 14.9404 7.01777 14.8813C7.05911 14.8223 7.11192 14.7722 7.17304 14.734L16.891 8.17498C16.9778 8.11697 17.0795 8.08533 17.1839 8.08391C17.2882 8.08249 17.3907 8.11135 17.479 8.16698L27.824 14.725C27.9221 14.7874 27.9972 14.8799 28.0382 14.9886C28.0791 15.0974 28.0837 15.2164 28.0513 15.328C28.0188 15.4396 27.9511 15.5376 27.8582 15.6073C27.7653 15.6771 27.6522 15.7149 27.536 15.715H27.531Z" fill="white"/>
    <path d="M24.6921 24.744H10.1781C10.0358 24.7438 9.89952 24.687 9.79903 24.5864C9.69854 24.4857 9.64209 24.3492 9.64209 24.207V13.35C9.64209 13.2077 9.69861 13.0713 9.79922 12.9706C9.89984 12.87 10.0363 12.8135 10.1786 12.8135C10.3209 12.8135 10.4573 12.87 10.558 12.9706C10.6586 13.0713 10.7151 13.2077 10.7151 13.35V23.671H24.1561V13.378C24.1561 13.2357 24.2126 13.0993 24.3132 12.9987C24.4138 12.898 24.5503 12.8415 24.6926 12.8415C24.8349 12.8415 24.9713 12.898 25.072 12.9987C25.1726 13.0993 25.2291 13.2357 25.2291 13.378V24.207C25.2291 24.3494 25.1725 24.486 25.0718 24.5867C24.9711 24.6874 24.8345 24.744 24.6921 24.744Z" fill="white"/>
    <path d="M20.4711 24.583C20.3289 24.583 20.1926 24.5265 20.0921 24.426C19.9915 24.3255 19.9351 24.1892 19.9351 24.047V17.484H14.9351V24.047C14.9351 24.1893 14.8785 24.3258 14.7779 24.4264C14.6773 24.527 14.5408 24.5835 14.3986 24.5835C14.2563 24.5835 14.1198 24.527 14.0192 24.4264C13.9186 24.3258 13.8621 24.1893 13.8621 24.047V16.947C13.8621 16.8049 13.9185 16.6685 14.0191 16.568C14.1196 16.4675 14.2559 16.411 14.3981 16.411H20.4701C20.5405 16.4109 20.6103 16.4247 20.6755 16.4515C20.7406 16.4784 20.7998 16.5178 20.8497 16.5676C20.8996 16.6174 20.9392 16.6765 20.9662 16.7416C20.9932 16.8067 21.0071 16.8765 21.0071 16.947V24.047C21.0071 24.1892 20.9506 24.3255 20.8501 24.426C20.7495 24.5265 20.6132 24.583 20.4711 24.583Z" fill="white"/>
    </svg>
    