<svg width="8" height="15" viewBox="0 0 8 15" fill="none" xmlns="http://www.w3.org/2000/svg">
    <path d="M3.51297 11.7975L0.791966 10.7675C0.721184 10.7406 0.66406 10.6869 0.633122 10.6182C0.602185 10.5494 0.599986 10.4714 0.626988 10.401L4.21497 1.04789C4.25132 0.953564 4.30601 0.867258 4.37595 0.793943C4.44589 0.720628 4.5297 0.661735 4.62256 0.620597C4.71543 0.579459 4.81556 0.556879 4.91721 0.554186C5.01886 0.551494 5.12003 0.568733 5.21497 0.604896L7.02698 1.29122C7.21809 1.36355 7.37247 1.50822 7.45627 1.6935C7.54008 1.87878 7.54645 2.08953 7.47397 2.27947L3.88498 11.6326C3.8718 11.6679 3.85163 11.7003 3.82569 11.7278C3.79974 11.7553 3.76854 11.7774 3.73389 11.7927C3.69924 11.8081 3.66184 11.8164 3.62391 11.8172C3.58597 11.818 3.54826 11.8113 3.51297 11.7975ZM1.26197 10.3384L3.44898 11.1658L6.93598 2.07784C6.94546 2.05339 6.94996 2.02731 6.94925 2.00112C6.94855 1.97494 6.94264 1.94917 6.93186 1.92526C6.92108 1.90135 6.90565 1.87978 6.88645 1.86182C6.86724 1.84386 6.84466 1.82985 6.81998 1.82059L5.00797 1.13527C4.98336 1.12585 4.9571 1.12139 4.93073 1.12209C4.90436 1.12279 4.87842 1.12865 4.85434 1.13936C4.83027 1.15007 4.80855 1.16539 4.79047 1.18447C4.77239 1.20354 4.75828 1.22597 4.74897 1.25048L1.26197 10.3384Z" fill="#C8C9CA"/>
    <path d="M1.02498 14.2259C0.909898 14.183 0.810685 14.1063 0.740493 14.0061C0.670302 13.9059 0.632446 13.7868 0.631973 13.6647L0.607986 10.5093C0.607516 10.4631 0.618404 10.4176 0.639724 10.3766C0.661044 10.3355 0.692142 10.3003 0.7303 10.274C0.768458 10.2476 0.812525 10.2309 0.858657 10.2254C0.90479 10.2198 0.951588 10.2256 0.994979 10.2421L3.71599 11.272C3.7594 11.2884 3.79813 11.315 3.82881 11.3496C3.8595 11.3843 3.8812 11.4258 3.89204 11.4706C3.90289 11.5155 3.90255 11.5622 3.89104 11.6069C3.87952 11.6516 3.85717 11.6928 3.82597 11.727L1.69398 14.067C1.61233 14.1584 1.50436 14.2227 1.38469 14.2511C1.26502 14.2795 1.13944 14.2707 1.02498 14.2259ZM1.18199 10.9195L1.20299 13.6607C1.20299 13.6776 1.25998 13.6995 1.27098 13.6866L3.12297 11.6544L1.18199 10.9195Z" fill="#C8C9CA"/>
    <path d="M6.61096 3.72062L3.88998 2.69066C3.85319 2.679 3.81913 2.66002 3.78995 2.63489C3.76076 2.60976 3.73703 2.579 3.72018 2.54447C3.70333 2.50995 3.69374 2.47241 3.69196 2.43408C3.69017 2.39576 3.69624 2.35746 3.70981 2.32154C3.72338 2.28562 3.74415 2.25282 3.77087 2.22512C3.7976 2.19743 3.82971 2.17543 3.86526 2.16044C3.90082 2.14545 3.9391 2.13777 3.97772 2.13792C4.01635 2.13806 4.05452 2.14603 4.08997 2.16129L6.81097 3.19124C6.84777 3.20291 6.88179 3.22189 6.91098 3.24701C6.94017 3.27214 6.96389 3.30291 6.98074 3.33743C6.99759 3.37195 7.00722 3.4095 7.009 3.44782C7.01079 3.48615 7.00469 3.52442 6.99112 3.56034C6.97755 3.59625 6.95678 3.62906 6.93005 3.65675C6.90333 3.68445 6.87122 3.70648 6.83566 3.72147C6.80011 3.73646 6.76186 3.7441 6.72324 3.74396C6.68461 3.74381 6.6464 3.73587 6.61096 3.72062Z" fill="#C8C9CA"/>
    </svg>
    