<svg width="14" height="15" viewBox="0 0 14 15" fill="none" xmlns="http://www.w3.org/2000/svg">
    <path d="M6.79999 14.07C3.17999 14.07 0.22998 11.12 0.22998 7.5C0.22998 3.88 3.17999 0.940002 6.79999 0.940002C10.42 0.940002 13.36 3.89 13.36 7.5C13.36 11.12 10.42 14.07 6.79999 14.07ZM6.79999 1.64C3.56999 1.64 0.939987 4.27 0.939987 7.5C0.939987 10.73 3.56999 13.36 6.79999 13.36C10.03 13.36 12.66 10.73 12.66 7.5C12.66 4.27 10.03 1.64 6.79999 1.64Z" fill="#222C4C"/>
    <path d="M9.78995 7.85001H3.80995C3.61995 7.85001 3.45996 7.69 3.45996 7.5C3.45996 7.31 3.61995 7.14999 3.80995 7.14999H9.78995C9.97995 7.14999 10.14 7.31 10.14 7.5C10.14 7.7 9.97995 7.85001 9.78995 7.85001Z" fill="#222C4C"/>
    <path d="M6.79996 10.91C6.60996 10.91 6.44995 10.75 6.44995 10.56V4.45C6.44995 4.26 6.60996 4.10001 6.79996 4.10001C6.98996 4.10001 7.14995 4.26 7.14995 4.45V10.56C7.14995 10.75 6.98996 10.91 6.79996 10.91Z" fill="#222C4C"/>
    </svg>
    