<svg width="10" height="19" viewBox="0 0 10 19" fill="none" xmlns="http://www.w3.org/2000/svg">
    <path d="M3.99999 15.46L0.379997 14.08C0.179997 14.01 0.0899954 13.79 0.159995 13.59L4.92998 1.05999C5.12998 0.52999 5.72999 0.269994 6.24999 0.469994L8.66 1.38999C9.18999 1.58999 9.45999 2.18999 9.24999 2.70999L4.48 15.24C4.42 15.44 4.19999 15.54 3.99999 15.46ZM1.01 13.51L3.92001 14.62L8.55999 2.44999C8.60999 2.30999 8.54 2.15999 8.41 2.10999L5.99999 1.19C5.85999 1.14 5.71 1.20999 5.66 1.33999L1.01 13.51Z" fill="#DD6657"/>
    <path d="M0.690002 18.71C0.370002 18.59 0.170013 18.29 0.170013 17.96L0.140015 13.73C0.140015 13.6 0.199988 13.49 0.299988 13.42C0.399988 13.35 0.529994 13.33 0.649994 13.38L4.26999 14.76C4.38999 14.8 4.47 14.9 4.5 15.03C4.53 15.15 4.5 15.28 4.41 15.37L1.57001 18.5C1.36001 18.75 1.01 18.83 0.690002 18.71ZM0.899994 14.28L0.929993 17.95C0.929993 17.97 1.00999 18 1.01999 17.98L3.48001 15.26L0.899994 14.28Z" fill="#DD6657"/>
    <path d="M8.13 4.64999L4.51 3.26999C4.31 3.19999 4.22 2.97999 4.29 2.77999C4.36 2.57999 4.57999 2.48999 4.77999 2.55999L8.39999 3.93999C8.59999 4.00999 8.68999 4.22999 8.61999 4.42999C8.53999 4.61999 8.32 4.71999 8.13 4.64999Z" fill="#DD6657"/>
    </svg>
    