<svg width="15" height="15" viewBox="0 0 15 15" fill="none" xmlns="http://www.w3.org/2000/svg">
    <path
        d="M7.88404 14.9301C11.7876 14.9301 14.952 11.7656 14.952 7.86207C14.952 3.95852 11.7876 0.794067 7.88404 0.794067C3.98049 0.794067 0.81604 3.95852 0.81604 7.86207C0.81604 11.7656 3.98049 14.9301 7.88404 14.9301Z"
        fill="#82BC95" />
    <path
        d="M9.58102 7.10007C9.97768 8.15389 10.6058 9.10527 11.419 9.88406C11.1545 10.0907 10.9234 10.3369 10.734 10.6141C10.0693 9.90241 9.54264 9.0733 9.18103 8.16907V11.5291H8.27304V8.32205C7.87475 9.19246 7.31984 9.98227 6.63602 10.6521C6.44871 10.4088 6.24025 10.1826 6.01303 9.97607V11.5141H5.11304V7.60007C4.91891 7.84502 4.70843 8.07654 4.48303 8.29306C4.3332 7.95813 4.15557 7.63634 3.95203 7.33105C4.81629 6.50708 5.48177 5.49726 5.89804 4.37805L6.80603 4.67105C6.58209 5.23038 6.31739 5.77251 6.01404 6.29306V9.87708C6.85534 9.10953 7.50592 8.15623 7.91403 7.09305H6.32004V6.20007H8.27304V4.46207H9.18103V6.20007H11.188V7.09207L9.58102 7.10007Z"
        fill="white" />
</svg>