<svg width="7" height="10" viewBox="0 0 7 10" fill="none" xmlns="http://www.w3.org/2000/svg">
    <path d="M0.82802 9.99299C0.739474 9.99309 0.653037 9.96604 0.580339 9.91549C0.507641 9.86494 0.452166 9.79332 0.421434 9.71027C0.390702 9.62723 0.386189 9.53677 0.408464 9.45107C0.430738 9.36537 0.478728 9.28856 0.546007 9.231L5.38902 5.087L0.546007 0.945C0.463467 0.868848 0.413669 0.763666 0.40706 0.651558C0.400452 0.53945 0.437554 0.42914 0.510576 0.343819C0.583597 0.258498 0.686847 0.204806 0.798631 0.194023C0.910415 0.18324 1.02202 0.216198 1.11 0.285988L6.33803 4.75799C6.38539 4.79873 6.42337 4.84922 6.44942 4.906C6.47547 4.96278 6.48897 5.02453 6.48897 5.087C6.48897 5.14947 6.47547 5.2112 6.44942 5.26798C6.42337 5.32476 6.38539 5.37525 6.33803 5.41599L1.11 9.889C1.03148 9.9563 0.931438 9.99319 0.82802 9.99299Z" fill="#231815"/>
    </svg>
    