<svg width="19" height="22" viewBox="0 0 19 22" fill="none" xmlns="http://www.w3.org/2000/svg">
    <path
        d="M15.7041 6.74399C17.2908 6.74399 18.5771 5.4577 18.5771 3.87099C18.5771 2.28427 17.2908 0.997986 15.7041 0.997986C14.1173 0.997986 12.8311 2.28427 12.8311 3.87099C12.8311 5.4577 14.1173 6.74399 15.7041 6.74399Z"
        fill="#DD6657" />
    <path
        d="M3.26192 13.96C4.84863 13.96 6.13492 12.6737 6.13492 11.087C6.13492 9.50028 4.84863 8.21399 3.26192 8.21399C1.6752 8.21399 0.388916 9.50028 0.388916 11.087C0.388916 12.6737 1.6752 13.96 3.26192 13.96Z"
        fill="#DD6657" />
    <path
        d="M15.7041 21.185C17.2908 21.185 18.5771 19.8987 18.5771 18.312C18.5771 16.7253 17.2908 15.439 15.7041 15.439C14.1173 15.439 12.8311 16.7253 12.8311 18.312C12.8311 19.8987 14.1173 21.185 15.7041 21.185Z"
        fill="#DD6657" />
    <path d="M15.418 18.805L2.12598 11.087L15.418 3.37799L15.991 4.36499L4.39893 11.088L15.991 17.82L15.418 18.805Z"
        fill="#DD6657" />
</svg>