<svg width="13" height="13" viewBox="0 0 13 13" fill="none" xmlns="http://www.w3.org/2000/svg">
    <path d="M6.54998 12.99C3.13998 12.99 0.359985 10.21 0.359985 6.79999C0.359985 3.38999 3.13998 0.609985 6.54998 0.609985C9.95998 0.609985 12.74 3.38999 12.74 6.79999C12.74 10.21 9.95998 12.99 6.54998 12.99ZM6.54998 1.26999C3.49998 1.26999 1.01999 3.74999 1.01999 6.79999C1.01999 9.84999 3.49998 12.33 6.54998 12.33C9.59998 12.33 12.08 9.84999 12.08 6.79999C12.08 3.74999 9.59998 1.26999 6.54998 1.26999Z" fill="#231815"/>
    <path d="M8.86999 8.82001C8.80999 8.82001 8.73999 8.79999 8.68999 8.76999L6.13999 7.07999C6.04999 7.01999 5.98999 6.92 5.98999 6.81V3.32001C5.98999 3.14001 6.13999 2.98999 6.31999 2.98999C6.49999 2.98999 6.64999 3.14001 6.64999 3.32001V6.64001L9.04999 8.23001C9.19999 8.33001 9.23999 8.53 9.13999 8.69C9.07999 8.77 8.97999 8.82001 8.86999 8.82001Z" fill="#231815"/>
    </svg>
    