<svg width="13" height="13" viewBox="0 0 13 13" fill="none" xmlns="http://www.w3.org/2000/svg">
    <path d="M5.41003 11.72C5.39003 11.72 5.37002 11.72 5.36002 11.72C2.78002 11.24 0.910034 8.98999 0.910034 6.35999C0.910034 3.35999 3.35002 0.910004 6.36002 0.910004C9.06002 0.910004 11.32 2.84001 11.74 5.51001C11.76 5.67001 11.66 5.82 11.5 5.84C11.34 5.86 11.19 5.76001 11.17 5.60001C10.8 3.22001 8.77002 1.5 6.36002 1.5C3.68002 1.5 1.49002 3.68 1.49002 6.37C1.49002 8.72 3.16003 10.73 5.47003 11.15C5.63003 11.18 5.73004 11.33 5.70004 11.49C5.67004 11.62 5.54003 11.72 5.41003 11.72Z" fill="#231815"/>
    <path d="M9.29007 12.54C7.51007 12.54 6.05005 11.09 6.05005 9.29999C6.05005 7.50999 7.50007 6.06 9.29007 6.06C11.0801 6.06 12.5301 7.50999 12.5301 9.29999C12.5301 11.09 11.0801 12.54 9.29007 12.54ZM9.29007 6.64999C7.83007 6.64999 6.64008 7.83999 6.64008 9.29999C6.64008 10.76 7.83007 11.95 9.29007 11.95C10.7501 11.95 11.9401 10.76 11.9401 9.29999C11.9401 7.83999 10.7501 6.64999 9.29007 6.64999Z" fill="#231815"/>
    <path d="M6.35001 6.48999H4.04001C3.88001 6.48999 3.75 6.36001 3.75 6.20001C3.75 6.04001 3.88001 5.91 4.04001 5.91H6.06V3.31C6.06 3.15 6.19001 3.01999 6.35001 3.01999C6.51001 3.01999 6.64001 3.15 6.64001 3.31V6.20001C6.64001 6.36001 6.51001 6.48999 6.35001 6.48999Z" fill="#231815"/>
    <path d="M9.29004 9.89001C9.15004 9.89001 9.04004 9.78001 9.04004 9.64001V7.91C9.04004 7.77 9.15004 7.66 9.29004 7.66C9.43004 7.66 9.54004 7.77 9.54004 7.91V9.64001C9.54004 9.78001 9.43004 9.89001 9.29004 9.89001Z" fill="#231815"/>
    <path d="M9.29004 10.95C9.46677 10.95 9.61002 10.8067 9.61002 10.63C9.61002 10.4533 9.46677 10.31 9.29004 10.31C9.11331 10.31 8.97003 10.4533 8.97003 10.63C8.97003 10.8067 9.11331 10.95 9.29004 10.95Z" fill="#231815"/>
    </svg>
    