<svg width="15" height="12" viewBox="0 0 15 12" fill="none" xmlns="http://www.w3.org/2000/svg">
    <path d="M13.6571 5.06998H1.33698C1.21121 5.06968 1.08793 5.03661 0.978827 4.97404C0.869725 4.91148 0.778697 4.82157 0.714911 4.71317C0.651126 4.60478 0.616776 4.48163 0.615058 4.35587C0.61334 4.23011 0.644345 4.10608 0.705146 3.99599L2.18806 1.31399C2.33063 1.05617 2.53975 0.841249 2.79352 0.691589C3.0473 0.54193 3.33656 0.462991 3.63117 0.462982H11.358C11.652 0.463051 11.9408 0.541706 12.1942 0.690804C12.4475 0.839901 12.6563 1.05402 12.7991 1.31098L14.2891 3.99599C14.3502 4.10604 14.3815 4.23014 14.38 4.35601C14.3784 4.48188 14.3439 4.60517 14.2801 4.71366C14.2163 4.82215 14.1252 4.9121 14.0159 4.97459C13.9067 5.03709 13.7829 5.06997 13.6571 5.06998ZM1.38898 4.31599H13.605L12.1412 1.67699C12.0632 1.53778 11.9494 1.42182 11.8118 1.34099C11.6742 1.26016 11.5176 1.21736 11.358 1.21699H3.63117C3.4715 1.21746 3.31467 1.2604 3.17707 1.34142C3.03947 1.42243 2.9261 1.53859 2.84821 1.67799L1.38898 4.31599Z" fill="#222C4C"/>
    <path d="M7.66992 11.412H3.0791C2.78689 11.4101 2.50709 11.2928 2.30103 11.0856C2.09496 10.8785 1.97926 10.5982 1.979 10.306V4.69299H2.73291V10.306C2.73291 10.3992 2.7699 10.4886 2.83569 10.5545C2.90149 10.6205 2.9908 10.6577 3.08398 10.658H7.67505C7.76823 10.6577 7.85754 10.6205 7.92334 10.5545C7.98914 10.4886 8.02612 10.3992 8.02612 10.306V4.69299H8.78003V10.306C8.7799 10.4515 8.75119 10.5956 8.69531 10.73C8.63943 10.8644 8.55745 10.9864 8.45435 11.0892C8.35125 11.1919 8.22883 11.2733 8.09424 11.3287C7.95965 11.3841 7.81546 11.4124 7.66992 11.412Z" fill="#222C4C"/>
    <path d="M8.39807 7.487H2.35107V8.241H8.39807V7.487Z" fill="#222C4C"/>
    <path d="M12.5461 11.412C12.4462 11.412 12.3502 11.3723 12.2795 11.3016C12.2088 11.2309 12.1689 11.135 12.1689 11.035V4.69298C12.1689 4.59299 12.2088 4.4971 12.2795 4.4264C12.3502 4.3557 12.4462 4.31598 12.5461 4.31598C12.6461 4.31598 12.7418 4.3557 12.8125 4.4264C12.8832 4.4971 12.9231 4.59299 12.9231 4.69298V11.035C12.9231 11.135 12.8832 11.2309 12.8125 11.3016C12.7418 11.3723 12.6461 11.412 12.5461 11.412Z" fill="#222C4C"/>
    </svg>
    