<svg width="15" height="15" viewBox="0 0 15 15" fill="none" xmlns="http://www.w3.org/2000/svg">
    <path d="M7.22 14.03C3.47 14.03 0.429993 10.98 0.429993 7.23999C0.429993 3.48999 3.48 0.450012 7.22 0.450012C10.97 0.450012 14.01 3.49999 14.01 7.23999C14.01 10.98 10.96 14.03 7.22 14.03ZM7.22 1.17001C3.88 1.17001 1.14999 3.88999 1.14999 7.23999C1.14999 10.58 3.87 13.31 7.22 13.31C10.56 13.31 13.29 10.59 13.29 7.23999C13.28 3.88999 10.56 1.17001 7.22 1.17001Z" fill="#82BC95"/>
    <path d="M6.52999 9.97001C6.40999 9.97001 6.29998 9.92 6.20998 9.84L3.85998 7.51999C3.67998 7.34999 3.67998 7.06001 3.85998 6.88001C4.03998 6.70001 4.31999 6.70001 4.49999 6.88001L6.52999 8.88001L9.93999 5.35999C10.11 5.17999 10.4 5.18001 10.58 5.35001C10.76 5.52001 10.76 5.81 10.59 5.99L6.85998 9.84C6.76998 9.92 6.64999 9.97001 6.52999 9.97001Z" fill="#82BC95"/>
    </svg>
    