<svg width="13" height="13" viewBox="0 0 13 13" fill="none" xmlns="http://www.w3.org/2000/svg">
    <path d="M2.34286 10.556C1.47782 9.73723 0.87495 8.68039 0.61056 7.51906C0.346169 6.35773 0.432132 5.14407 0.857508 4.03157C1.28288 2.91907 2.02857 1.95768 3.00033 1.269C3.97209 0.58032 5.12626 0.195279 6.31686 0.162553C7.50746 0.129826 8.68105 0.450904 9.68917 1.08516C10.6973 1.71942 11.4947 2.63836 11.9806 3.72582C12.4664 4.81327 12.6189 6.02037 12.4187 7.19447C12.2185 8.36858 11.6746 9.45694 10.8558 10.3219C9.7571 11.4804 8.24379 12.1556 6.64779 12.1995C5.05179 12.2434 3.50354 11.6523 2.34286 10.556ZM10.1778 2.27696C9.40542 1.54584 8.43352 1.06019 7.3851 0.881455C6.33667 0.702721 5.25882 0.83894 4.28781 1.27284C3.31679 1.70675 2.49628 2.41884 1.93002 3.31911C1.36375 4.21938 1.07716 5.26738 1.10653 6.33052C1.13591 7.39367 1.47994 8.4242 2.09506 9.29183C2.71017 10.1594 3.56873 10.8252 4.56222 11.2048C5.55571 11.5844 6.63952 11.6609 7.67648 11.4245C8.71343 11.1882 9.65693 10.6496 10.3878 9.87697C11.366 8.84045 11.8933 7.45827 11.854 6.03356C11.8146 4.60884 11.2118 3.25788 10.1778 2.27696Z" fill="#888888"/>
    <path d="M8.25293 8.29999L4.26892 4.52899C4.20686 4.47025 4.17068 4.38926 4.16833 4.30383C4.16599 4.21841 4.1976 4.13555 4.25635 4.07349C4.31509 4.01142 4.39614 3.97524 4.48157 3.9729C4.56699 3.97056 4.64985 4.00226 4.71191 4.061L8.6969 7.83099C8.75683 7.89039 8.79114 7.97089 8.79248 8.05527C8.79382 8.13964 8.76211 8.22119 8.7041 8.28247C8.64609 8.34375 8.56638 8.3799 8.48206 8.38318C8.39774 8.38645 8.31552 8.35658 8.25293 8.29999Z" fill="#888888"/>
    <path d="M4.33582 8.45094C4.27367 8.39197 4.23743 8.31079 4.23499 8.22515C4.23256 8.1395 4.26419 8.05636 4.32288 7.99394L8.17286 3.92696C8.20127 3.8936 8.23613 3.86636 8.2754 3.84691C8.31467 3.82746 8.3575 3.81621 8.40125 3.81383C8.44501 3.81145 8.48878 3.81801 8.52992 3.83309C8.57106 3.84817 8.60878 3.87148 8.64063 3.90157C8.67249 3.93166 8.69782 3.96789 8.71522 4.0081C8.73262 4.04832 8.74171 4.09167 8.74183 4.13548C8.74195 4.1793 8.73313 4.22268 8.71595 4.26299C8.69877 4.3033 8.67354 4.33969 8.64185 4.36995L4.79188 8.43794C4.73308 8.50003 4.65202 8.53628 4.56654 8.53871C4.48106 8.54115 4.39807 8.50958 4.33582 8.45094Z" fill="#888888"/>
    </svg>
    