<svg width="13" height="13" viewBox="0 0 13 13" fill="none" xmlns="http://www.w3.org/2000/svg">
    <path d="M6.80283 12.452C5.61519 12.4518 4.45427 12.0995 3.46689 11.4395C2.4795 10.7795 1.71 9.84163 1.25565 8.74434C0.801295 7.64705 0.68252 6.43968 0.914338 5.27489C1.14615 4.1101 1.71816 3.0402 2.55801 2.20049C3.39787 1.36077 4.46789 0.788954 5.63272 0.55733C6.79755 0.325707 8.00487 0.444685 9.10208 0.899219C10.1993 1.35375 11.1371 2.12342 11.7969 3.11092C12.4567 4.09841 12.8089 5.25938 12.8089 6.44701C12.8073 8.03932 12.1739 9.56595 11.0479 10.6918C9.92185 11.8176 8.39514 12.4507 6.80283 12.452ZM6.80283 1.08602C5.74256 1.08621 4.70616 1.40081 3.82468 1.99001C2.9432 2.5792 2.25622 3.41652 1.85062 4.39614C1.44501 5.37575 1.33902 6.45365 1.54599 7.49352C1.75296 8.53338 2.26361 9.48853 3.0134 10.2382C3.76319 10.9878 4.71843 11.4983 5.75833 11.7051C6.79824 11.9119 7.87608 11.8056 8.85562 11.3998C9.83516 10.994 10.6724 10.3069 11.2614 9.42531C11.8505 8.54372 12.1648 7.50727 12.1648 6.44701C12.1632 5.0255 11.5978 3.66268 10.5926 2.65761C9.58731 1.65254 8.22434 1.08734 6.80283 1.08602Z" fill="white"/>
    <path d="M6.19285 8.86807C6.0884 8.86763 5.98828 8.82633 5.91386 8.75304L3.83683 6.70205C3.77318 6.62575 3.74024 6.5285 3.74436 6.42922C3.74849 6.32994 3.78941 6.23576 3.85917 6.165C3.92893 6.09424 4.02253 6.05197 4.12174 6.04644C4.22095 6.04091 4.31866 6.0725 4.39585 6.13506L6.18687 7.90405L9.20384 4.79205C9.27956 4.72759 9.37661 4.69367 9.47599 4.69686C9.57538 4.70005 9.67001 4.74014 9.74143 4.80932C9.81286 4.8785 9.85592 4.9718 9.86228 5.07104C9.86865 5.17027 9.83786 5.26832 9.77586 5.34606L6.47587 8.74606C6.40194 8.82203 6.30086 8.86555 6.19486 8.86706L6.19285 8.86807Z" fill="white"/>
    </svg>
    