<svg width="38" height="25" viewBox="0 0 38 25" fill="none" xmlns="http://www.w3.org/2000/svg">
<path d="M8.44444 8.33333C8.44444 7.18099 9.38785 6.25 10.5556 6.25H27.4444C28.6122 6.25 29.5556 7.18099 29.5556 8.33333V16.6667C29.5556 17.819 28.6122 18.75 27.4444 18.75H10.5556C9.38785 18.75 8.44444 17.819 8.44444 16.6667V8.33333ZM10.5556 16.6667H27.4444V8.33333H10.5556V16.6667ZM38 4.16667V9.375C36.2517 9.375 34.8333 10.7747 34.8333 12.5C34.8333 14.2253 36.2517 15.625 38 15.625V20.8333C38 23.1315 36.1066 25 33.7778 25H4.22222C1.8901 25 0 23.1315 0 20.8333V15.625C1.74892 15.625 3.16667 14.2253 3.16667 12.5C3.16667 10.7747 1.74892 9.375 0 9.375V4.16667C0 1.86523 1.8901 0 4.22222 0H33.7778C36.1066 0 38 1.86523 38 4.16667ZM2.11111 7.72786C3.97483 8.52865 5.27778 10.3646 5.27778 12.5C5.27778 14.6354 3.97483 16.4128 2.11111 17.2721V20.8333C2.11111 21.9857 3.05649 22.9167 4.22222 22.9167H33.7778C34.9455 22.9167 35.8889 21.9857 35.8889 20.8333V17.2721C34.0219 16.4128 32.7222 14.6354 32.7222 12.5C32.7222 10.3646 34.0219 8.52865 35.8889 7.72786V4.16667C35.8889 3.01432 34.9455 2.08333 33.7778 2.08333H4.22222C3.05649 2.08333 2.11111 3.01432 2.11111 4.16667V7.72786Z" fill="url(#paint0_linear_934_17595)"/>
<defs>
<linearGradient id="paint0_linear_934_17595" x1="19" y1="0" x2="19" y2="25" gradientUnits="userSpaceOnUse">
<stop stop-color="#1A91FF"/>
<stop offset="1" stop-color="#232D4E"/>
</linearGradient>
</defs>
</svg>
