<svg width="15" height="15" viewBox="0 0 15 15" fill="none" xmlns="http://www.w3.org/2000/svg">
<path d="M7.14258 9.95508C6.82324 10.2744 6.30176 10.2744 5.98242 9.95508L4.10742 8.08008C3.78809 7.76074 3.78809 7.23926 4.10742 6.91992C4.42676 6.60059 4.94824 6.60059 5.26758 6.91992L6.5625 8.21484L9.73242 5.04492C10.0518 4.72559 10.5732 4.72559 10.8926 5.04492C11.2119 5.36426 11.2119 5.88574 10.8926 6.20508L7.14258 9.95508ZM15 7.5C15 11.6426 11.6426 15 7.5 15C3.35742 15 0 11.6426 0 7.5C0 3.35742 3.35742 0 7.5 0C11.6426 0 15 3.35742 15 7.5ZM7.5 1.40625C4.13379 1.40625 1.40625 4.13379 1.40625 7.5C1.40625 10.8662 4.13379 13.5938 7.5 13.5938C10.8662 13.5938 13.5938 10.8662 13.5938 7.5C13.5938 4.13379 10.8662 1.40625 7.5 1.40625Z" fill="#4ADE80"/>
</svg>
