<?xml version="1.0" encoding="utf-8"?>
<!-- Generator: Adobe Illustrator 25.1.0, SVG Export Plug-In . SVG Version: 6.00 Build 0)  -->
<svg version="1.1" id="圖層_1" xmlns="http://www.w3.org/2000/svg" xmlns:xlink="http://www.w3.org/1999/xlink" x="0px" y="0px"
	 viewBox="0 0 375 812" style="enable-background:new 0 0 375 812;" xml:space="preserve">
<style type="text/css">
	.st0{clip-path:url(#SVGID_2_);}
	.st1{fill:#FFFFFF;}
	.st2{fill:url(#SVGID_3_);filter:url(#Adobe_OpacityMaskFilter);}
	.st3{mask:url(#mask0_367_7864_1_);}
	.st4{fill:url(#SVGID_4_);}
	.st5{fill:url(#SVGID_5_);filter:url(#Adobe_OpacityMaskFilter_1_);}
	.st6{mask:url(#mask1_367_7864_1_);}
	.st7{fill:url(#SVGID_6_);}
	.st8{fill:url(#SVGID_7_);filter:url(#Adobe_OpacityMaskFilter_2_);}
	.st9{mask:url(#mask2_367_7864_1_);}
	.st10{fill:url(#SVGID_8_);}
	.st11{fill:url(#SVGID_9_);filter:url(#Adobe_OpacityMaskFilter_3_);}
	.st12{mask:url(#mask3_367_7864_1_);}
	.st13{fill:url(#SVGID_10_);}
	.st14{fill:url(#SVGID_11_);filter:url(#Adobe_OpacityMaskFilter_4_);}
	.st15{mask:url(#mask4_367_7864_1_);}
	.st16{fill:url(#SVGID_12_);}
	.st17{fill:url(#SVGID_13_);filter:url(#Adobe_OpacityMaskFilter_5_);}
	.st18{mask:url(#mask5_367_7864_1_);}
	.st19{fill:url(#SVGID_14_);}
	.st20{fill:url(#SVGID_15_);filter:url(#Adobe_OpacityMaskFilter_6_);}
	.st21{mask:url(#mask6_367_7864_1_);}
	.st22{fill:url(#SVGID_16_);}
	.st23{fill:url(#SVGID_17_);filter:url(#Adobe_OpacityMaskFilter_7_);}
	.st24{mask:url(#mask7_367_7864_1_);}
	.st25{fill:url(#SVGID_18_);}
	.st26{fill:url(#SVGID_19_);filter:url(#Adobe_OpacityMaskFilter_8_);}
	.st27{mask:url(#mask8_367_7864_1_);}
	.st28{fill:url(#SVGID_20_);}
	.st29{fill:url(#SVGID_21_);filter:url(#Adobe_OpacityMaskFilter_9_);}
	.st30{mask:url(#mask9_367_7864_1_);}
	.st31{fill:url(#SVGID_22_);}
	.st32{fill:url(#SVGID_23_);filter:url(#Adobe_OpacityMaskFilter_10_);}
	.st33{mask:url(#mask10_367_7864_1_);}
	.st34{fill:url(#SVGID_24_);}
	.st35{fill:url(#SVGID_25_);filter:url(#Adobe_OpacityMaskFilter_11_);}
	.st36{mask:url(#mask11_367_7864_1_);}
	.st37{fill:url(#SVGID_26_);}
	.st38{fill:url(#SVGID_27_);filter:url(#Adobe_OpacityMaskFilter_12_);}
	.st39{mask:url(#mask12_367_7864_1_);}
	.st40{fill:url(#SVGID_28_);}
	.st41{fill:url(#SVGID_29_);filter:url(#Adobe_OpacityMaskFilter_13_);}
	.st42{mask:url(#mask13_367_7864_1_);}
	.st43{fill:url(#SVGID_30_);}
	.st44{fill:url(#SVGID_31_);filter:url(#Adobe_OpacityMaskFilter_14_);}
	.st45{mask:url(#mask14_367_7864_1_);}
	.st46{fill:url(#SVGID_32_);}
	.st47{fill:url(#SVGID_33_);filter:url(#Adobe_OpacityMaskFilter_15_);}
	.st48{mask:url(#mask15_367_7864_1_);}
	.st49{fill:url(#SVGID_34_);}
	.st50{fill:url(#SVGID_35_);filter:url(#Adobe_OpacityMaskFilter_16_);}
	.st51{mask:url(#mask16_367_7864_1_);}
	.st52{fill:url(#SVGID_36_);}
	.st53{fill:url(#SVGID_37_);filter:url(#Adobe_OpacityMaskFilter_17_);}
	.st54{mask:url(#mask17_367_7864_1_);}
	.st55{fill:url(#SVGID_38_);}
	.st56{fill:url(#SVGID_39_);filter:url(#Adobe_OpacityMaskFilter_18_);}
	.st57{mask:url(#mask18_367_7864_1_);}
	.st58{fill:url(#SVGID_40_);}
	.st59{fill:url(#SVGID_41_);filter:url(#Adobe_OpacityMaskFilter_19_);}
	.st60{mask:url(#mask19_367_7864_1_);}
	.st61{fill:url(#SVGID_42_);}
	.st62{fill:url(#SVGID_43_);filter:url(#Adobe_OpacityMaskFilter_20_);}
	.st63{mask:url(#mask20_367_7864_1_);}
	.st64{fill:url(#SVGID_44_);}
	.st65{fill:url(#SVGID_45_);filter:url(#Adobe_OpacityMaskFilter_21_);}
	.st66{mask:url(#mask21_367_7864_1_);}
	.st67{fill:url(#SVGID_46_);}
	.st68{fill:url(#SVGID_47_);filter:url(#Adobe_OpacityMaskFilter_22_);}
	.st69{mask:url(#mask22_367_7864_1_);}
	.st70{fill:url(#SVGID_48_);}
	.st71{fill:url(#SVGID_49_);filter:url(#Adobe_OpacityMaskFilter_23_);}
	.st72{mask:url(#mask23_367_7864_1_);}
	.st73{fill:url(#SVGID_50_);}
</style>
<g>
	<defs>
		<rect id="SVGID_1_" y="0" width="375" height="812"/>
	</defs>
	<clipPath id="SVGID_2_">
		<use xlink:href="#SVGID_1_"  style="overflow:visible;"/>
	</clipPath>
	<g class="st0">
		<rect y="0" class="st1" width="375" height="812"/>
		<defs>
			<filter id="Adobe_OpacityMaskFilter" filterUnits="userSpaceOnUse" x="153" y="50" width="213.9" height="98.6">
				<feColorMatrix  type="matrix" values="1 0 0 0 0  0 1 0 0 0  0 0 1 0 0  0 0 0 1 0"/>
			</filter>
		</defs>
		<mask maskUnits="userSpaceOnUse" x="153" y="50" width="213.9" height="98.6" id="mask0_367_7864_1_">
			
				<linearGradient id="SVGID_3_" gradientUnits="userSpaceOnUse" x1="248.2684" y1="758.9379" x2="276.7654" y2="646.7991" gradientTransform="matrix(1 0 0 -1 0 811.8898)">
				<stop  offset="0" style="stop-color:#FFFFFF"/>
				<stop  offset="4.360000e-02" style="stop-color:#B4B4B4"/>
				<stop  offset="0.1507" style="stop-color:#000000"/>
				<stop  offset="0.1714" style="stop-color:#171717"/>
				<stop  offset="0.3859" style="stop-color:#FFFFFF"/>
				<stop  offset="0.6326" style="stop-color:#E6E6E6"/>
				<stop  offset="0.8567" style="stop-color:#1A1A1A"/>
				<stop  offset="0.9987" style="stop-color:#000000"/>
			</linearGradient>
			<path class="st2" d="M160.3,103.7c-4.3-1.9-6.7-4.2-7.2-6.7c-0.6-3.3,2-7,7.6-11.1c6.2-4.4,16.2-9.4,29.7-14.8
				c18-7.2,34.9-12.6,50.2-16.1c13.3-3,25.9-4.7,37.5-4.9c20.1-0.4,34.3,3.4,46.6,7.6c13.2,4.5,23.5,10.9,30.6,19
				c6.2,7,10,15.2,11.1,24.4c2.4,19-7.1,37.6-17.7,44.7c-5,3.3-9.9,3.8-13.9,1.5c-16.9-9.9-32.4-17.4-47.4-23.1
				c-20.7-7.8-40.3-11.9-58.1-12.1c-12.8-0.2-31.3-0.8-47.1-3C172.5,107.6,165.2,105.8,160.3,103.7z M324.6,58l-0.1,0.4
				c-12.2-4.2-26.3-8-46.3-7.5c-11.5,0.2-24,1.9-37.3,4.9c-15.3,3.5-32.2,8.9-50.1,16c-13.5,5.4-23.5,10.4-29.6,14.8
				c-5.4,3.9-7.9,7.3-7.3,10.3c0.9,5,10.8,8.9,28.5,11.4c15.7,2.2,34.2,2.8,47,3c18,0.2,37.6,4.3,58.4,12.2
				c15.1,5.7,30.6,13.3,47.5,23.2c3.7,2.2,8.4,1.6,13.1-1.5c10.4-6.9,19.8-25.2,17.4-43.9c-1.1-9-4.8-17-11-24
				c-7.1-8-17.3-14.3-30.3-18.8L324.6,58z"/>
		</mask>
		<g class="st3">
			
				<linearGradient id="SVGID_4_" gradientUnits="userSpaceOnUse" x1="415.2649" y1="672.2345" x2="130.0359" y2="769.5363" gradientTransform="matrix(1 0 0 -1 0 811.8898)">
				<stop  offset="0" style="stop-color:#FFFFFF"/>
				<stop  offset="0.1507" style="stop-color:#A6BBDF"/>
				<stop  offset="0.5698" style="stop-color:#7C92C9"/>
				<stop  offset="0.7634" style="stop-color:#D3DDEE"/>
				<stop  offset="1" style="stop-color:#FFFFFF"/>
			</linearGradient>
			<path class="st4" d="M160.3,103.7c-4.3-1.9-6.7-4.2-7.2-6.7c-0.6-3.3,2-7,7.6-11.1c6.2-4.4,16.2-9.4,29.7-14.8
				c18-7.2,34.9-12.6,50.2-16.1c13.3-3,25.9-4.7,37.5-4.9c20.1-0.4,34.3,3.4,46.6,7.6c13.2,4.5,23.5,10.9,30.6,19
				c6.2,7,10,15.2,11.1,24.4c2.4,19-7.1,37.6-17.7,44.7c-5,3.3-9.9,3.8-13.9,1.5c-16.9-9.9-32.4-17.4-47.4-23.1
				c-20.7-7.8-40.3-11.9-58.1-12.1c-12.8-0.2-31.3-0.8-47.1-3C172.5,107.6,165.2,105.8,160.3,103.7z M324.6,58l-0.1,0.4
				c-12.2-4.2-26.3-8-46.3-7.5c-11.5,0.2-24,1.9-37.3,4.9c-15.3,3.5-32.2,8.9-50.1,16c-13.5,5.4-23.5,10.4-29.6,14.8
				c-5.4,3.9-7.9,7.3-7.3,10.3c0.9,5,10.8,8.9,28.5,11.4c15.7,2.2,34.2,2.8,47,3c18,0.2,37.6,4.3,58.4,12.2
				c15.1,5.7,30.6,13.3,47.5,23.2c3.7,2.2,8.4,1.6,13.1-1.5c10.4-6.9,19.8-25.2,17.4-43.9c-1.1-9-4.8-17-11-24
				c-7.1-8-17.3-14.3-30.3-18.8L324.6,58z"/>
		</g>
		<defs>
			<filter id="Adobe_OpacityMaskFilter_1_" filterUnits="userSpaceOnUse" x="162.2" y="52.8" width="198.3" height="90.6">
				<feColorMatrix  type="matrix" values="1 0 0 0 0  0 1 0 0 0  0 0 1 0 0  0 0 0 1 0"/>
			</filter>
		</defs>
		<mask maskUnits="userSpaceOnUse" x="162.2" y="52.8" width="198.3" height="90.6" id="mask1_367_7864_1_">
			
				<linearGradient id="SVGID_5_" gradientUnits="userSpaceOnUse" x1="250.61" y1="757.0374" x2="276.9362" y2="653.4408" gradientTransform="matrix(1 0 0 -1 0 811.8898)">
				<stop  offset="0" style="stop-color:#FFFFFF"/>
				<stop  offset="4.360000e-02" style="stop-color:#B4B4B4"/>
				<stop  offset="0.1507" style="stop-color:#000000"/>
				<stop  offset="0.1714" style="stop-color:#171717"/>
				<stop  offset="0.3859" style="stop-color:#FFFFFF"/>
				<stop  offset="0.6326" style="stop-color:#E6E6E6"/>
				<stop  offset="0.8567" style="stop-color:#1A1A1A"/>
				<stop  offset="0.9987" style="stop-color:#000000"/>
			</linearGradient>
			<path class="st5" d="M168.9,100.9c-4-1.8-6.2-3.8-6.6-6.2c-1.1-6.3,10.2-14.1,34.5-23.8c31.7-12.2,59.7-18.3,83.2-18.2
				c19,0.1,32,4,43.1,8.3c11.7,4.1,20.8,9.8,27.1,17c5.5,6.3,8.9,13.5,9.9,21.6c0.7,5.6,0.6,14.2-3.7,24.1c-3.1,7-7.8,13-12.9,16.4
				c-5.1,3.5-10.2,4.1-14.4,1.8c-31.1-17-64.7-32.8-98.8-33.4c-11.6-0.2-28.3-0.9-42.1-2.9C179.7,104.5,173.2,102.9,168.9,100.9z
				 M329.6,64.5c-2.1-1-4.4-1.8-6.7-2.7c-11.1-4.2-24-8.2-42.9-8.3c-23.4-0.1-51.3,6-82.9,18.1c-12.5,5-21.7,9.5-27.3,13.5
				c-5,3.6-7.3,6.7-6.8,9.4c0.8,4.6,9.4,8,25.4,10.4c13.8,2,30.5,2.7,42,2.9c34.2,0.7,67.9,16.5,99.1,33.5c3.9,2.2,8.7,1.6,13.6-1.7
				c5-3.4,9.6-9.2,12.6-16.1c2.4-5.4,4.9-13.8,3.7-23.7c-1-7.9-4.3-15-9.7-21.2C344.8,73,338,68.2,329.6,64.5z"/>
		</mask>
		<g class="st6">
			
				<linearGradient id="SVGID_6_" gradientUnits="userSpaceOnUse" x1="415.5319" y1="673.0133" x2="130.3019" y2="770.316" gradientTransform="matrix(1 0 0 -1 0 811.8898)">
				<stop  offset="0" style="stop-color:#FFFFFF"/>
				<stop  offset="0.1507" style="stop-color:#A6BBDF"/>
				<stop  offset="0.4152" style="stop-color:#7C92C9"/>
				<stop  offset="0.7246" style="stop-color:#D3DDEE"/>
				<stop  offset="1" style="stop-color:#FFFFFF"/>
			</linearGradient>
			<path class="st7" d="M168.9,100.9c-4-1.8-6.2-3.8-6.6-6.2c-1.1-6.3,10.2-14.1,34.5-23.8c31.7-12.2,59.7-18.3,83.2-18.2
				c19,0.1,32,4,43.1,8.3c11.7,4.1,20.8,9.8,27.1,17c5.5,6.3,8.9,13.5,9.9,21.6c0.7,5.6,0.6,14.2-3.7,24.1c-3.1,7-7.8,13-12.9,16.4
				c-5.1,3.5-10.2,4.1-14.4,1.8c-31.1-17-64.7-32.8-98.8-33.4c-11.6-0.2-28.3-0.9-42.1-2.9C179.7,104.5,173.2,102.9,168.9,100.9z
				 M329.6,64.5c-2.1-1-4.4-1.8-6.7-2.7c-11.1-4.2-24-8.2-42.9-8.3c-23.4-0.1-51.3,6-82.9,18.1c-12.5,5-21.7,9.5-27.3,13.5
				c-5,3.6-7.3,6.7-6.8,9.4c0.8,4.6,9.4,8,25.4,10.4c13.8,2,30.5,2.7,42,2.9c34.2,0.7,67.9,16.5,99.1,33.5c3.9,2.2,8.7,1.6,13.6-1.7
				c5-3.4,9.6-9.2,12.6-16.1c2.4-5.4,4.9-13.8,3.7-23.7c-1-7.9-4.3-15-9.7-21.2C344.8,73,338,68.2,329.6,64.5z"/>
		</g>
		<defs>
			<filter id="Adobe_OpacityMaskFilter_2_" filterUnits="userSpaceOnUse" x="171.4" y="55.5" width="182.8" height="82.7">
				<feColorMatrix  type="matrix" values="1 0 0 0 0  0 1 0 0 0  0 0 1 0 0  0 0 0 1 0"/>
			</filter>
		</defs>
		<mask maskUnits="userSpaceOnUse" x="171.4" y="55.5" width="182.8" height="82.7" id="mask2_367_7864_1_">
			
				<linearGradient id="SVGID_7_" gradientUnits="userSpaceOnUse" x1="252.9319" y1="755.2774" x2="277.1255" y2="660.0751" gradientTransform="matrix(1 0 0 -1 0 811.8898)">
				<stop  offset="0" style="stop-color:#FFFFFF"/>
				<stop  offset="4.360000e-02" style="stop-color:#B4B4B4"/>
				<stop  offset="0.1507" style="stop-color:#000000"/>
				<stop  offset="0.1714" style="stop-color:#171717"/>
				<stop  offset="0.3859" style="stop-color:#FFFFFF"/>
				<stop  offset="0.6326" style="stop-color:#E6E6E6"/>
				<stop  offset="0.8567" style="stop-color:#1A1A1A"/>
				<stop  offset="0.9987" style="stop-color:#000000"/>
			</linearGradient>
			<path class="st8" d="M177.5,98.2c-3.6-1.6-5.6-3.5-6-5.6c-1-5.7,9.4-12.8,31.7-21.6c30-10.9,56.5-16.1,78.7-15.3
				c18.1,0.6,30.2,4.9,39.7,9c10.2,3.7,18.1,8.8,23.7,15.1c4.9,5.5,7.8,11.9,8.7,18.9c0.9,7-0.3,14.4-3.5,21.3
				c-2.9,6.3-7.1,11.6-11.9,14.9c-5.3,3.6-10.6,4.4-15,2.1l-2.4-1.2c-13.1-6.6-27.9-14.1-43-19.9c-17.3-6.6-32.6-10-46.5-10.4
				c-15.1-0.4-27.6-1.4-37.2-2.8C186.9,101.3,181.3,99.9,177.5,98.2z M326.6,67.4c-1.7-0.8-3.4-1.5-5.2-2.1
				c-9.5-4.1-21.5-8.4-39.5-9c-22.2-0.8-48.5,4.4-78.4,15.3c-21.7,8.6-32.2,15.6-31.3,20.9c0.7,4.1,8.2,7.2,22.3,9.3
				c9.6,1.4,22,2.4,37.1,2.8c14.1,0.4,29.4,3.8,46.8,10.5c15.2,5.8,30,13.3,43.1,20l2.4,1.2c4.1,2.2,9.2,1.5,14.3-2
				c4.6-3.2,8.9-8.5,11.7-14.7c3.1-6.8,4.3-14,3.4-20.9c-0.9-6.9-3.7-13.1-8.5-18.5C340.3,75.1,334.2,70.8,326.6,67.4z"/>
		</mask>
		<g class="st9">
			
				<linearGradient id="SVGID_8_" gradientUnits="userSpaceOnUse" x1="415.83" y1="673.8887" x2="130.601" y2="771.1907" gradientTransform="matrix(1 0 0 -1 0 811.8898)">
				<stop  offset="0" style="stop-color:#FFFFFF"/>
				<stop  offset="0.1507" style="stop-color:#A6BBDF"/>
				<stop  offset="0.4152" style="stop-color:#7C92C9"/>
				<stop  offset="0.7246" style="stop-color:#D3DDEE"/>
				<stop  offset="1" style="stop-color:#FFFFFF"/>
			</linearGradient>
			<path class="st10" d="M177.5,98.2c-3.6-1.6-5.6-3.5-6-5.6c-1-5.7,9.4-12.8,31.7-21.6c30-10.9,56.5-16.1,78.7-15.3
				c18.1,0.6,30.2,4.9,39.7,9c10.2,3.7,18.1,8.8,23.7,15.1c4.9,5.5,7.8,11.9,8.7,18.9c0.9,7-0.3,14.4-3.5,21.3
				c-2.9,6.3-7.1,11.6-11.9,14.9c-5.3,3.6-10.6,4.4-15,2.1l-2.4-1.2c-13.1-6.6-27.9-14.1-43-19.9c-17.3-6.6-32.6-10-46.5-10.4
				c-15.1-0.4-27.6-1.4-37.2-2.8C186.9,101.3,181.3,99.9,177.5,98.2z M326.6,67.4c-1.7-0.8-3.4-1.5-5.2-2.1
				c-9.5-4.1-21.5-8.4-39.5-9c-22.2-0.8-48.5,4.4-78.4,15.3c-21.7,8.6-32.2,15.6-31.3,20.9c0.7,4.1,8.2,7.2,22.3,9.3
				c9.6,1.4,22,2.4,37.1,2.8c14.1,0.4,29.4,3.8,46.8,10.5c15.2,5.8,30,13.3,43.1,20l2.4,1.2c4.1,2.2,9.2,1.5,14.3-2
				c4.6-3.2,8.9-8.5,11.7-14.7c3.1-6.8,4.3-14,3.4-20.9c-0.9-6.9-3.7-13.1-8.5-18.5C340.3,75.1,334.2,70.8,326.6,67.4z"/>
		</g>
		<defs>
			<filter id="Adobe_OpacityMaskFilter_3_" filterUnits="userSpaceOnUse" x="180.6" y="58.1" width="167.4" height="74.9">
				<feColorMatrix  type="matrix" values="1 0 0 0 0  0 1 0 0 0  0 0 1 0 0  0 0 0 1 0"/>
			</filter>
		</defs>
		<mask maskUnits="userSpaceOnUse" x="180.6" y="58.1" width="167.4" height="74.9" id="mask3_367_7864_1_">
			
				<linearGradient id="SVGID_9_" gradientUnits="userSpaceOnUse" x1="255.2247" y1="753.631" x2="277.3135" y2="666.7109" gradientTransform="matrix(1 0 0 -1 0 811.8898)">
				<stop  offset="0" style="stop-color:#FFFFFF"/>
				<stop  offset="4.360000e-02" style="stop-color:#B4B4B4"/>
				<stop  offset="0.1507" style="stop-color:#000000"/>
				<stop  offset="0.1714" style="stop-color:#171717"/>
				<stop  offset="0.3859" style="stop-color:#FFFFFF"/>
				<stop  offset="0.6326" style="stop-color:#E6E6E6"/>
				<stop  offset="0.8567" style="stop-color:#1A1A1A"/>
				<stop  offset="0.9987" style="stop-color:#000000"/>
			</linearGradient>
			<path class="st11" d="M186,95.5c-3.3-1.5-5.1-3.2-5.4-5.1c-0.9-5.2,8.6-11.6,28.9-19.5c28.2-9.7,53.2-13.9,74.2-12.5
				c17.3,1.2,28.5,5.8,36.3,9.8c20.9,7.9,26.6,20.3,27.7,29.3c0.8,6.1-0.3,12.5-3.2,18.5c-2.6,5.5-6.5,10.2-10.9,13.4
				c-5.5,3.8-11.2,4.7-15.7,2.4c-3.4-1.6-6.8-3.2-10.2-4.9c-24.6-11.8-50.1-23.9-75.1-24.9C209,101,193.6,98.9,186,95.5z
				 M315.3,66.6c-7.4-3.3-17.4-6.6-31.6-7.6c-20.9-1.4-45.8,2.8-74,12.4c-19.7,7.7-29.3,14.1-28.5,18.8c0.6,3.6,7.1,6.3,19.2,8.3
				c8.1,1.3,18.7,2.2,32.2,2.7c25.1,1,50.6,13.2,75.3,25c3.4,1.6,6.8,3.3,10.2,4.9c4.4,2.2,9.8,1.4,15.1-2.3
				c4.3-3.1,8.1-7.7,10.7-13.1c2.8-5.9,3.9-12.2,3.1-18.2c-1.1-8.8-6.7-21-27.3-28.8l0,0l0,0C318.4,68.1,316.9,67.4,315.3,66.6z"/>
		</mask>
		<g class="st12">
			
				<linearGradient id="SVGID_10_" gradientUnits="userSpaceOnUse" x1="416.1506" y1="674.8286" x2="130.9216" y2="772.1313" gradientTransform="matrix(1 0 0 -1 0 811.8898)">
				<stop  offset="0" style="stop-color:#FFFFFF"/>
				<stop  offset="0.1507" style="stop-color:#A6BBDF"/>
				<stop  offset="0.4152" style="stop-color:#7C92C9"/>
				<stop  offset="0.7246" style="stop-color:#D3DDEE"/>
				<stop  offset="1" style="stop-color:#FFFFFF"/>
			</linearGradient>
			<path class="st13" d="M186,95.5c-3.3-1.5-5.1-3.2-5.4-5.1c-0.9-5.2,8.6-11.6,28.9-19.5c28.2-9.7,53.2-13.9,74.2-12.5
				c17.3,1.2,28.5,5.8,36.3,9.8c20.9,7.9,26.6,20.3,27.7,29.3c0.8,6.1-0.3,12.5-3.2,18.5c-2.6,5.5-6.5,10.2-10.9,13.4
				c-5.5,3.8-11.2,4.7-15.7,2.4c-3.4-1.6-6.8-3.2-10.2-4.9c-24.6-11.8-50.1-23.9-75.1-24.9C209,101,193.6,98.9,186,95.5z
				 M315.3,66.6c-7.4-3.3-17.4-6.6-31.6-7.6c-20.9-1.4-45.8,2.8-74,12.4c-19.7,7.7-29.3,14.1-28.5,18.8c0.6,3.6,7.1,6.3,19.2,8.3
				c8.1,1.3,18.7,2.2,32.2,2.7c25.1,1,50.6,13.2,75.3,25c3.4,1.6,6.8,3.3,10.2,4.9c4.4,2.2,9.8,1.4,15.1-2.3
				c4.3-3.1,8.1-7.7,10.7-13.1c2.8-5.9,3.9-12.2,3.1-18.2c-1.1-8.8-6.7-21-27.3-28.8l0,0l0,0C318.4,68.1,316.9,67.4,315.3,66.6z"/>
		</g>
		<defs>
			<filter id="Adobe_OpacityMaskFilter_4_" filterUnits="userSpaceOnUse" x="189.7" y="60.6" width="152" height="67.3">
				<feColorMatrix  type="matrix" values="1 0 0 0 0  0 1 0 0 0  0 0 1 0 0  0 0 0 1 0"/>
			</filter>
		</defs>
		<mask maskUnits="userSpaceOnUse" x="189.7" y="60.6" width="152" height="67.3" id="mask4_367_7864_1_">
			
				<linearGradient id="SVGID_11_" gradientUnits="userSpaceOnUse" x1="257.4903" y1="752.1264" x2="277.5221" y2="673.3032" gradientTransform="matrix(1 0 0 -1 0 811.8898)">
				<stop  offset="0" style="stop-color:#FFFFFF"/>
				<stop  offset="4.360000e-02" style="stop-color:#B4B4B4"/>
				<stop  offset="0.1507" style="stop-color:#000000"/>
				<stop  offset="0.1714" style="stop-color:#171717"/>
				<stop  offset="0.3859" style="stop-color:#FFFFFF"/>
				<stop  offset="0.6326" style="stop-color:#E6E6E6"/>
				<stop  offset="0.8567" style="stop-color:#1A1A1A"/>
				<stop  offset="0.9987" style="stop-color:#000000"/>
			</linearGradient>
			<path class="st14" d="M194.6,92.8c-2.8-1.2-4.6-2.8-4.9-4.6c-0.7-4.6,7.8-10.3,26.1-17.4c26.5-8.5,50-11.7,69.7-9.6
				c12.6,1.4,23.4,4.8,32.9,10.5c17.5,7,22.2,17.4,23.1,24.9c0.6,5.1-0.4,10.5-2.9,15.6c-2.3,4.7-5.8,8.8-9.8,11.7
				c-5.6,4-11.5,5-16.4,2.9c-0.1-0.1-0.2-0.1-0.3-0.2c-5.9-2.5-11.6-5.2-17.2-7.8c-21.5-9.8-41.8-19.1-61.3-20.2
				C219,97.8,202.6,96.4,194.6,92.8z M310.6,68.3c-7.5-3.4-15.8-5.5-25.1-6.5c-19.6-2.1-43,1.1-69.5,9.6
				c-17.7,6.9-26.4,12.5-25.7,16.8c1.2,7.6,31.9,9.3,43.4,9.9c19.6,1.1,39.9,10.4,61.5,20.3c5.6,2.6,11.4,5.2,17.2,7.8
				c4.7,2.3,10.6,1.3,16.1-2.7c3.9-2.8,7.3-6.9,9.6-11.5c2.5-5,3.4-10.3,2.8-15.3c-0.9-7.3-5.5-17.5-22.8-24.4l0,0l0,0
				C315.8,70.8,313.2,69.4,310.6,68.3z"/>
		</mask>
		<g class="st15">
			
				<linearGradient id="SVGID_12_" gradientUnits="userSpaceOnUse" x1="416.4969" y1="675.8446" x2="131.2679" y2="773.1465" gradientTransform="matrix(1 0 0 -1 0 811.8898)">
				<stop  offset="0" style="stop-color:#FFFFFF"/>
				<stop  offset="0.1507" style="stop-color:#A6BBDF"/>
				<stop  offset="0.4152" style="stop-color:#7C92C9"/>
				<stop  offset="0.7246" style="stop-color:#D3DDEE"/>
				<stop  offset="1" style="stop-color:#FFFFFF"/>
			</linearGradient>
			<path class="st16" d="M194.6,92.8c-2.8-1.2-4.6-2.8-4.9-4.6c-0.7-4.6,7.8-10.3,26.1-17.4c26.5-8.5,50-11.7,69.7-9.6
				c12.6,1.4,23.4,4.8,32.9,10.5c17.5,7,22.2,17.4,23.1,24.9c0.6,5.1-0.4,10.5-2.9,15.6c-2.3,4.7-5.8,8.8-9.8,11.7
				c-5.6,4-11.5,5-16.4,2.9c-0.1-0.1-0.2-0.1-0.3-0.2c-5.9-2.5-11.6-5.2-17.2-7.8c-21.5-9.8-41.8-19.1-61.3-20.2
				C219,97.8,202.6,96.4,194.6,92.8z M310.6,68.3c-7.5-3.4-15.8-5.5-25.1-6.5c-19.6-2.1-43,1.1-69.5,9.6
				c-17.7,6.9-26.4,12.5-25.7,16.8c1.2,7.6,31.9,9.3,43.4,9.9c19.6,1.1,39.9,10.4,61.5,20.3c5.6,2.6,11.4,5.2,17.2,7.8
				c4.7,2.3,10.6,1.3,16.1-2.7c3.9-2.8,7.3-6.9,9.6-11.5c2.5-5,3.4-10.3,2.8-15.3c-0.9-7.3-5.5-17.5-22.8-24.4l0,0l0,0
				C315.8,70.8,313.2,69.4,310.6,68.3z"/>
		</g>
		<defs>
			<filter id="Adobe_OpacityMaskFilter_5_" filterUnits="userSpaceOnUse" x="198.9" y="62.9" width="136.8" height="59.8">
				<feColorMatrix  type="matrix" values="1 0 0 0 0  0 1 0 0 0  0 0 1 0 0  0 0 0 1 0"/>
			</filter>
		</defs>
		<mask maskUnits="userSpaceOnUse" x="198.9" y="62.9" width="136.8" height="59.8" id="mask5_367_7864_1_">
			
				<linearGradient id="SVGID_13_" gradientUnits="userSpaceOnUse" x1="259.728" y1="750.7856" x2="277.7505" y2="679.8668" gradientTransform="matrix(1 0 0 -1 0 811.8898)">
				<stop  offset="0" style="stop-color:#FFFFFF"/>
				<stop  offset="4.360000e-02" style="stop-color:#B4B4B4"/>
				<stop  offset="0.1507" style="stop-color:#000000"/>
				<stop  offset="0.1714" style="stop-color:#171717"/>
				<stop  offset="0.3859" style="stop-color:#FFFFFF"/>
				<stop  offset="0.6326" style="stop-color:#E6E6E6"/>
				<stop  offset="0.8567" style="stop-color:#1A1A1A"/>
				<stop  offset="0.9987" style="stop-color:#000000"/>
			</linearGradient>
			<path class="st17" d="M203.1,90.1c-2.5-1.1-4-2.4-4.2-4.1c-0.6-4,7-9,23.3-15.3c24.9-7.3,46.8-9.6,65.2-6.8
				c15,2.3,24.3,7.3,29.4,11.2c14.1,6.1,17.9,14.5,18.6,20.5c0.9,8.2-3.4,17.1-11.1,22.6c-5.9,4.3-12.6,5.5-17.8,3.1c0,0,0,0-0.1,0
				c-8.5-3.4-16.2-6.8-23.7-10.2c-17.9-8-33.4-14.9-48-16C221.8,94.3,209.4,92.9,203.1,90.1z M306.9,70.1
				c-14.1-6.3-40.6-11.7-84.5,1.2c-15.8,6-23.5,11-23,14.7c0.9,6.1,24.2,7.9,35.4,8.8c14.7,1.1,30.2,8,48.2,16
				c7.5,3.3,15.2,6.8,23.7,10.2c0,0,0,0,0.1,0c5.1,2.3,11.6,1.1,17.3-3.1c7.5-5.4,11.7-14.1,10.8-22.1c-0.7-5.9-4.4-14.1-18.3-20.1
				l0,0l0,0C314.5,74.1,311.3,72,306.9,70.1z"/>
		</mask>
		<g class="st18">
			
				<linearGradient id="SVGID_14_" gradientUnits="userSpaceOnUse" x1="416.8757" y1="676.9539" x2="131.6457" y2="774.2559" gradientTransform="matrix(1 0 0 -1 0 811.8898)">
				<stop  offset="0" style="stop-color:#FFFFFF"/>
				<stop  offset="0.1507" style="stop-color:#A6BBDF"/>
				<stop  offset="0.4152" style="stop-color:#7C92C9"/>
				<stop  offset="0.7246" style="stop-color:#D3DDEE"/>
				<stop  offset="1" style="stop-color:#FFFFFF"/>
			</linearGradient>
			<path class="st19" d="M203.1,90.1c-2.5-1.1-4-2.4-4.2-4.1c-0.6-4,7-9,23.3-15.3c24.9-7.3,46.8-9.6,65.2-6.8
				c15,2.3,24.3,7.3,29.4,11.2c14.1,6.1,17.9,14.5,18.6,20.5c0.9,8.2-3.4,17.1-11.1,22.6c-5.9,4.3-12.6,5.5-17.8,3.1c0,0,0,0-0.1,0
				c-8.5-3.4-16.2-6.8-23.7-10.2c-17.9-8-33.4-14.9-48-16C221.8,94.3,209.4,92.9,203.1,90.1z M306.9,70.1
				c-14.1-6.3-40.6-11.7-84.5,1.2c-15.8,6-23.5,11-23,14.7c0.9,6.1,24.2,7.9,35.4,8.8c14.7,1.1,30.2,8,48.2,16
				c7.5,3.3,15.2,6.8,23.7,10.2c0,0,0,0,0.1,0c5.1,2.3,11.6,1.1,17.3-3.1c7.5-5.4,11.7-14.1,10.8-22.1c-0.7-5.9-4.4-14.1-18.3-20.1
				l0,0l0,0C314.5,74.1,311.3,72,306.9,70.1z"/>
		</g>
		<defs>
			<filter id="Adobe_OpacityMaskFilter_6_" filterUnits="userSpaceOnUse" x="208" y="64.9" width="121.7" height="52.6">
				<feColorMatrix  type="matrix" values="1 0 0 0 0  0 1 0 0 0  0 0 1 0 0  0 0 0 1 0"/>
			</filter>
		</defs>
		<mask maskUnits="userSpaceOnUse" x="208" y="64.9" width="121.7" height="52.6" id="mask6_367_7864_1_">
			
				<linearGradient id="SVGID_15_" gradientUnits="userSpaceOnUse" x1="261.9434" y1="749.6206" x2="278.0315" y2="686.3171" gradientTransform="matrix(1 0 0 -1 0 811.8898)">
				<stop  offset="0" style="stop-color:#FFFFFF"/>
				<stop  offset="4.360000e-02" style="stop-color:#B4B4B4"/>
				<stop  offset="0.1507" style="stop-color:#000000"/>
				<stop  offset="0.1714" style="stop-color:#171717"/>
				<stop  offset="0.3859" style="stop-color:#FFFFFF"/>
				<stop  offset="0.6326" style="stop-color:#E6E6E6"/>
				<stop  offset="0.8567" style="stop-color:#1A1A1A"/>
				<stop  offset="0.9987" style="stop-color:#000000"/>
			</linearGradient>
			<path class="st20" d="M211.7,87.5c-2.2-1-3.6-2.1-3.7-3.6c-0.4-3.5,6.3-7.8,20.6-13.2c23.2-6.1,43.6-7.4,60.7-3.9
				c6.3,1.3,12,3.2,17,5.7c5,2.5,7.8,5,9,6.2c6.6,3.1,11,7.1,13,11.8c1.8,4.1,1.6,8.6-0.3,12.9c-2.2,4.8-6.3,9.1-11.5,11.7
				c-5.4,2.7-11,3.1-15.7,1.1c-11.4-4.2-21.1-8.5-29.7-12.2c-14-6.1-25-11-35.3-12.1l-0.6-0.1C227.7,91.1,217.2,90,211.7,87.5z
				 M303.6,71.8c-3.8-1.7-8.5-3.3-14.4-4.5c-17.1-3.5-37.4-2.2-60.5,3.9c-13.9,5.2-20.7,9.4-20.3,12.7c0.6,4.7,17.1,6.5,26.9,7.5
				l0.6,0.1c10.4,1.1,21.5,6,35.5,12.1c8.6,3.8,18.3,8,29.6,12.2c4.6,1.9,10,1.5,15.3-1.1c5-2.5,9.1-6.7,11.2-11.4
				c1.9-4.3,2-8.6,0.3-12.6c-2-4.6-6.3-8.5-12.8-11.6l0,0l0,0C313.8,77.9,310.3,74.8,303.6,71.8z"/>
		</mask>
		<g class="st21">
			
				<linearGradient id="SVGID_16_" gradientUnits="userSpaceOnUse" x1="417.2836" y1="678.1514" x2="132.0546" y2="775.4537" gradientTransform="matrix(1 0 0 -1 0 811.8898)">
				<stop  offset="0" style="stop-color:#FFFFFF"/>
				<stop  offset="0.1507" style="stop-color:#A6BBDF"/>
				<stop  offset="0.4152" style="stop-color:#7C92C9"/>
				<stop  offset="0.7246" style="stop-color:#D3DDEE"/>
				<stop  offset="1" style="stop-color:#FFFFFF"/>
			</linearGradient>
			<path class="st22" d="M211.7,87.5c-2.2-1-3.6-2.1-3.7-3.6c-0.4-3.5,6.3-7.8,20.6-13.2c23.2-6.1,43.6-7.4,60.7-3.9
				c6.3,1.3,12,3.2,17,5.7c5,2.5,7.8,5,9,6.2c6.6,3.1,11,7.1,13,11.8c1.8,4.1,1.6,8.6-0.3,12.9c-2.2,4.8-6.3,9.1-11.5,11.7
				c-5.4,2.7-11,3.1-15.7,1.1c-11.4-4.2-21.1-8.5-29.7-12.2c-14-6.1-25-11-35.3-12.1l-0.6-0.1C227.7,91.1,217.2,90,211.7,87.5z
				 M303.6,71.8c-3.8-1.7-8.5-3.3-14.4-4.5c-17.1-3.5-37.4-2.2-60.5,3.9c-13.9,5.2-20.7,9.4-20.3,12.7c0.6,4.7,17.1,6.5,26.9,7.5
				l0.6,0.1c10.4,1.1,21.5,6,35.5,12.1c8.6,3.8,18.3,8,29.6,12.2c4.6,1.9,10,1.5,15.3-1.1c5-2.5,9.1-6.7,11.2-11.4
				c1.9-4.3,2-8.6,0.3-12.6c-2-4.6-6.3-8.5-12.8-11.6l0,0l0,0C313.8,77.9,310.3,74.8,303.6,71.8z"/>
		</g>
		<defs>
			<filter id="Adobe_OpacityMaskFilter_7_" filterUnits="userSpaceOnUse" x="217" y="66.8" width="106.9" height="45.7">
				<feColorMatrix  type="matrix" values="1 0 0 0 0  0 1 0 0 0  0 0 1 0 0  0 0 0 1 0"/>
			</filter>
		</defs>
		<mask maskUnits="userSpaceOnUse" x="217" y="66.8" width="106.9" height="45.7" id="mask7_367_7864_1_">
			
				<linearGradient id="SVGID_17_" gradientUnits="userSpaceOnUse" x1="264.1252" y1="748.6139" x2="278.3447" y2="692.6617" gradientTransform="matrix(1 0 0 -1 0 811.8898)">
				<stop  offset="0" style="stop-color:#FFFFFF"/>
				<stop  offset="4.360000e-02" style="stop-color:#B4B4B4"/>
				<stop  offset="0.1507" style="stop-color:#000000"/>
				<stop  offset="0.1714" style="stop-color:#171717"/>
				<stop  offset="0.3859" style="stop-color:#FFFFFF"/>
				<stop  offset="0.6326" style="stop-color:#E6E6E6"/>
				<stop  offset="0.8567" style="stop-color:#1A1A1A"/>
				<stop  offset="0.9987" style="stop-color:#000000"/>
			</linearGradient>
			<path class="st23" d="M220.2,84.9c-1.9-0.8-3.1-1.9-3.2-3.2c-0.3-3,5.6-6.6,18-11.1h0c14.8-3.4,36.6-6.3,56.2-1.1
				c5.8,1.5,11.1,3.7,15.3,6.3c3.3,2,6,4.4,7.3,6.4c12.5,6.7,10.4,15,8.9,18.2c-1.9,4.1-6.1,7.9-11.3,10c-5.5,2.3-11.3,2.5-16.1,0.6
				c-14.8-5-26-10-35-14c-9.7-4.3-16.7-7.5-23.3-8.5c-0.5-0.1-1.1-0.2-1.6-0.2C230.1,87.6,223.9,86.6,220.2,84.9z M235.1,71.1
				c-12,4.4-18,8-17.7,10.6c0.3,3.4,11,5.1,18.1,6.2c0.6,0.1,1.1,0.2,1.6,0.2c6.6,1,13.6,4.2,23.4,8.5c9,4,20.1,9,35,14
				c4.7,1.8,10.5,1.6,15.8-0.6c5-2.1,9.2-5.8,11-9.8c3-6.6-0.1-13-8.7-17.6l0,0l0-0.1c-2.6-4-10.5-9.4-22.4-12.5
				C280.3,67.2,261.8,65.1,235.1,71.1z"/>
		</mask>
		<g class="st24">
			
				<linearGradient id="SVGID_18_" gradientUnits="userSpaceOnUse" x1="417.6266" y1="679.1544" x2="132.3976" y2="776.4568" gradientTransform="matrix(1 0 0 -1 0 811.8898)">
				<stop  offset="0" style="stop-color:#FFFFFF"/>
				<stop  offset="0.1507" style="stop-color:#A6BBDF"/>
				<stop  offset="0.4152" style="stop-color:#7C92C9"/>
				<stop  offset="0.7246" style="stop-color:#D3DDEE"/>
				<stop  offset="1" style="stop-color:#FFFFFF"/>
			</linearGradient>
			<path class="st25" d="M220.2,84.9c-1.9-0.8-3.1-1.9-3.2-3.2c-0.3-3,5.6-6.6,18-11.1h0c14.8-3.4,36.6-6.3,56.2-1.1
				c5.8,1.5,11.1,3.7,15.3,6.3c3.3,2,6,4.4,7.3,6.4c12.5,6.7,10.4,15,8.9,18.2c-1.9,4.1-6.1,7.9-11.3,10c-5.5,2.3-11.3,2.5-16.1,0.6
				c-14.8-5-26-10-35-14c-9.7-4.3-16.7-7.5-23.3-8.5c-0.5-0.1-1.1-0.2-1.6-0.2C230.1,87.6,223.9,86.6,220.2,84.9z M235.1,71.1
				c-12,4.4-18,8-17.7,10.6c0.3,3.4,11,5.1,18.1,6.2c0.6,0.1,1.1,0.2,1.6,0.2c6.6,1,13.6,4.2,23.4,8.5c9,4,20.1,9,35,14
				c4.7,1.8,10.5,1.6,15.8-0.6c5-2.1,9.2-5.8,11-9.8c3-6.6-0.1-13-8.7-17.6l0,0l0-0.1c-2.6-4-10.5-9.4-22.4-12.5
				C280.3,67.2,261.8,65.1,235.1,71.1z"/>
		</g>
		<defs>
			<filter id="Adobe_OpacityMaskFilter_8_" filterUnits="userSpaceOnUse" x="225.8" y="68.3" width="92.5" height="39.1">
				<feColorMatrix  type="matrix" values="1 0 0 0 0  0 1 0 0 0  0 0 1 0 0  0 0 0 1 0"/>
			</filter>
		</defs>
		<mask maskUnits="userSpaceOnUse" x="225.8" y="68.3" width="92.5" height="39.1" id="mask8_367_7864_1_">
			
				<linearGradient id="SVGID_19_" gradientUnits="userSpaceOnUse" x1="266.3315" y1="747.6108" x2="278.7632" y2="698.693" gradientTransform="matrix(1 0 0 -1 0 811.8898)">
				<stop  offset="0" style="stop-color:#FFFFFF"/>
				<stop  offset="4.360000e-02" style="stop-color:#B4B4B4"/>
				<stop  offset="0.1507" style="stop-color:#000000"/>
				<stop  offset="0.1714" style="stop-color:#171717"/>
				<stop  offset="0.3859" style="stop-color:#FFFFFF"/>
				<stop  offset="0.6326" style="stop-color:#E6E6E6"/>
				<stop  offset="0.8567" style="stop-color:#1A1A1A"/>
				<stop  offset="0.9987" style="stop-color:#000000"/>
			</linearGradient>
			<path class="st26" d="M228.7,82.6c-1.7-0.8-2.9-1.7-2.9-2.8c-0.1-1.2,1.1-2.5,3.4-3.9c2.5-1.5,6.6-3.3,12.2-5.2l0,0
				c24.8-4.6,41.8-1.6,51.7,1.8c11.4,3.9,17.9,9.7,19.2,13.4c7.4,4.9,6.4,9.8,5.2,12.3c-3.4,6.8-16.6,11.9-27.9,7.9
				c-19.3-6-30.9-11.6-39.3-15.6c-5.1-2.5-8.8-4.2-12.2-5.1c-0.6-0.1-1.1-0.3-1.7-0.4C233.7,84.2,230.8,83.5,228.7,82.6z M241.5,71
				c-10.2,3.6-15.4,6.5-15.3,8.7c0.1,2.3,5.8,3.7,10.3,4.8c0.6,0.2,1.2,0.3,1.7,0.4c3.4,0.9,7.1,2.7,12.3,5.1
				c8.4,4.1,19.9,9.6,39.2,15.6c5,1.8,11,1.8,16.5,0.1c5.2-1.6,9.2-4.5,10.9-7.8c2-4.1,0.2-8.3-5.1-11.8l-0.1,0l0-0.1
				c-1-3.1-6.8-9.1-18.9-13.2C283.1,69.5,266.2,66.4,241.5,71z"/>
		</mask>
		<g class="st27">
			
				<linearGradient id="SVGID_20_" gradientUnits="userSpaceOnUse" x1="417.7468" y1="679.5078" x2="132.5178" y2="776.8101" gradientTransform="matrix(1 0 0 -1 0 811.8898)">
				<stop  offset="0" style="stop-color:#FFFFFF"/>
				<stop  offset="0.1507" style="stop-color:#A6BBDF"/>
				<stop  offset="0.4152" style="stop-color:#7C92C9"/>
				<stop  offset="0.7246" style="stop-color:#D3DDEE"/>
				<stop  offset="1" style="stop-color:#FFFFFF"/>
			</linearGradient>
			<path class="st28" d="M228.7,82.6c-1.7-0.8-2.9-1.7-2.9-2.8c-0.1-1.2,1.1-2.5,3.4-3.9c2.5-1.5,6.6-3.3,12.2-5.2l0,0
				c24.8-4.6,41.8-1.6,51.7,1.8c11.4,3.9,17.9,9.7,19.2,13.4c7.4,4.9,6.4,9.8,5.2,12.3c-3.4,6.8-16.6,11.9-27.9,7.9
				c-19.3-6-30.9-11.6-39.3-15.6c-5.1-2.5-8.8-4.2-12.2-5.1c-0.6-0.1-1.1-0.3-1.7-0.4C233.7,84.2,230.8,83.5,228.7,82.6z M241.5,71
				c-10.2,3.6-15.4,6.5-15.3,8.7c0.1,2.3,5.8,3.7,10.3,4.8c0.6,0.2,1.2,0.3,1.7,0.4c3.4,0.9,7.1,2.7,12.3,5.1
				c8.4,4.1,19.9,9.6,39.2,15.6c5,1.8,11,1.8,16.5,0.1c5.2-1.6,9.2-4.5,10.9-7.8c2-4.1,0.2-8.3-5.1-11.8l-0.1,0l0-0.1
				c-1-3.1-6.8-9.1-18.9-13.2C283.1,69.5,266.2,66.4,241.5,71z"/>
		</g>
		<defs>
			<filter id="Adobe_OpacityMaskFilter_9_" filterUnits="userSpaceOnUse" x="234.1" y="69.4" width="79.2" height="33.2">
				<feColorMatrix  type="matrix" values="1 0 0 0 0  0 1 0 0 0  0 0 1 0 0  0 0 0 1 0"/>
			</filter>
		</defs>
		<mask maskUnits="userSpaceOnUse" x="234.1" y="69.4" width="79.2" height="33.2" id="mask9_367_7864_1_">
			
				<linearGradient id="SVGID_21_" gradientUnits="userSpaceOnUse" x1="268.4751" y1="746.5836" x2="279.3065" y2="703.9585" gradientTransform="matrix(1 0 0 -1 0 811.8898)">
				<stop  offset="0" style="stop-color:#FFFFFF"/>
				<stop  offset="4.360000e-02" style="stop-color:#B4B4B4"/>
				<stop  offset="0.1507" style="stop-color:#000000"/>
				<stop  offset="0.1714" style="stop-color:#171717"/>
				<stop  offset="0.3859" style="stop-color:#FFFFFF"/>
				<stop  offset="0.6326" style="stop-color:#E6E6E6"/>
				<stop  offset="0.8567" style="stop-color:#1A1A1A"/>
				<stop  offset="0.9987" style="stop-color:#000000"/>
			</linearGradient>
			<path class="st29" d="M256,91.1c-6.7-3-10.7-5.5-13.5-7.2c-1.3-0.8-2.4-1.5-3.3-1.9c-0.2-0.1-0.5-0.2-0.7-0.4
				c-2.2-1.1-4.5-2.2-4.3-3.8c0.1-1.3,1.6-3.4,13.6-7.2l0,0c13.9-1.9,26.5-1.4,37.7,1.4c11.7,3,18.1,7.6,20.9,10.2
				c2.8,2.6,4.5,5.2,4.4,7.2c3.3,3.2,2.9,5.7,1.9,7.3c-1.5,2.6-5.7,4.6-11.1,5.5c-5.7,0.9-12.1,0.4-17.6-1.3
				C271.3,97.3,262.5,94,256,91.1z M239.3,81.6c1,0.5,2,1.1,3.3,1.9c5.4,3.4,15.6,9.7,41.4,16.9c12.1,3.8,25.4,0.9,28.3-4
				c1.3-2.1,0.6-4.5-1.9-6.9l-0.1-0.1v-0.1c0.1-1.9-1.5-4.4-4.3-7c-3.1-2.8-20.5-16.6-58.3-11.5c-8.8,2.8-13.2,5.1-13.3,6.9
				c-0.1,1.3,2.1,2.4,4.2,3.4C238.9,81.4,239.1,81.5,239.3,81.6z"/>
		</mask>
		<g class="st30">
			
				<linearGradient id="SVGID_22_" gradientUnits="userSpaceOnUse" x1="417.8885" y1="679.9232" x2="132.6595" y2="777.2258" gradientTransform="matrix(1 0 0 -1 0 811.8898)">
				<stop  offset="0" style="stop-color:#FFFFFF"/>
				<stop  offset="0.1507" style="stop-color:#A6BBDF"/>
				<stop  offset="0.4152" style="stop-color:#7C92C9"/>
				<stop  offset="0.7246" style="stop-color:#D3DDEE"/>
				<stop  offset="1" style="stop-color:#FFFFFF"/>
			</linearGradient>
			<path class="st31" d="M256,91.1c-6.7-3-10.7-5.5-13.5-7.2c-1.3-0.8-2.4-1.5-3.3-1.9c-0.2-0.1-0.5-0.2-0.7-0.4
				c-2.2-1.1-4.5-2.2-4.3-3.8c0.1-1.3,1.6-3.4,13.6-7.2l0,0c13.9-1.9,26.5-1.4,37.7,1.4c11.7,3,18.1,7.6,20.9,10.2
				c2.8,2.6,4.5,5.2,4.4,7.2c3.3,3.2,2.9,5.7,1.9,7.3c-1.5,2.6-5.7,4.6-11.1,5.5c-5.7,0.9-12.1,0.4-17.6-1.3
				C271.3,97.3,262.5,94,256,91.1z M239.3,81.6c1,0.5,2,1.1,3.3,1.9c5.4,3.4,15.6,9.7,41.4,16.9c12.1,3.8,25.4,0.9,28.3-4
				c1.3-2.1,0.6-4.5-1.9-6.9l-0.1-0.1v-0.1c0.1-1.9-1.5-4.4-4.3-7c-3.1-2.8-20.5-16.6-58.3-11.5c-8.8,2.8-13.2,5.1-13.3,6.9
				c-0.1,1.3,2.1,2.4,4.2,3.4C238.9,81.4,239.1,81.5,239.3,81.6z"/>
		</g>
		<defs>
			<filter id="Adobe_OpacityMaskFilter_10_" filterUnits="userSpaceOnUse" x="240" y="70.2" width="69.4" height="28.7">
				<feColorMatrix  type="matrix" values="1 0 0 0 0  0 1 0 0 0  0 0 1 0 0  0 0 0 1 0"/>
			</filter>
		</defs>
		<mask maskUnits="userSpaceOnUse" x="240" y="70.2" width="69.4" height="28.7" id="mask10_367_7864_1_">
			
				<linearGradient id="SVGID_23_" gradientUnits="userSpaceOnUse" x1="270.1586" y1="745.4532" x2="279.8837" y2="707.1843" gradientTransform="matrix(1 0 0 -1 0 811.8898)">
				<stop  offset="0" style="stop-color:#FFFFFF"/>
				<stop  offset="4.360000e-02" style="stop-color:#B4B4B4"/>
				<stop  offset="0.1507" style="stop-color:#000000"/>
				<stop  offset="0.1714" style="stop-color:#171717"/>
				<stop  offset="0.3859" style="stop-color:#FFFFFF"/>
				<stop  offset="0.6326" style="stop-color:#E6E6E6"/>
				<stop  offset="0.8567" style="stop-color:#1A1A1A"/>
				<stop  offset="0.9987" style="stop-color:#000000"/>
			</linearGradient>
			<path class="st32" d="M251.5,87c-1.5-0.7-2.9-1.3-4.1-2c-6-3.3-6.9-5.7-7.2-6.5c-0.3-0.8-0.3-1.5,0.1-2.1c1-1.9,5-3.6,13.8-5.9h0
				c12.9-1,25.1,0.4,35.2,4.1c11.5,4.2,16.4,9.6,18,11.8c1.8,2.5,2.5,4.8,1.8,6.5c0.5,1.4,0.3,2.7-0.6,3.6
				c-2.1,2.2-7.5,2.5-11.7,2.3c-5.5-0.2-12.1-1.4-18.6-3.2C266.9,92.8,257.9,89.9,251.5,87z M240.5,78.4c2,5.4,14.8,11.1,37.9,17
				c11.9,3.3,26.4,4.7,30,0.9c0.8-0.9,1-2,0.5-3.3l0,0l0-0.1c0.6-1.6,0-3.8-1.8-6.2c-6.7-9.1-26.1-17.8-52.9-15.8
				c-8.5,2.2-12.6,3.9-13.6,5.7C240.3,77.1,240.3,77.7,240.5,78.4z"/>
		</mask>
		<g class="st33">
			
				<linearGradient id="SVGID_24_" gradientUnits="userSpaceOnUse" x1="418.0781" y1="680.479" x2="132.8491" y2="777.7811" gradientTransform="matrix(1 0 0 -1 0 811.8898)">
				<stop  offset="0" style="stop-color:#FFFFFF"/>
				<stop  offset="0.1507" style="stop-color:#A6BBDF"/>
				<stop  offset="0.4152" style="stop-color:#7C92C9"/>
				<stop  offset="0.7246" style="stop-color:#D3DDEE"/>
				<stop  offset="1" style="stop-color:#FFFFFF"/>
			</linearGradient>
			<path class="st34" d="M251.5,87c-1.5-0.7-2.9-1.3-4.1-2c-6-3.3-6.9-5.7-7.2-6.5c-0.3-0.8-0.3-1.5,0.1-2.1c1-1.9,5-3.6,13.8-5.9h0
				c12.9-1,25.1,0.4,35.2,4.1c11.5,4.2,16.4,9.6,18,11.8c1.8,2.5,2.5,4.8,1.8,6.5c0.5,1.4,0.3,2.7-0.6,3.6
				c-2.1,2.2-7.5,2.5-11.7,2.3c-5.5-0.2-12.1-1.4-18.6-3.2C266.9,92.8,257.9,89.9,251.5,87z M240.5,78.4c2,5.4,14.8,11.1,37.9,17
				c11.9,3.3,26.4,4.7,30,0.9c0.8-0.9,1-2,0.5-3.3l0,0l0-0.1c0.6-1.6,0-3.8-1.8-6.2c-6.7-9.1-26.1-17.8-52.9-15.8
				c-8.5,2.2-12.6,3.9-13.6,5.7C240.3,77.1,240.3,77.7,240.5,78.4z"/>
		</g>
		<defs>
			<filter id="Adobe_OpacityMaskFilter_11_" filterUnits="userSpaceOnUse" x="240.3" y="70.5" width="68.1" height="28.1">
				<feColorMatrix  type="matrix" values="1 0 0 0 0  0 1 0 0 0  0 0 1 0 0  0 0 0 1 0"/>
			</filter>
		</defs>
		<mask maskUnits="userSpaceOnUse" x="240.3" y="70.5" width="68.1" height="28.1" id="mask11_367_7864_1_">
			
				<linearGradient id="SVGID_25_" gradientUnits="userSpaceOnUse" x1="269.6251" y1="745.2001" x2="279.2962" y2="707.1451" gradientTransform="matrix(1 0 0 -1 0 811.8898)">
				<stop  offset="0" style="stop-color:#FFFFFF"/>
				<stop  offset="4.360000e-02" style="stop-color:#B4B4B4"/>
				<stop  offset="0.1507" style="stop-color:#000000"/>
				<stop  offset="0.1714" style="stop-color:#171717"/>
				<stop  offset="0.3859" style="stop-color:#FFFFFF"/>
				<stop  offset="0.6326" style="stop-color:#E6E6E6"/>
				<stop  offset="0.8567" style="stop-color:#1A1A1A"/>
				<stop  offset="0.9987" style="stop-color:#000000"/>
			</linearGradient>
			<path class="st35" d="M246.9,82.9c-3.9-1.8-6.1-3.4-6.5-5c-0.3-1,0.1-1.9,1-2.9c1.6-1.6,5.7-2.7,8.8-3.4
				c3.5-0.7,7.6-1.2,10.3-1.2c14.8-0.1,25.4,3.5,31.6,6.5c7.3,3.5,13,8.3,15.3,12.9c1.3,2.6,1.4,5,0.1,6.6c-3.1,4.1-11.4,1.4-21-1.8
				c-4.5-1.5-9.2-3-13.9-4.1C260.7,87.8,252.2,85.3,246.9,82.9z M260.5,70.6v0.1c-5.1,0-16.1,1.8-18.9,4.5c-0.9,0.9-1.2,1.7-1,2.6
				c1,3.6,11.8,7.8,32.1,12.5c4.8,1.1,9.4,2.6,13.9,4.1c9.5,3.1,17.7,5.8,20.7,1.9c1.2-1.6,1.1-3.8-0.2-6.4
				c-2.2-4.5-7.9-9.3-15.2-12.8c-6.3-3-16.8-6.6-31.5-6.5L260.5,70.6z"/>
		</mask>
		<g class="st36">
			
				<linearGradient id="SVGID_26_" gradientUnits="userSpaceOnUse" x1="418.3364" y1="681.236" x2="133.1074" y2="778.538" gradientTransform="matrix(1 0 0 -1 0 811.8898)">
				<stop  offset="0" style="stop-color:#FFFFFF"/>
				<stop  offset="0.1507" style="stop-color:#A6BBDF"/>
				<stop  offset="0.4152" style="stop-color:#7C92C9"/>
				<stop  offset="0.7246" style="stop-color:#D3DDEE"/>
				<stop  offset="1" style="stop-color:#FFFFFF"/>
			</linearGradient>
			<path class="st37" d="M246.9,82.9c-3.9-1.8-6.1-3.4-6.5-5c-0.3-1,0.1-1.9,1-2.9c1.6-1.6,5.7-2.7,8.8-3.4
				c3.5-0.7,7.6-1.2,10.3-1.2c14.8-0.1,25.4,3.5,31.6,6.5c7.3,3.5,13,8.3,15.3,12.9c1.3,2.6,1.4,5,0.1,6.6c-3.1,4.1-11.4,1.4-21-1.8
				c-4.5-1.5-9.2-3-13.9-4.1C260.7,87.8,252.2,85.3,246.9,82.9z M260.5,70.6v0.1c-5.1,0-16.1,1.8-18.9,4.5c-0.9,0.9-1.2,1.7-1,2.6
				c1,3.6,11.8,7.8,32.1,12.5c4.8,1.1,9.4,2.6,13.9,4.1c9.5,3.1,17.7,5.8,20.7,1.9c1.2-1.6,1.1-3.8-0.2-6.4
				c-2.2-4.5-7.9-9.3-15.2-12.8c-6.3-3-16.8-6.6-31.5-6.5L260.5,70.6z"/>
		</g>
		<defs>
			<filter id="Adobe_OpacityMaskFilter_12_" filterUnits="userSpaceOnUse" x="-254" y="166" width="529" height="312">
				<feColorMatrix  type="matrix" values="1 0 0 0 0  0 1 0 0 0  0 0 1 0 0  0 0 0 1 0"/>
			</filter>
		</defs>
		<mask maskUnits="userSpaceOnUse" x="-254" y="166" width="529" height="312" id="mask12_367_7864_1_">
			
				<linearGradient id="SVGID_27_" gradientUnits="userSpaceOnUse" x1="-30.7683" y1="654.2498" x2="69.9057" y2="318.3321" gradientTransform="matrix(1 0 0 -1 0 811.8898)">
				<stop  offset="0" style="stop-color:#FFFFFF"/>
				<stop  offset="4.360000e-02" style="stop-color:#B4B4B4"/>
				<stop  offset="0.1507" style="stop-color:#000000"/>
				<stop  offset="0.1714" style="stop-color:#171717"/>
				<stop  offset="0.3859" style="stop-color:#FFFFFF"/>
				<stop  offset="0.6326" style="stop-color:#E6E6E6"/>
				<stop  offset="0.8567" style="stop-color:#1A1A1A"/>
				<stop  offset="0.9987" style="stop-color:#000000"/>
			</linearGradient>
			<path class="st38" d="M-155.2,428.2c-7.1-2.8-13.9-5.7-20.3-8.6c-35.4-16.1-59.1-33.2-70.6-50.7c-11.8-17.9-10.3-35.9,4.3-53.5
				c44.5-53.4,79.3-83.6,102.3-103.6c10.4-9,18.6-16.1,23.9-22.2l0.3,0.3l-0.3-0.3c8.8-10,33.1-18.4,63.2-21.9
				c32.4-3.7,64.5-1,88,7.4c32.4,11.6,70.8,16.2,97.3,18c30.9,2.1,63.9,1.6,88.4-1.3c15.8-1.9,29.2,3.1,38.8,14.6
				c16.6,19.8,19.5,56.2,7.6,95c-5.6,18.4-11.4,37.4-18.2,55.3c-7.4,19.8-15.2,36-23.7,49.7c-10.2,16.3-21.8,29.5-35.3,40.3
				c-15.1,12-32.4,20.8-52.9,26.8c-34.9,10.3-117.3,3.5-200.4-16.4C-96.6,448.7-128.1,438.9-155.2,428.2z M243.4,195
				c-6.6-2.6-14-3.5-22-2.5c-24.5,2.9-57.7,3.4-88.6,1.3c-26.6-1.8-65-6.4-97.6-18c-23.4-8.4-55.3-11-87.6-7.3
				c-29.9,3.4-53.9,11.7-62.7,21.6c-5.4,6.1-13.6,13.2-24,22.2c-23,20-57.8,50.2-102.2,103.5c-14.4,17.3-15.8,34.9-4.3,52.5
				c11.4,17.4,35.1,34.3,70.3,50.4c30.9,14.1,69.9,27,112.7,37.2c83,19.9,165.2,26.7,199.9,16.4c20.3-6,37.5-14.7,52.6-26.7
				c13.5-10.7,25-23.8,35.1-40c19-30.5,30.6-68.2,41.8-104.8c11.8-38.5,8.9-74.6-7.5-94.2C255,201.4,249.6,197.4,243.4,195z"/>
		</mask>
		<g class="st39">
			
				<linearGradient id="SVGID_28_" gradientUnits="userSpaceOnUse" x1="258.5155" y1="659.1016" x2="-88.2575" y2="400.4106" gradientTransform="matrix(1 0 0 -1 0 811.8898)">
				<stop  offset="0" style="stop-color:#FFFFFF"/>
				<stop  offset="0.1507" style="stop-color:#A6BBDF"/>
				<stop  offset="0.4152" style="stop-color:#7C92C9"/>
				<stop  offset="0.7246" style="stop-color:#D3DDEE"/>
				<stop  offset="1" style="stop-color:#FFFFFF"/>
			</linearGradient>
			<path class="st40" d="M-155.2,428.2c-7.1-2.8-13.9-5.7-20.3-8.6c-35.4-16.1-59.1-33.2-70.6-50.7c-11.8-17.9-10.3-35.9,4.3-53.5
				c44.5-53.4,79.3-83.6,102.3-103.6c10.4-9,18.6-16.1,23.9-22.2l0.3,0.3l-0.3-0.3c8.8-10,33.1-18.4,63.2-21.9
				c32.4-3.7,64.5-1,88,7.4c32.4,11.6,70.8,16.2,97.3,18c30.9,2.1,63.9,1.6,88.4-1.3c15.8-1.9,29.2,3.1,38.8,14.6
				c16.6,19.8,19.5,56.2,7.6,95c-5.6,18.4-11.4,37.4-18.2,55.3c-7.4,19.8-15.2,36-23.7,49.7c-10.2,16.3-21.8,29.5-35.3,40.3
				c-15.1,12-32.4,20.8-52.9,26.8c-34.9,10.3-117.3,3.5-200.4-16.4C-96.6,448.7-128.1,438.9-155.2,428.2z M243.4,195
				c-6.6-2.6-14-3.5-22-2.5c-24.5,2.9-57.7,3.4-88.6,1.3c-26.6-1.8-65-6.4-97.6-18c-23.4-8.4-55.3-11-87.6-7.3
				c-29.9,3.4-53.9,11.7-62.7,21.6c-5.4,6.1-13.6,13.2-24,22.2c-23,20-57.8,50.2-102.2,103.5c-14.4,17.3-15.8,34.9-4.3,52.5
				c11.4,17.4,35.1,34.3,70.3,50.4c30.9,14.1,69.9,27,112.7,37.2c83,19.9,165.2,26.7,199.9,16.4c20.3-6,37.5-14.7,52.6-26.7
				c13.5-10.7,25-23.8,35.1-40c19-30.5,30.6-68.2,41.8-104.8c11.8-38.5,8.9-74.6-7.5-94.2C255,201.4,249.6,197.4,243.4,195z"/>
		</g>
		<defs>
			<filter id="Adobe_OpacityMaskFilter_13_" filterUnits="userSpaceOnUse" x="-233.9" y="172.9" width="487.2" height="289.1">
				<feColorMatrix  type="matrix" values="1 0 0 0 0  0 1 0 0 0  0 0 1 0 0  0 0 0 1 0"/>
			</filter>
		</defs>
		<mask maskUnits="userSpaceOnUse" x="-233.9" y="172.9" width="487.2" height="289.1" id="mask13_367_7864_1_">
			
				<linearGradient id="SVGID_29_" gradientUnits="userSpaceOnUse" x1="-28.9337" y1="645.7941" x2="64.0005" y2="335.7018" gradientTransform="matrix(1 0 0 -1 0 811.8898)">
				<stop  offset="0" style="stop-color:#FFFFFF"/>
				<stop  offset="4.360000e-02" style="stop-color:#B4B4B4"/>
				<stop  offset="0.1507" style="stop-color:#000000"/>
				<stop  offset="0.1714" style="stop-color:#171717"/>
				<stop  offset="0.3859" style="stop-color:#FFFFFF"/>
				<stop  offset="0.6326" style="stop-color:#E6E6E6"/>
				<stop  offset="0.8567" style="stop-color:#1A1A1A"/>
				<stop  offset="0.9987" style="stop-color:#000000"/>
			</linearGradient>
			<path class="st41" d="M-145.5,416.6c-5.6-2.2-11-4.5-16.2-6.8c-32.5-14.6-54.4-30-65-45.9c-10.7-16.1-9.6-32.3,3.4-48.1
				c38.9-48.1,71.1-77.5,92.5-96.9c10-9.1,17.9-16.3,23.3-22.4c8.6-9.9,31.3-18.2,59.2-21.7c29.8-3.8,59.8-1.5,82.1,6.2
				c30,10.5,65.3,15,89.6,16.8c28.6,2.2,58.1,2.1,80.9-0.3c14.4-1.5,26.7,3.4,35.4,14c15.1,18.4,17.8,51.9,7,87.4
				c-10.2,33.5-20.7,68.1-38.6,96.6c-9.4,15-20.1,27.2-32.6,37.1c-13.9,11.1-29.8,19.2-48.6,24.8c-32.2,9.8-108.2,4-184.7-13.9
				C-90.1,435.9-120,426.7-145.5,416.6z M223.9,200.7c-5.8-2.3-12.4-3.2-19.5-2.4c-22.9,2.3-52.5,2.4-81.1,0.3
				c-24.4-1.8-59.7-6.3-89.8-16.8c-22.2-7.7-52.1-10-81.8-6.2c-27.7,3.5-50.2,11.7-58.7,21.5c-5.4,6.2-13.3,13.4-23.4,22.5
				c-21.3,19.4-53.6,48.7-92.4,96.8c-12.7,15.5-13.9,31.4-3.3,47.1c10.5,15.8,32.3,31.1,64.7,45.7c28.4,12.8,64.3,24.4,103.7,33.6
				c76.4,17.9,152.2,23.6,184.3,13.9c18.7-5.6,34.5-13.7,48.3-24.7c12.4-9.9,23-21.9,32.4-36.9c17.8-28.4,28.3-63,38.5-96.4
				c10.8-35.2,8.1-68.4-6.8-86.6C234.8,206.8,229.7,203,223.9,200.7z"/>
		</mask>
		<g class="st42">
			
				<linearGradient id="SVGID_30_" gradientUnits="userSpaceOnUse" x1="255.5787" y1="663.0378" x2="-91.1945" y2="404.3478" gradientTransform="matrix(1 0 0 -1 0 811.8898)">
				<stop  offset="0" style="stop-color:#FFFFFF"/>
				<stop  offset="0.1507" style="stop-color:#A6BBDF"/>
				<stop  offset="0.4152" style="stop-color:#7C92C9"/>
				<stop  offset="0.7246" style="stop-color:#D3DDEE"/>
				<stop  offset="1" style="stop-color:#FFFFFF"/>
			</linearGradient>
			<path class="st43" d="M-145.5,416.6c-5.6-2.2-11-4.5-16.2-6.8c-32.5-14.6-54.4-30-65-45.9c-10.7-16.1-9.6-32.3,3.4-48.1
				c38.9-48.1,71.1-77.5,92.5-96.9c10-9.1,17.9-16.3,23.3-22.4c8.6-9.9,31.3-18.2,59.2-21.7c29.8-3.8,59.8-1.5,82.1,6.2
				c30,10.5,65.3,15,89.6,16.8c28.6,2.2,58.1,2.1,80.9-0.3c14.4-1.5,26.7,3.4,35.4,14c15.1,18.4,17.8,51.9,7,87.4
				c-10.2,33.5-20.7,68.1-38.6,96.6c-9.4,15-20.1,27.2-32.6,37.1c-13.9,11.1-29.8,19.2-48.6,24.8c-32.2,9.8-108.2,4-184.7-13.9
				C-90.1,435.9-120,426.7-145.5,416.6z M223.9,200.7c-5.8-2.3-12.4-3.2-19.5-2.4c-22.9,2.3-52.5,2.4-81.1,0.3
				c-24.4-1.8-59.7-6.3-89.8-16.8c-22.2-7.7-52.1-10-81.8-6.2c-27.7,3.5-50.2,11.7-58.7,21.5c-5.4,6.2-13.3,13.4-23.4,22.5
				c-21.3,19.4-53.6,48.7-92.4,96.8c-12.7,15.5-13.9,31.4-3.3,47.1c10.5,15.8,32.3,31.1,64.7,45.7c28.4,12.8,64.3,24.4,103.7,33.6
				c76.4,17.9,152.2,23.6,184.3,13.9c18.7-5.6,34.5-13.7,48.3-24.7c12.4-9.9,23-21.9,32.4-36.9c17.8-28.4,28.3-63,38.5-96.4
				c10.8-35.2,8.1-68.4-6.8-86.6C234.8,206.8,229.7,203,223.9,200.7z"/>
		</g>
		<defs>
			<filter id="Adobe_OpacityMaskFilter_14_" filterUnits="userSpaceOnUse" x="-213.9" y="179.8" width="445.5" height="266.4">
				<feColorMatrix  type="matrix" values="1 0 0 0 0  0 1 0 0 0  0 0 1 0 0  0 0 0 1 0"/>
			</filter>
		</defs>
		<mask maskUnits="userSpaceOnUse" x="-213.9" y="179.8" width="445.5" height="266.4" id="mask14_367_7864_1_">
			
				<linearGradient id="SVGID_31_" gradientUnits="userSpaceOnUse" x1="-27.1477" y1="637.4661" x2="58.0795" y2="353.0891" gradientTransform="matrix(1 0 0 -1 0 811.8898)">
				<stop  offset="0" style="stop-color:#FFFFFF"/>
				<stop  offset="4.360000e-02" style="stop-color:#B4B4B4"/>
				<stop  offset="0.1507" style="stop-color:#000000"/>
				<stop  offset="0.1714" style="stop-color:#171717"/>
				<stop  offset="0.3859" style="stop-color:#FFFFFF"/>
				<stop  offset="0.6326" style="stop-color:#E6E6E6"/>
				<stop  offset="0.8567" style="stop-color:#1A1A1A"/>
				<stop  offset="0.9987" style="stop-color:#000000"/>
			</linearGradient>
			<path class="st44" d="M-135.8,405.1c-4.2-1.7-8.2-3.3-12.1-5c-29.7-13-49.7-26.9-59.4-41.2c-9.7-14.2-8.9-28.6,2.4-42.7
				c33.5-43.1,62.2-70.5,83.1-90.5c9.5-9.1,17-16.2,22.3-22.4c8.6-9.9,29.2-18,55.1-21.6c27.2-3.8,55-1.9,76.2,5.1
				c49.9,17.2,120.2,19.3,155.3,16.4c13-1,24.1,3.6,32,13.4c13.7,17,16.1,47.6,6.3,79.8c-8.8,28.9-18.7,61.7-35.3,88.2
				c-8.6,13.7-18.4,24.8-29.8,34c-12.7,10.2-27.3,17.6-44.4,22.9c-14.8,4.6-39.2,5.9-70.6,3.7c-30.1-2.1-65.1-7.5-98.5-15.1
				C-83.6,423.1-111.9,414.5-135.8,405.1z M204.3,206.3c-5.1-2-10.8-2.8-17-2.3c-35.2,2.8-105.6,0.8-155.6-16.5
				c-21.1-7-48.8-8.9-75.9-5.1c-25.8,3.6-46.2,11.6-54.7,21.4c-5.3,6.2-12.8,13.3-22.3,22.4c-20.9,20-49.6,47.3-83,90.4
				c-11.1,13.8-11.9,27.9-2.4,41.8c9.7,14.2,29.5,28,59.1,40.9c26,11.4,58.8,21.8,94.7,29.9c33.4,7.6,68.3,12.9,98.4,15
				c31.3,2.2,55.6,0.9,70.3-3.7c17-5.2,31.5-12.6,44.1-22.7c11.4-9.1,21.1-20.1,29.7-33.8c16.6-26.4,26.5-59.1,35.2-88
				c9.7-31.9,7.4-62.2-6.2-79.1C214.7,212.1,209.9,208.5,204.3,206.3z"/>
		</mask>
		<g class="st45">
			
				<linearGradient id="SVGID_32_" gradientUnits="userSpaceOnUse" x1="252.615" y1="667.0115" x2="-94.1596" y2="408.3205" gradientTransform="matrix(1 0 0 -1 0 811.8898)">
				<stop  offset="0" style="stop-color:#FFFFFF"/>
				<stop  offset="0.1507" style="stop-color:#A6BBDF"/>
				<stop  offset="0.4152" style="stop-color:#7C92C9"/>
				<stop  offset="0.7246" style="stop-color:#D3DDEE"/>
				<stop  offset="1" style="stop-color:#FFFFFF"/>
			</linearGradient>
			<path class="st46" d="M-135.8,405.1c-4.2-1.7-8.2-3.3-12.1-5c-29.7-13-49.7-26.9-59.4-41.2c-9.7-14.2-8.9-28.6,2.4-42.7
				c33.5-43.1,62.2-70.5,83.1-90.5c9.5-9.1,17-16.2,22.3-22.4c8.6-9.9,29.2-18,55.1-21.6c27.2-3.8,55-1.9,76.2,5.1
				c49.9,17.2,120.2,19.3,155.3,16.4c13-1,24.1,3.6,32,13.4c13.7,17,16.1,47.6,6.3,79.8c-8.8,28.9-18.7,61.7-35.3,88.2
				c-8.6,13.7-18.4,24.8-29.8,34c-12.7,10.2-27.3,17.6-44.4,22.9c-14.8,4.6-39.2,5.9-70.6,3.7c-30.1-2.1-65.1-7.5-98.5-15.1
				C-83.6,423.1-111.9,414.5-135.8,405.1z M204.3,206.3c-5.1-2-10.8-2.8-17-2.3c-35.2,2.8-105.6,0.8-155.6-16.5
				c-21.1-7-48.8-8.9-75.9-5.1c-25.8,3.6-46.2,11.6-54.7,21.4c-5.3,6.2-12.8,13.3-22.3,22.4c-20.9,20-49.6,47.3-83,90.4
				c-11.1,13.8-11.9,27.9-2.4,41.8c9.7,14.2,29.5,28,59.1,40.9c26,11.4,58.8,21.8,94.7,29.9c33.4,7.6,68.3,12.9,98.4,15
				c31.3,2.2,55.6,0.9,70.3-3.7c17-5.2,31.5-12.6,44.1-22.7c11.4-9.1,21.1-20.1,29.7-33.8c16.6-26.4,26.5-59.1,35.2-88
				c9.7-31.9,7.4-62.2-6.2-79.1C214.7,212.1,209.9,208.5,204.3,206.3z"/>
		</g>
		<defs>
			<filter id="Adobe_OpacityMaskFilter_15_" filterUnits="userSpaceOnUse" x="-193.9" y="186.7" width="403.7" height="243.6">
				<feColorMatrix  type="matrix" values="1 0 0 0 0  0 1 0 0 0  0 0 1 0 0  0 0 0 1 0"/>
			</filter>
		</defs>
		<mask maskUnits="userSpaceOnUse" x="-193.9" y="186.7" width="403.7" height="243.6" id="mask15_367_7864_1_">
			
				<linearGradient id="SVGID_33_" gradientUnits="userSpaceOnUse" x1="-25.369" y1="629.1281" x2="52.1508" y2="370.4684" gradientTransform="matrix(1 0 0 -1 0 811.8898)">
				<stop  offset="0" style="stop-color:#FFFFFF"/>
				<stop  offset="4.360000e-02" style="stop-color:#B4B4B4"/>
				<stop  offset="0.1507" style="stop-color:#000000"/>
				<stop  offset="0.1714" style="stop-color:#171717"/>
				<stop  offset="0.3859" style="stop-color:#FFFFFF"/>
				<stop  offset="0.6326" style="stop-color:#E6E6E6"/>
				<stop  offset="0.8567" style="stop-color:#1A1A1A"/>
				<stop  offset="0.9987" style="stop-color:#000000"/>
			</linearGradient>
			<path class="st47" d="M-126,393.6c-2.7-1.1-5.4-2.2-8-3.3c-26.8-11.5-44.9-23.8-53.8-36.5c-8.7-12.4-8.2-25,1.5-37.3
				c28.4-38.5,55-65.2,74.3-84.7c8.3-8.4,15.5-15.7,20.7-21.7c8.4-9.8,27.5-17.8,51.1-21.5c24.7-3.8,50.3-2.4,70.4,4
				c19.8,6.7,45.4,11.7,74.1,14.5c23,2.2,47.1,2.9,66,1.9c11.7-0.6,21.5,3.8,28.6,12.8c12.3,15.7,14.5,43.3,5.7,72.1
				c-9.1,30.3-17.8,57.2-32,79.8c-7.8,12.4-16.7,22.5-27.1,30.8c-11.6,9.2-24.7,16.1-40.1,20.9c-13.5,4.4-35.7,5.8-64.2,4
				c-27.2-1.7-58.9-6.2-89.3-12.9C-77.1,410.3-103.8,402.4-126,393.6z M184.8,212c-4.4-1.7-9.3-2.5-14.5-2.2
				c-18.9,1-43,0.3-66.1-1.9c-28.7-2.8-54.4-7.8-74.2-14.5c-19.9-6.3-45.5-7.8-70-4c-23.5,3.6-42.4,11.6-50.7,21.2
				c-5.1,6-12.3,13.3-20.7,21.7c-19.3,19.5-45.8,46.2-74.3,84.6c-9.5,12.1-10,24.3-1.5,36.5c8.8,12.6,26.8,24.8,53.5,36.2
				c23.6,10.1,53.2,19.2,85.7,26.3c30.3,6.6,61.9,11.2,89.1,12.8c28.4,1.7,50.5,0.4,64-4c15.4-4.8,28.4-11.6,39.9-20.8
				c10.3-8.3,19.1-18.3,26.9-30.6c14.2-22.5,22.9-49.4,32-79.6c8.7-28.6,6.6-56-5.6-71.5C194.6,217.5,190,214.1,184.8,212z"/>
		</mask>
		<g class="st48">
			
				<linearGradient id="SVGID_34_" gradientUnits="userSpaceOnUse" x1="249.6557" y1="670.9779" x2="-97.116" y2="412.2879" gradientTransform="matrix(1 0 0 -1 0 811.8898)">
				<stop  offset="0" style="stop-color:#FFFFFF"/>
				<stop  offset="0.1507" style="stop-color:#A6BBDF"/>
				<stop  offset="0.4152" style="stop-color:#7C92C9"/>
				<stop  offset="0.7246" style="stop-color:#D3DDEE"/>
				<stop  offset="1" style="stop-color:#FFFFFF"/>
			</linearGradient>
			<path class="st49" d="M-126,393.6c-2.7-1.1-5.4-2.2-8-3.3c-26.8-11.5-44.9-23.8-53.8-36.5c-8.7-12.4-8.2-25,1.5-37.3
				c28.4-38.5,55-65.2,74.3-84.7c8.3-8.4,15.5-15.7,20.7-21.7c8.4-9.8,27.5-17.8,51.1-21.5c24.7-3.8,50.3-2.4,70.4,4
				c19.8,6.7,45.4,11.7,74.1,14.5c23,2.2,47.1,2.9,66,1.9c11.7-0.6,21.5,3.8,28.6,12.8c12.3,15.7,14.5,43.3,5.7,72.1
				c-9.1,30.3-17.8,57.2-32,79.8c-7.8,12.4-16.7,22.5-27.1,30.8c-11.6,9.2-24.7,16.1-40.1,20.9c-13.5,4.4-35.7,5.8-64.2,4
				c-27.2-1.7-58.9-6.2-89.3-12.9C-77.1,410.3-103.8,402.4-126,393.6z M184.8,212c-4.4-1.7-9.3-2.5-14.5-2.2
				c-18.9,1-43,0.3-66.1-1.9c-28.7-2.8-54.4-7.8-74.2-14.5c-19.9-6.3-45.5-7.8-70-4c-23.5,3.6-42.4,11.6-50.7,21.2
				c-5.1,6-12.3,13.3-20.7,21.7c-19.3,19.5-45.8,46.2-74.3,84.6c-9.5,12.1-10,24.3-1.5,36.5c8.8,12.6,26.8,24.8,53.5,36.2
				c23.6,10.1,53.2,19.2,85.7,26.3c30.3,6.6,61.9,11.2,89.1,12.8c28.4,1.7,50.5,0.4,64-4c15.4-4.8,28.4-11.6,39.9-20.8
				c10.3-8.3,19.1-18.3,26.9-30.6c14.2-22.5,22.9-49.4,32-79.6c8.7-28.6,6.6-56-5.6-71.5C194.6,217.5,190,214.1,184.8,212z"/>
		</g>
		<defs>
			<filter id="Adobe_OpacityMaskFilter_16_" filterUnits="userSpaceOnUse" x="-173.9" y="193.5" width="362" height="220.9">
				<feColorMatrix  type="matrix" values="1 0 0 0 0  0 1 0 0 0  0 0 1 0 0  0 0 0 1 0"/>
			</filter>
		</defs>
		<mask maskUnits="userSpaceOnUse" x="-173.9" y="193.5" width="362" height="220.9" id="mask16_367_7864_1_">
			
				<linearGradient id="SVGID_35_" gradientUnits="userSpaceOnUse" x1="-23.625" y1="620.9002" x2="46.2179" y2="387.8555" gradientTransform="matrix(1 0 0 -1 0 811.8898)">
				<stop  offset="0" style="stop-color:#FFFFFF"/>
				<stop  offset="4.360000e-02" style="stop-color:#B4B4B4"/>
				<stop  offset="0.1507" style="stop-color:#000000"/>
				<stop  offset="0.1714" style="stop-color:#171717"/>
				<stop  offset="0.3859" style="stop-color:#FFFFFF"/>
				<stop  offset="0.6326" style="stop-color:#E6E6E6"/>
				<stop  offset="0.8567" style="stop-color:#1A1A1A"/>
				<stop  offset="0.9987" style="stop-color:#000000"/>
			</linearGradient>
			<path class="st50" d="M-116.2,382.2c-1.4-0.5-2.7-1.1-4-1.6c-24-10-40.2-20.6-48.2-31.7c-7.6-10.6-7.4-21.3,0.6-31.9
				c23.7-34.5,48.4-60.8,66.5-80.1c7.2-7.6,13.3-14.2,18.1-19.8c8.3-9.8,25.4-17.6,47.1-21.3c22.1-3.8,45.6-2.8,64.5,2.9
				c37,12.2,90.7,16.9,124.8,16.2c10.3-0.2,19,4,25.2,12.2c10.8,14.3,12.7,39,5,64.5c-7.7,25.9-15.7,50.8-28.7,71.4
				c-7.1,11.1-15,20.2-24.3,27.7c-10.4,8.3-22.1,14.5-35.9,18.9c-12.3,4.1-32.3,5.6-57.9,4.4c-24.4-1.2-52.8-5-80-10.7
				C-70.6,397.6-95.7,390.4-116.2,382.2z M165.2,217.6c-3.7-1.5-7.7-2.2-12-2.1c-34.2,0.7-87.9-4.1-125-16.3
				c-18.8-5.6-42.2-6.7-64.2-2.8c-21.5,3.7-38.5,11.4-46.7,21.1c-4.7,5.6-10.9,12.2-18.1,19.8c-18,19.2-42.8,45.6-66.5,80
				c-7.8,10.3-8,20.8-0.6,31.1c7.9,11,24,21.6,47.9,31.5c21.2,8.8,47.7,16.6,76.6,22.6c27.2,5.7,55.6,9.4,79.9,10.6
				c25.5,1.3,45.4-0.2,57.6-4.3c13.7-4.4,25.4-10.5,35.7-18.8c9.3-7.4,17.2-16.4,24.2-27.5c13-20.6,21-45.4,28.7-71.3
				c7.7-25.3,5.8-49.8-4.9-63.9C174.4,222.9,170.1,219.5,165.2,217.6z"/>
		</mask>
		<g class="st51">
			
				<linearGradient id="SVGID_36_" gradientUnits="userSpaceOnUse" x1="246.6785" y1="674.9682" x2="-100.0936" y2="416.2792" gradientTransform="matrix(1 0 0 -1 0 811.8898)">
				<stop  offset="0" style="stop-color:#FFFFFF"/>
				<stop  offset="0.1507" style="stop-color:#A6BBDF"/>
				<stop  offset="0.4152" style="stop-color:#7C92C9"/>
				<stop  offset="0.7246" style="stop-color:#D3DDEE"/>
				<stop  offset="1" style="stop-color:#FFFFFF"/>
			</linearGradient>
			<path class="st52" d="M-116.2,382.2c-1.4-0.5-2.7-1.1-4-1.6c-24-10-40.2-20.6-48.2-31.7c-7.6-10.6-7.4-21.3,0.6-31.9
				c23.7-34.5,48.4-60.8,66.5-80.1c7.2-7.6,13.3-14.2,18.1-19.8c8.3-9.8,25.4-17.6,47.1-21.3c22.1-3.8,45.6-2.8,64.5,2.9
				c37,12.2,90.7,16.9,124.8,16.2c10.3-0.2,19,4,25.2,12.2c10.8,14.3,12.7,39,5,64.5c-7.7,25.9-15.7,50.8-28.7,71.4
				c-7.1,11.1-15,20.2-24.3,27.7c-10.4,8.3-22.1,14.5-35.9,18.9c-12.3,4.1-32.3,5.6-57.9,4.4c-24.4-1.2-52.8-5-80-10.7
				C-70.6,397.6-95.7,390.4-116.2,382.2z M165.2,217.6c-3.7-1.5-7.7-2.2-12-2.1c-34.2,0.7-87.9-4.1-125-16.3
				c-18.8-5.6-42.2-6.7-64.2-2.8c-21.5,3.7-38.5,11.4-46.7,21.1c-4.7,5.6-10.9,12.2-18.1,19.8c-18,19.2-42.8,45.6-66.5,80
				c-7.8,10.3-8,20.8-0.6,31.1c7.9,11,24,21.6,47.9,31.5c21.2,8.8,47.7,16.6,76.6,22.6c27.2,5.7,55.6,9.4,79.9,10.6
				c25.5,1.3,45.4-0.2,57.6-4.3c13.7-4.4,25.4-10.5,35.7-18.8c9.3-7.4,17.2-16.4,24.2-27.5c13-20.6,21-45.4,28.7-71.3
				c7.7-25.3,5.8-49.8-4.9-63.9C174.4,222.9,170.1,219.5,165.2,217.6z"/>
		</g>
		<defs>
			<filter id="Adobe_OpacityMaskFilter_17_" filterUnits="userSpaceOnUse" x="-153.9" y="200.3" width="320.3" height="198.2">
				<feColorMatrix  type="matrix" values="1 0 0 0 0  0 1 0 0 0  0 0 1 0 0  0 0 0 1 0"/>
			</filter>
		</defs>
		<mask maskUnits="userSpaceOnUse" x="-153.9" y="200.3" width="320.3" height="198.2" id="mask17_367_7864_1_">
			
				<linearGradient id="SVGID_37_" gradientUnits="userSpaceOnUse" x1="-21.9049" y1="612.6979" x2="40.2788" y2="405.2102" gradientTransform="matrix(1 0 0 -1 0 811.8898)">
				<stop  offset="0" style="stop-color:#FFFFFF"/>
				<stop  offset="4.360000e-02" style="stop-color:#B4B4B4"/>
				<stop  offset="0.1507" style="stop-color:#000000"/>
				<stop  offset="0.1714" style="stop-color:#171717"/>
				<stop  offset="0.3859" style="stop-color:#FFFFFF"/>
				<stop  offset="0.6326" style="stop-color:#E6E6E6"/>
				<stop  offset="0.8567" style="stop-color:#1A1A1A"/>
				<stop  offset="0.9987" style="stop-color:#000000"/>
			</linearGradient>
			<path class="st53" d="M-106.3,371c-0.1,0-0.1,0-0.1-0.1c-21.1-8.4-35.5-17.5-42.5-27c-6.6-8.8-6.6-17.7-0.2-26.5
				c19.2-31.1,42.9-57.9,60.2-77.4c5.4-6.1,10.1-11.4,14-16c8.1-9.7,23.8-17.4,43.1-21.2c19.6-3.9,40.9-3.2,58.6,1.7
				c16.1,5.1,35.8,9.2,58.6,12.1c17.2,2.2,35.8,3.7,51,4c8.9,0.2,16.5,4.2,21.8,11.6c9.4,12.9,11,34.7,4.3,56.9
				c-6.4,21.7-13.6,44.4-25.5,63c-6.3,9.8-13.3,17.8-21.6,24.5c-9.2,7.4-19.5,12.9-31.7,16.9c-21.8,7.7-71,6.2-122.3-3.7
				C-64.2,384.9-87.5,378.4-106.3,371z M145.6,223.1c-2.9-1.2-6.1-1.8-9.4-1.9c-15.3-0.3-33.9-1.8-51.1-4
				c-22.9-2.9-42.6-7-58.7-12.1c-17.6-4.9-38.8-5.6-58.3-1.7c-19.2,3.8-34.7,11.4-42.7,21c-3.9,4.7-8.6,9.9-14,16.1
				c-17.3,19.5-40.9,46.3-60.1,77.3c-6.2,8.6-6.2,17.3,0.2,25.8c7,9.4,21.2,18.4,42.3,26.8c0,0,0.1,0,0.1,0.1
				c18.7,7.4,42.1,14,67.5,18.9c51.2,9.9,100.2,11.5,122,3.8c12.1-4,22.4-9.5,31.5-16.8c8.2-6.6,15.2-14.6,21.5-24.4
				c11.9-18.6,19.1-41.3,25.4-62.9c6.6-22,5-43.6-4.2-56.4C154.3,228.2,150.3,225,145.6,223.1z"/>
		</mask>
		<g class="st54">
			
				<linearGradient id="SVGID_38_" gradientUnits="userSpaceOnUse" x1="243.7067" y1="678.9525" x2="-103.0653" y2="420.2625" gradientTransform="matrix(1 0 0 -1 0 811.8898)">
				<stop  offset="0" style="stop-color:#FFFFFF"/>
				<stop  offset="0.1507" style="stop-color:#A6BBDF"/>
				<stop  offset="0.4152" style="stop-color:#7C92C9"/>
				<stop  offset="0.7246" style="stop-color:#D3DDEE"/>
				<stop  offset="1" style="stop-color:#FFFFFF"/>
			</linearGradient>
			<path class="st55" d="M-106.3,371c-0.1,0-0.1,0-0.1-0.1c-21.1-8.4-35.5-17.5-42.5-27c-6.6-8.8-6.6-17.7-0.2-26.5
				c19.2-31.1,42.9-57.9,60.2-77.4c5.4-6.1,10.1-11.4,14-16c8.1-9.7,23.8-17.4,43.1-21.2c19.6-3.9,40.9-3.2,58.6,1.7
				c16.1,5.1,35.8,9.2,58.6,12.1c17.2,2.2,35.8,3.7,51,4c8.9,0.2,16.5,4.2,21.8,11.6c9.4,12.9,11,34.7,4.3,56.9
				c-6.4,21.7-13.6,44.4-25.5,63c-6.3,9.8-13.3,17.8-21.6,24.5c-9.2,7.4-19.5,12.9-31.7,16.9c-21.8,7.7-71,6.2-122.3-3.7
				C-64.2,384.9-87.5,378.4-106.3,371z M145.6,223.1c-2.9-1.2-6.1-1.8-9.4-1.9c-15.3-0.3-33.9-1.8-51.1-4
				c-22.9-2.9-42.6-7-58.7-12.1c-17.6-4.9-38.8-5.6-58.3-1.7c-19.2,3.8-34.7,11.4-42.7,21c-3.9,4.7-8.6,9.9-14,16.1
				c-17.3,19.5-40.9,46.3-60.1,77.3c-6.2,8.6-6.2,17.3,0.2,25.8c7,9.4,21.2,18.4,42.3,26.8c0,0,0.1,0,0.1,0.1
				c18.7,7.4,42.1,14,67.5,18.9c51.2,9.9,100.2,11.5,122,3.8c12.1-4,22.4-9.5,31.5-16.8c8.2-6.6,15.2-14.6,21.5-24.4
				c11.9-18.6,19.1-41.3,25.4-62.9c6.6-22,5-43.6-4.2-56.4C154.3,228.2,150.3,225,145.6,223.1z"/>
		</g>
		<defs>
			<filter id="Adobe_OpacityMaskFilter_18_" filterUnits="userSpaceOnUse" x="-134" y="207.1" width="278.7" height="175.8">
				<feColorMatrix  type="matrix" values="1 0 0 0 0  0 1 0 0 0  0 0 1 0 0  0 0 0 1 0"/>
			</filter>
		</defs>
		<mask maskUnits="userSpaceOnUse" x="-134" y="207.1" width="278.7" height="175.8" id="mask18_367_7864_1_">
			
				<linearGradient id="SVGID_39_" gradientUnits="userSpaceOnUse" x1="-20.2575" y1="604.6005" x2="34.3045" y2="422.5444" gradientTransform="matrix(1 0 0 -1 0 811.8898)">
				<stop  offset="0" style="stop-color:#FFFFFF"/>
				<stop  offset="4.360000e-02" style="stop-color:#B4B4B4"/>
				<stop  offset="0.1507" style="stop-color:#000000"/>
				<stop  offset="0.1714" style="stop-color:#171717"/>
				<stop  offset="0.3859" style="stop-color:#FFFFFF"/>
				<stop  offset="0.6326" style="stop-color:#E6E6E6"/>
				<stop  offset="0.8567" style="stop-color:#1A1A1A"/>
				<stop  offset="0.9987" style="stop-color:#000000"/>
			</linearGradient>
			<path class="st56" d="M-96.4,359.8c-16.3-6.5-27.5-13.5-33.2-20.8c-5.5-7-5.8-14.1-1.1-21.1c14.8-28.6,38.7-57,56.1-77.8
				c2.7-3.3,5.3-6.3,7.6-9.1c8-9.7,21.9-17.2,39-21.1c17.3-3.9,36-3.7,52.7,0.6c11.4,3.4,43.3,11.9,94.4,16
				c7.6,0.6,13.9,4.5,18.4,11.1c7.9,11.5,9.2,30.4,3.6,49.2c-5.1,17.7-11.5,37.9-22.2,54.6c-11.3,17.7-26.5,29.5-46.3,36.3
				c-9.8,3.7-25.4,5.4-45.2,5.1c-18.9-0.3-40.1-2.5-61.5-6.2c-22.1-3.9-42.4-9.2-58.7-15.3C-94,360.8-95.2,360.3-96.4,359.8z
				 M125.9,228.6c-2.1-0.8-4.4-1.4-6.8-1.6c-8.2-0.7-24.7-2.2-43.5-5.1c-19.8-3-36.9-6.7-50.9-10.9c-16.6-4.3-35.2-4.5-52.4-0.6
				c-17,3.9-30.8,11.3-38.7,20.9c-2.3,2.8-4.9,5.9-7.6,9.1c-17.4,20.8-41.3,49.3-56.1,77.8l0,0c-4.6,6.8-4.3,13.7,1,20.5
				c6,7.7,18.7,15.3,36.7,22c16.3,6.1,36.6,11.4,58.6,15.3c21.3,3.8,42.6,5.9,61.4,6.2c19.8,0.3,35.3-1.4,45-5
				c19.7-6.7,34.7-18.5,46-36.1c10.7-16.6,17-36.9,22.1-54.5c5.6-18.7,4.2-37.3-3.5-48.7C134.2,233.5,130.4,230.4,125.9,228.6z"/>
		</mask>
		<g class="st57">
			
				<linearGradient id="SVGID_40_" gradientUnits="userSpaceOnUse" x1="240.7051" y1="682.9766" x2="-106.0669" y2="424.2857" gradientTransform="matrix(1 0 0 -1 0 811.8898)">
				<stop  offset="0" style="stop-color:#FFFFFF"/>
				<stop  offset="0.1507" style="stop-color:#A6BBDF"/>
				<stop  offset="0.4152" style="stop-color:#7C92C9"/>
				<stop  offset="0.7246" style="stop-color:#D3DDEE"/>
				<stop  offset="1" style="stop-color:#FFFFFF"/>
			</linearGradient>
			<path class="st58" d="M-96.4,359.8c-16.3-6.5-27.5-13.5-33.2-20.8c-5.5-7-5.8-14.1-1.1-21.1c14.8-28.6,38.7-57,56.1-77.8
				c2.7-3.3,5.3-6.3,7.6-9.1c8-9.7,21.9-17.2,39-21.1c17.3-3.9,36-3.7,52.7,0.6c11.4,3.4,43.3,11.9,94.4,16
				c7.6,0.6,13.9,4.5,18.4,11.1c7.9,11.5,9.2,30.4,3.6,49.2c-5.1,17.7-11.5,37.9-22.2,54.6c-11.3,17.7-26.5,29.5-46.3,36.3
				c-9.8,3.7-25.4,5.4-45.2,5.1c-18.9-0.3-40.1-2.5-61.5-6.2c-22.1-3.9-42.4-9.2-58.7-15.3C-94,360.8-95.2,360.3-96.4,359.8z
				 M125.9,228.6c-2.1-0.8-4.4-1.4-6.8-1.6c-8.2-0.7-24.7-2.2-43.5-5.1c-19.8-3-36.9-6.7-50.9-10.9c-16.6-4.3-35.2-4.5-52.4-0.6
				c-17,3.9-30.8,11.3-38.7,20.9c-2.3,2.8-4.9,5.9-7.6,9.1c-17.4,20.8-41.3,49.3-56.1,77.8l0,0c-4.6,6.8-4.3,13.7,1,20.5
				c6,7.7,18.7,15.3,36.7,22c16.3,6.1,36.6,11.4,58.6,15.3c21.3,3.8,42.6,5.9,61.4,6.2c19.8,0.3,35.3-1.4,45-5
				c19.7-6.7,34.7-18.5,46-36.1c10.7-16.6,17-36.9,22.1-54.5c5.6-18.7,4.2-37.3-3.5-48.7C134.2,233.5,130.4,230.4,125.9,228.6z"/>
		</g>
		<defs>
			<filter id="Adobe_OpacityMaskFilter_19_" filterUnits="userSpaceOnUse" x="-114.2" y="213.8" width="237.1" height="153.5">
				<feColorMatrix  type="matrix" values="1 0 0 0 0  0 1 0 0 0  0 0 1 0 0  0 0 0 1 0"/>
			</filter>
		</defs>
		<mask maskUnits="userSpaceOnUse" x="-114.2" y="213.8" width="237.1" height="153.5" id="mask19_367_7864_1_">
			
				<linearGradient id="SVGID_41_" gradientUnits="userSpaceOnUse" x1="-18.7049" y1="596.6237" x2="28.2843" y2="439.8344" gradientTransform="matrix(1 0 0 -1 0 811.8898)">
				<stop  offset="0" style="stop-color:#FFFFFF"/>
				<stop  offset="4.360000e-02" style="stop-color:#B4B4B4"/>
				<stop  offset="0.1507" style="stop-color:#000000"/>
				<stop  offset="0.1714" style="stop-color:#171717"/>
				<stop  offset="0.3859" style="stop-color:#FFFFFF"/>
				<stop  offset="0.6326" style="stop-color:#E6E6E6"/>
				<stop  offset="0.8567" style="stop-color:#1A1A1A"/>
				<stop  offset="0.9987" style="stop-color:#000000"/>
			</linearGradient>
			<path class="st59" d="M-86,349c-11.6-4.6-19.9-9.7-24.3-14.9c-4.4-5.2-5-10.5-1.8-15.9c9.8-27,40.3-64.5,53.4-80.5
				c16.3-20,50-28.8,81.8-21.4c24.8,7,55.4,12,73.7,15c1.9,0.3,3.8,0.6,5.4,0.9c6.2,1,11.5,4.7,15.1,10.6c6.3,10.2,7.4,26,2.9,41.5
				c-4.4,15.7-9.8,32.2-18.9,46.3c-9.7,14.9-22.6,25.1-39.3,31.2c-16.8,6.7-52.6,7.3-91.2,1.5c-18.6-2.8-35.8-6.8-49.7-11.6
				C-81.5,350.8-83.8,349.9-86,349z M106.2,233.9c-1.3-0.5-2.7-0.9-4.2-1.2c-1.7-0.3-3.5-0.6-5.4-0.9c-18.3-3-48.9-8-73.7-15
				c-31.7-7.3-65.1,1.4-81.3,21.3c-13,16-43.6,53.4-53.3,80.4l0,0l0,0c-3.1,5.1-2.5,10.3,1.8,15.3c5.2,6.1,16,12.1,31.1,17.3
				c13.9,4.8,31.1,8.8,49.7,11.6c38.6,5.8,74.3,5.3,91-1.4c37.2-13.4,49-45.4,57.9-77.1c4.5-15.3,3.5-31-2.8-41.1
				C114.1,238.8,110.5,235.6,106.2,233.9z"/>
		</mask>
		<g class="st60">
			
				<linearGradient id="SVGID_42_" gradientUnits="userSpaceOnUse" x1="237.6889" y1="687.0197" x2="-109.0841" y2="428.3287" gradientTransform="matrix(1 0 0 -1 0 811.8898)">
				<stop  offset="0" style="stop-color:#FFFFFF"/>
				<stop  offset="0.1507" style="stop-color:#A6BBDF"/>
				<stop  offset="0.4152" style="stop-color:#7C92C9"/>
				<stop  offset="0.7246" style="stop-color:#D3DDEE"/>
				<stop  offset="1" style="stop-color:#FFFFFF"/>
			</linearGradient>
			<path class="st61" d="M-86,349c-11.6-4.6-19.9-9.7-24.3-14.9c-4.4-5.2-5-10.5-1.8-15.9c9.8-27,40.3-64.5,53.4-80.5
				c16.3-20,50-28.8,81.8-21.4c24.8,7,55.4,12,73.7,15c1.9,0.3,3.8,0.6,5.4,0.9c6.2,1,11.5,4.7,15.1,10.6c6.3,10.2,7.4,26,2.9,41.5
				c-4.4,15.7-9.8,32.2-18.9,46.3c-9.7,14.9-22.6,25.1-39.3,31.2c-16.8,6.7-52.6,7.3-91.2,1.5c-18.6-2.8-35.8-6.8-49.7-11.6
				C-81.5,350.8-83.8,349.9-86,349z M106.2,233.9c-1.3-0.5-2.7-0.9-4.2-1.2c-1.7-0.3-3.5-0.6-5.4-0.9c-18.3-3-48.9-8-73.7-15
				c-31.7-7.3-65.1,1.4-81.3,21.3c-13,16-43.6,53.4-53.3,80.4l0,0l0,0c-3.1,5.1-2.5,10.3,1.8,15.3c5.2,6.1,16,12.1,31.1,17.3
				c13.9,4.8,31.1,8.8,49.7,11.6c38.6,5.8,74.3,5.3,91-1.4c37.2-13.4,49-45.4,57.9-77.1c4.5-15.3,3.5-31-2.8-41.1
				C114.1,238.8,110.5,235.6,106.2,233.9z"/>
		</g>
		<defs>
			<filter id="Adobe_OpacityMaskFilter_20_" filterUnits="userSpaceOnUse" x="-94.5" y="220.5" width="195.8" height="131.5">
				<feColorMatrix  type="matrix" values="1 0 0 0 0  0 1 0 0 0  0 0 1 0 0  0 0 0 1 0"/>
			</filter>
		</defs>
		<mask maskUnits="userSpaceOnUse" x="-94.5" y="220.5" width="195.8" height="131.5" id="mask20_367_7864_1_">
			
				<linearGradient id="SVGID_43_" gradientUnits="userSpaceOnUse" x1="-17.2417" y1="588.739" x2="22.2296" y2="457.0354" gradientTransform="matrix(1 0 0 -1 0 811.8898)">
				<stop  offset="0" style="stop-color:#FFFFFF"/>
				<stop  offset="4.360000e-02" style="stop-color:#B4B4B4"/>
				<stop  offset="0.1507" style="stop-color:#000000"/>
				<stop  offset="0.1714" style="stop-color:#171717"/>
				<stop  offset="0.3859" style="stop-color:#FFFFFF"/>
				<stop  offset="0.6326" style="stop-color:#E6E6E6"/>
				<stop  offset="0.8567" style="stop-color:#1A1A1A"/>
				<stop  offset="0.9987" style="stop-color:#000000"/>
			</linearGradient>
			<path class="st62" d="M-75.6,338.6c-7.1-2.8-12.4-5.9-15.5-9.1c-3.4-3.5-4.2-7.1-2.5-10.7c0.6-8.2,5.9-20.4,15.9-36.4
				c7.2-11.6,17.1-25.4,27.1-37.7c16-19.8,42.9-28.2,71.9-22.4c10,2.6,20.4,5,30.5,7.4c13.1,3.1,25.4,6,33.4,8.4
				c6.8,2,11.9,7.9,14.4,16.4c2.4,8.1,2.2,18.1-0.5,27.4c-5.8,21.4-11.4,31.5-15.6,37.9c-8.1,12.2-18.6,20.7-32.3,26.1
				c-14.3,6.3-43.3,7.9-75.7,4.1C-45.3,347.6-63.1,343.6-75.6,338.6z M86.4,239c-0.5-0.2-0.9-0.3-1.4-0.5c-8-2.4-20.4-5.3-33.4-8.4
				c-10.1-2.4-20.5-4.9-30.5-7.4c-28.8-5.7-55.6,2.6-71.5,22.3c-10,12.3-19.8,26.1-27,37.7c-9.9,15.9-15.2,28.1-15.8,36.2v0l0,0
				c-1.7,3.5-0.8,6.9,2.4,10.3c8.6,8.9,34,16.7,66.3,20.4c32.3,3.7,61.2,2.1,75.5-4.1c13.6-5.3,24.1-13.7,32.1-25.9
				c8-12.1,12.5-26.5,15.6-37.7c2.7-9.2,2.9-19.1,0.5-27.2C96.8,246.9,92.3,241.4,86.4,239z"/>
		</mask>
		<g class="st63">
			
				<linearGradient id="SVGID_44_" gradientUnits="userSpaceOnUse" x1="234.6486" y1="691.0955" x2="-112.1244" y2="432.4044" gradientTransform="matrix(1 0 0 -1 0 811.8898)">
				<stop  offset="0" style="stop-color:#FFFFFF"/>
				<stop  offset="0.1507" style="stop-color:#A6BBDF"/>
				<stop  offset="0.4152" style="stop-color:#7C92C9"/>
				<stop  offset="0.7246" style="stop-color:#D3DDEE"/>
				<stop  offset="1" style="stop-color:#FFFFFF"/>
			</linearGradient>
			<path class="st64" d="M-75.6,338.6c-7.1-2.8-12.4-5.9-15.5-9.1c-3.4-3.5-4.2-7.1-2.5-10.7c0.6-8.2,5.9-20.4,15.9-36.4
				c7.2-11.6,17.1-25.4,27.1-37.7c16-19.8,42.9-28.2,71.9-22.4c10,2.6,20.4,5,30.5,7.4c13.1,3.1,25.4,6,33.4,8.4
				c6.8,2,11.9,7.9,14.4,16.4c2.4,8.1,2.2,18.1-0.5,27.4c-5.8,21.4-11.4,31.5-15.6,37.9c-8.1,12.2-18.6,20.7-32.3,26.1
				c-14.3,6.3-43.3,7.9-75.7,4.1C-45.3,347.6-63.1,343.6-75.6,338.6z M86.4,239c-0.5-0.2-0.9-0.3-1.4-0.5c-8-2.4-20.4-5.3-33.4-8.4
				c-10.1-2.4-20.5-4.9-30.5-7.4c-28.8-5.7-55.6,2.6-71.5,22.3c-10,12.3-19.8,26.1-27,37.7c-9.9,15.9-15.2,28.1-15.8,36.2v0l0,0
				c-1.7,3.5-0.8,6.9,2.4,10.3c8.6,8.9,34,16.7,66.3,20.4c32.3,3.7,61.2,2.1,75.5-4.1c13.6-5.3,24.1-13.7,32.1-25.9
				c8-12.1,12.5-26.5,15.6-37.7c2.7-9.2,2.9-19.1,0.5-27.2C96.8,246.9,92.3,241.4,86.4,239z"/>
		</g>
		<defs>
			<filter id="Adobe_OpacityMaskFilter_21_" filterUnits="userSpaceOnUse" x="-76.3" y="227.1" width="155.8" height="110.2">
				<feColorMatrix  type="matrix" values="1 0 0 0 0  0 1 0 0 0  0 0 1 0 0  0 0 0 1 0"/>
			</filter>
		</defs>
		<mask maskUnits="userSpaceOnUse" x="-76.3" y="227.1" width="155.8" height="110.2" id="mask21_367_7864_1_">
			
				<linearGradient id="SVGID_45_" gradientUnits="userSpaceOnUse" x1="-16.0504" y1="580.9988" x2="15.9986" y2="474.0612" gradientTransform="matrix(1 0 0 -1 0 811.8898)">
				<stop  offset="0" style="stop-color:#FFFFFF"/>
				<stop  offset="4.360000e-02" style="stop-color:#B4B4B4"/>
				<stop  offset="0.1507" style="stop-color:#000000"/>
				<stop  offset="0.1714" style="stop-color:#171717"/>
				<stop  offset="0.3859" style="stop-color:#FFFFFF"/>
				<stop  offset="0.6326" style="stop-color:#E6E6E6"/>
				<stop  offset="0.8567" style="stop-color:#1A1A1A"/>
				<stop  offset="0.9987" style="stop-color:#000000"/>
			</linearGradient>
			<path class="st65" d="M-65,329c-2.9-1.2-5.3-2.4-7-3.7c-2.5-1.9-3.5-3.9-3.2-6c-3.7-6.2,2.2-19.9,7.7-30.4
				c6.3-11.8,15.6-25.7,24.8-37.3c8-10,16.8-16.7,27-20.6c10.4-4,21.8-4.9,35.1-2.8c19.6,4.3,38.7,10.5,48.7,15.7
				c4.9,2.6,8.5,7.8,10.3,14.8c1.6,6.5,1.5,14.1-0.4,20.8c-4.6,17.9-13.1,39.8-37.7,50.4c-11.7,5.8-34.1,8.4-59.9,7
				C-38.4,335.9-55,333-65,329z M59,240.3c-10.5-4.2-25-8.5-39.7-11.7c-13.1-2.1-24.5-1.2-34.9,2.7c-10.1,3.9-18.9,10.6-26.8,20.5
				c-17.3,21.7-38.8,56.9-32.5,67.3l0,0.1l0,0.1c-0.4,1.9,0.6,3.9,3,5.7c7.5,5.7,27.9,10.3,52.2,11.6c25.7,1.4,48-1.2,59.7-7
				C64.6,319,73,297.2,77.6,279.4c1.9-6.7,2-14.2,0.4-20.6c-1.7-6.9-5.3-12-10.1-14.6C65.5,243,62.5,241.6,59,240.3z"/>
		</mask>
		<g class="st66">
			
				<linearGradient id="SVGID_46_" gradientUnits="userSpaceOnUse" x1="231.5332" y1="695.2709" x2="-115.2398" y2="436.5799" gradientTransform="matrix(1 0 0 -1 0 811.8898)">
				<stop  offset="0" style="stop-color:#FFFFFF"/>
				<stop  offset="0.1507" style="stop-color:#A6BBDF"/>
				<stop  offset="0.4152" style="stop-color:#7C92C9"/>
				<stop  offset="0.7246" style="stop-color:#D3DDEE"/>
				<stop  offset="1" style="stop-color:#FFFFFF"/>
			</linearGradient>
			<path class="st67" d="M-65,329c-2.9-1.2-5.3-2.4-7-3.7c-2.5-1.9-3.5-3.9-3.2-6c-3.7-6.2,2.2-19.9,7.7-30.4
				c6.3-11.8,15.6-25.7,24.8-37.3c8-10,16.8-16.7,27-20.6c10.4-4,21.8-4.9,35.1-2.8c19.6,4.3,38.7,10.5,48.7,15.7
				c4.9,2.6,8.5,7.8,10.3,14.8c1.6,6.5,1.5,14.1-0.4,20.8c-4.6,17.9-13.1,39.8-37.7,50.4c-11.7,5.8-34.1,8.4-59.9,7
				C-38.4,335.9-55,333-65,329z M59,240.3c-10.5-4.2-25-8.5-39.7-11.7c-13.1-2.1-24.5-1.2-34.9,2.7c-10.1,3.9-18.9,10.6-26.8,20.5
				c-17.3,21.7-38.8,56.9-32.5,67.3l0,0.1l0,0.1c-0.4,1.9,0.6,3.9,3,5.7c7.5,5.7,27.9,10.3,52.2,11.6c25.7,1.4,48-1.2,59.7-7
				C64.6,319,73,297.2,77.6,279.4c1.9-6.7,2-14.2,0.4-20.6c-1.7-6.9-5.3-12-10.1-14.6C65.5,243,62.5,241.6,59,240.3z"/>
		</g>
		<defs>
			<filter id="Adobe_OpacityMaskFilter_22_" filterUnits="userSpaceOnUse" x="-61.6" y="233.6" width="119.4" height="91">
				<feColorMatrix  type="matrix" values="1 0 0 0 0  0 1 0 0 0  0 0 1 0 0  0 0 0 1 0"/>
			</filter>
		</defs>
		<mask maskUnits="userSpaceOnUse" x="-61.6" y="233.6" width="119.4" height="91" id="mask22_367_7864_1_">
			
				<linearGradient id="SVGID_47_" gradientUnits="userSpaceOnUse" x1="-16.885" y1="572.8992" x2="7.9392" y2="490.0679" gradientTransform="matrix(1 0 0 -1 0 811.8898)">
				<stop  offset="0" style="stop-color:#FFFFFF"/>
				<stop  offset="4.360000e-02" style="stop-color:#B4B4B4"/>
				<stop  offset="0.1507" style="stop-color:#000000"/>
				<stop  offset="0.1714" style="stop-color:#171717"/>
				<stop  offset="0.3859" style="stop-color:#FFFFFF"/>
				<stop  offset="0.6326" style="stop-color:#E6E6E6"/>
				<stop  offset="0.8567" style="stop-color:#1A1A1A"/>
				<stop  offset="0.9987" style="stop-color:#000000"/>
			</linearGradient>
			<path class="st68" d="M-53.8,321.4c-1.3-0.5-2.2-1-2.7-1.7c-2.2-0.5-3.7-1.9-4.5-4c-2.2-6.2,2.5-17.7,6.8-26.3
				c5.1-10.2,12.5-21.8,19.8-31c8.2-10.4,15.3-16.8,22.9-20.5c8.1-4,17.4-5.2,29.2-3.9c13.2,2.1,26.4,8.3,33.5,15.7
				c6.4,6.7,7.9,19.2,5.8,27.4c-4,17.2-13.2,29.6-27.4,36.9c-5.5,3.1-13,5.6-22.5,7.5c-8.2,1.6-17.6,2.6-27.1,2.9
				C-35.1,325-48,323.7-53.8,321.4z M-56.4,319.5L-56.4,319.5c0.5,0.6,1.4,1.2,2.7,1.7c12.7,5.1,61.9,4.7,83-7.4
				c14.1-7.2,23.3-19.6,27.2-36.7v0c2.1-8.1,0.6-20.5-5.7-27.1c-7.1-7.4-20.2-13.5-33.3-15.6c-11.7-1.3-20.9-0.1-29,3.9
				c-7.6,3.7-14.6,10-22.8,20.4c-7.3,9.2-14.6,20.8-19.7,30.9c-4.3,8.5-8.9,19.9-6.7,26C-60,317.7-58.6,319-56.4,319.5L-56.4,319.5z
				"/>
		</mask>
		<g class="st69">
			
				<linearGradient id="SVGID_48_" gradientUnits="userSpaceOnUse" x1="228.3402" y1="699.5498" x2="-118.4318" y2="440.8598" gradientTransform="matrix(1 0 0 -1 0 811.8898)">
				<stop  offset="0" style="stop-color:#FFFFFF"/>
				<stop  offset="0.1507" style="stop-color:#A6BBDF"/>
				<stop  offset="0.4152" style="stop-color:#7C92C9"/>
				<stop  offset="0.7246" style="stop-color:#D3DDEE"/>
				<stop  offset="1" style="stop-color:#FFFFFF"/>
			</linearGradient>
			<path class="st70" d="M-53.8,321.4c-1.3-0.5-2.2-1-2.7-1.7c-2.2-0.5-3.7-1.9-4.5-4c-2.2-6.2,2.5-17.7,6.8-26.3
				c5.1-10.2,12.5-21.8,19.8-31c8.2-10.4,15.3-16.8,22.9-20.5c8.1-4,17.4-5.2,29.2-3.9c13.2,2.1,26.4,8.3,33.5,15.7
				c6.4,6.7,7.9,19.2,5.8,27.4c-4,17.2-13.2,29.6-27.4,36.9c-5.5,3.1-13,5.6-22.5,7.5c-8.2,1.6-17.6,2.6-27.1,2.9
				C-35.1,325-48,323.7-53.8,321.4z M-56.4,319.5L-56.4,319.5c0.5,0.6,1.4,1.2,2.7,1.7c12.7,5.1,61.9,4.7,83-7.4
				c14.1-7.2,23.3-19.6,27.2-36.7v0c2.1-8.1,0.6-20.5-5.7-27.1c-7.1-7.4-20.2-13.5-33.3-15.6c-11.7-1.3-20.9-0.1-29,3.9
				c-7.6,3.7-14.6,10-22.8,20.4c-7.3,9.2-14.6,20.8-19.7,30.9c-4.3,8.5-8.9,19.9-6.7,26C-60,317.7-58.6,319-56.4,319.5L-56.4,319.5z
				"/>
		</g>
		<defs>
			<filter id="Adobe_OpacityMaskFilter_23_" filterUnits="userSpaceOnUse" x="-48.6" y="241.9" width="84.7" height="80.6">
				<feColorMatrix  type="matrix" values="1 0 0 0 0  0 1 0 0 0  0 0 1 0 0  0 0 0 1 0"/>
			</filter>
		</defs>
		<mask maskUnits="userSpaceOnUse" x="-48.6" y="241.9" width="84.7" height="80.6" id="mask23_367_7864_1_">
			
				<linearGradient id="SVGID_49_" gradientUnits="userSpaceOnUse" x1="-18.6162" y1="562.9014" x2="0.1903" y2="500.1505" gradientTransform="matrix(1 0 0 -1 0 811.8898)">
				<stop  offset="0" style="stop-color:#FFFFFF"/>
				<stop  offset="4.360000e-02" style="stop-color:#B4B4B4"/>
				<stop  offset="0.1507" style="stop-color:#000000"/>
				<stop  offset="0.1714" style="stop-color:#171717"/>
				<stop  offset="0.3859" style="stop-color:#FFFFFF"/>
				<stop  offset="0.6326" style="stop-color:#E6E6E6"/>
				<stop  offset="0.8567" style="stop-color:#1A1A1A"/>
				<stop  offset="0.9987" style="stop-color:#000000"/>
			</linearGradient>
			<path class="st71" d="M-44.5,321.9c-1.3-0.5-2.2-1.3-2.9-2.5c-1.7-2.9-2.5-9.3,3.8-23.4c4.2-9.5,10.6-20.2,17.2-28.7
				c7.8-10,13-16.4,18.9-20.3c6.1-4.1,12.9-5.6,23.3-5c5.7,0.3,10.4,2.6,13.8,6.9c7.4,9.2,6.7,24.5,6.2,27.8
				c-1,6.2-4.5,12.1-10.2,17.7c-5,4.8-11.7,9.3-19.9,13.4c-14.9,7.5-32.3,12.3-43.6,14.4C-40.6,322.7-42.8,322.6-44.5,321.9z
				 M22.1,243.6c-1.9-0.8-4-1.2-6.3-1.3c-10.4-0.6-17.1,0.9-23.1,5c-5.9,4-11,10.3-18.8,20.3c-12,15.4-26.4,42.7-21,51.7
				c1.6,2.6,4.6,3.4,9.2,2.6c11.3-2.1,28.7-6.9,43.5-14.3c8.2-4.1,14.9-8.6,19.8-13.4c5.7-5.5,9.1-11.4,10.2-17.5
				c0.5-3.3,1.2-18.5-6.1-27.6C27.4,246.6,24.9,244.7,22.1,243.6z"/>
		</mask>
		<g class="st72">
			
				<linearGradient id="SVGID_50_" gradientUnits="userSpaceOnUse" x1="224.9913" y1="702.0411" x2="-121.7827" y2="443.3502" gradientTransform="matrix(1 0 0 -1 0 811.8898)">
				<stop  offset="0" style="stop-color:#FFFFFF"/>
				<stop  offset="0.1507" style="stop-color:#A6BBDF"/>
				<stop  offset="0.4152" style="stop-color:#7C92C9"/>
				<stop  offset="0.7246" style="stop-color:#D3DDEE"/>
				<stop  offset="1" style="stop-color:#FFFFFF"/>
			</linearGradient>
			<path class="st73" d="M-44.5,321.9c-1.3-0.5-2.2-1.3-2.9-2.5c-1.7-2.9-2.5-9.3,3.8-23.4c4.2-9.5,10.6-20.2,17.2-28.7
				c7.8-10,13-16.4,18.9-20.3c6.1-4.1,12.9-5.6,23.3-5c5.7,0.3,10.4,2.6,13.8,6.9c7.4,9.2,6.7,24.5,6.2,27.8
				c-1,6.2-4.5,12.1-10.2,17.7c-5,4.8-11.7,9.3-19.9,13.4c-14.9,7.5-32.3,12.3-43.6,14.4C-40.6,322.7-42.8,322.6-44.5,321.9z
				 M22.1,243.6c-1.9-0.8-4-1.2-6.3-1.3c-10.4-0.6-17.1,0.9-23.1,5c-5.9,4-11,10.3-18.8,20.3c-12,15.4-26.4,42.7-21,51.7
				c1.6,2.6,4.6,3.4,9.2,2.6c11.3-2.1,28.7-6.9,43.5-14.3c8.2-4.1,14.9-8.6,19.8-13.4c5.7-5.5,9.1-11.4,10.2-17.5
				c0.5-3.3,1.2-18.5-6.1-27.6C27.4,246.6,24.9,244.7,22.1,243.6z"/>
		</g>
	</g>
</g>
</svg>
