<svg xmlns="http://www.w3.org/2000/svg" viewBox="0 0 353.88 65.99">
  <defs>
    <style>.cls-1{fill:#f2f2f2;}</style>
  </defs>
  <g id="Layer_2" data-name="Layer 2">
    <g id="圖層_1" data-name="圖層 1">
      <path class="cls-1" d="M117.14,16.21a11.06,11.06,0,0,0-8.44,3.46c-2-2.27-4.85-3.46-8.5-3.46-7.15,0-12,5-12,12.53V45.93a3.49,3.49,0,0,0,3.5,3.55,3.53,3.53,0,0,0,3.5-3.55V28.68c0-3.64,1.85-5.82,5-5.82s5,2.18,5,5.82V45.93a3.49,3.49,0,0,0,3.5,3.55,3.53,3.53,0,0,0,3.5-3.55V28.68c0-3.64,1.85-5.82,4.94-5.82s5,2.18,5,5.82V45.93a3.49,3.49,0,0,0,3.5,3.55,3.53,3.53,0,0,0,3.5-3.55V28.74C129.15,21.25,124.32,16.21,117.14,16.21Z"/>
      <path class="cls-1" d="M166.7,38.38a4,4,0,0,0-2.76,1.36l-.09.09A9.09,9.09,0,0,1,156.91,43a9.72,9.72,0,0,1-9.58-10.05,9.72,9.72,0,0,1,9.58-10,8.3,8.3,0,0,1,3.93.95l-8.3,9.79a3.1,3.1,0,0,0-.83,2.24,3.36,3.36,0,0,0,5.91,2.09L168,25.47a3.51,3.51,0,0,0-.19-5.2,16.22,16.22,0,0,0-10.93-4.06,16.49,16.49,0,0,0-16.63,16.7A16.48,16.48,0,0,0,156.91,49.6a15.91,15.91,0,0,0,12.3-5.5,3.8,3.8,0,0,0,1-2.34A3.37,3.37,0,0,0,166.7,38.38Z"/>
      <circle class="cls-1" cx="184.94" cy="10.68" r="4.08"/>
      <path class="cls-1" d="M184.94,16.33a3.47,3.47,0,0,0-3.5,3.5v26.1a3.49,3.49,0,0,0,3.5,3.55,3.53,3.53,0,0,0,3.5-3.55V19.83A3.5,3.5,0,0,0,184.94,16.33Z"/>
      <path class="cls-1" d="M228.37,16.21a11.07,11.07,0,0,0-8.45,3.46c-1.94-2.27-4.85-3.46-8.5-3.46-7.14,0-11.94,5-11.94,12.53V45.93A3.48,3.48,0,0,0,203,49.48a3.53,3.53,0,0,0,3.5-3.55V28.68c0-3.64,1.85-5.82,4.95-5.82s5,2.18,5,5.82V45.93a3.49,3.49,0,0,0,3.5,3.55,3.53,3.53,0,0,0,3.5-3.55V28.68c0-3.64,1.85-5.82,5-5.82s5,2.18,5,5.82V45.93a3.49,3.49,0,0,0,3.5,3.55,3.53,3.53,0,0,0,3.5-3.55V28.74C240.37,21.25,235.55,16.21,228.37,16.21Z"/>
      <path class="cls-1" d="M281.15,16.33a3.5,3.5,0,0,0-3.48,3.18,16.17,16.17,0,0,0-9.83-3.3,16.35,16.35,0,0,0-16.34,16.7A16.34,16.34,0,0,0,267.84,49.6a16.09,16.09,0,0,0,9.84-3.28,3.49,3.49,0,0,0,7-.39V19.83A3.47,3.47,0,0,0,281.15,16.33Zm-3.5,16.11v.91c-.22,5.48-4.31,9.61-9.52,9.61a9.72,9.72,0,0,1-9.58-10.05,9.72,9.72,0,0,1,9.58-10A9.61,9.61,0,0,1,277.65,32.44Z"/>
      <path class="cls-1" d="M295.78,35.43c0,8.41,5.51,14,13.7,14a3.38,3.38,0,0,0,0-6.75c-4.22,0-6.65-2.66-6.65-7.3V23.24h6.65a3.4,3.4,0,0,0,3.35-3.35,3.36,3.36,0,0,0-3.35-3.35h-6.65V12.38a3.45,3.45,0,0,0-3.52-3.53,3.49,3.49,0,0,0-3.53,3.53Z"/>
      <path class="cls-1" d="M350.38,38.38a4,4,0,0,0-2.76,1.36l-.09.09A9.09,9.09,0,0,1,340.59,43,9.72,9.72,0,0,1,331,32.91a9.72,9.72,0,0,1,9.58-10,8.3,8.3,0,0,1,3.93.95l-8.3,9.79a3.1,3.1,0,0,0-.83,2.24,3.36,3.36,0,0,0,5.91,2.09l10.41-12.46a3.51,3.51,0,0,0-.19-5.2,16.22,16.22,0,0,0-10.93-4.06A16.49,16.49,0,0,0,324,32.91,16.48,16.48,0,0,0,340.59,49.6a15.91,15.91,0,0,0,12.3-5.5,3.8,3.8,0,0,0,1-2.34A3.37,3.37,0,0,0,350.38,38.38Z"/>
      <path class="cls-1" d="M65.82,26.45A48.23,48.23,0,0,0,63.11,12.5,16.74,16.74,0,0,0,53.5,2.88a48,48,0,0,0-14-2.7C37.05,0,34.78,0,33,0s-4.06,0-6.55.18a49.37,49.37,0,0,0-13,2.35A17.67,17.67,0,0,0,2.53,13.45a49.37,49.37,0,0,0-2.35,13C0,28.94,0,31.21,0,33s0,4,.18,6.54a48,48,0,0,0,2.7,14,16.74,16.74,0,0,0,9.62,9.61,48.23,48.23,0,0,0,14,2.71C28.94,66,31.21,66,33,66s4,0,6.54-.17a48.29,48.29,0,0,0,14-2.71,16.73,16.73,0,0,0,9.61-9.61,48.29,48.29,0,0,0,2.71-14C66,37.05,66,34.78,66,33S66,28.94,65.82,26.45ZM50.2,45.78a3.14,3.14,0,1,1-6.27,0V30.33c0-3.27-1.67-5.22-4.48-5.22S35,27.06,35,30.33V45.78A3.17,3.17,0,0,1,31.88,49a3.12,3.12,0,0,1-3.13-3.19V30.33c0-3.27-1.68-5.22-4.49-5.22s-4.43,1.95-4.43,5.22V45.78A3.17,3.17,0,0,1,16.69,49a3.12,3.12,0,0,1-3.13-3.19V30.38c0-6.71,4.3-11.22,10.7-11.22a9.58,9.58,0,0,1,7.62,3.1,9.88,9.88,0,0,1,7.57-3.1c6.43,0,10.75,4.51,10.75,11.22ZM52.62,20A3.67,3.67,0,0,1,49,16.34a3.63,3.63,0,0,1,3.66-3.67,3.67,3.67,0,0,1,3.66,3.67A3.71,3.71,0,0,1,52.62,20Z"/>
    </g>
  </g>
</svg>
